<svg width="98" height="30" viewBox="0 0 98 30" fill="none" xmlns="http://www.w3.org/2000/svg">
  <path fill="#224259" d="M0 .225L97.127 0l.02 8.87-97.126.226z"/>
  <path fill="#00FFF0" d="M0 10.225L97.127 10l.02 8.87-97.126.226z"/>
  <path fill="#224259" d="M0 20.225L97.127 20l.02 8.87-97.126.226z"/>
  <path d="M11.624 22.232c-.496 0-1.024.016-1.584.048-.544.032-1.096.08-1.656.144-.56.064-1.112.152-1.656.264a10.51 10.51 0 0 0-1.44.36c.096-.72.208-1.52.336-2.4.128-.88.272-1.792.432-2.736.176-.944.344-1.896.504-2.856.176-.96.352-1.88.528-2.76.4-2.096.824-4.232 1.272-6.408l4.2-.552c-.432 1.856-.848 3.664-1.248 5.424-.176.752-.352 1.536-.528 2.352-.176.8-.344 1.584-.504 2.352a77.25 77.25 0 0 0-.432 2.232c-.128.72-.232 1.36-.312 1.92.4-.032.824-.048 1.272-.048a36.03 36.03 0 0 1 1.224-.024c.016.304.04.608.072.912.032.288.064.552.096.792.048.24.08.456.096.648.032.176.056.296.072.36h-.384a2.549 2.549 0 0 0-.36-.024zm.81.792L15.578 5.96l7.584-.648a11.89 11.89 0 0 0-.288 1.08c-.08.304-.16.624-.24.96-.064.32-.12.608-.168.864-.16.016-.392.032-.696.048-.288 0-.6.008-.936.024h-1.92l-.84 4.296c.496-.032.96-.056 1.392-.072a23.79 23.79 0 0 1 1.08-.024c.368 0 .64-.008.816-.024-.064.448-.128.888-.192 1.32a20.2 20.2 0 0 1-.192 1.32c-.16.016-.424.032-.792.048-.352 0-.712.008-1.08.024-.416.016-.872.032-1.368.048l-.816 4.416 3.504-.552-.24 2.736-7.752 1.2zm16.82-.504c-.4.064-.84.136-1.32.216l-1.296.216.192-1.56c.048-.448.088-.896.12-1.344.048-.448.088-.832.12-1.152h-2.088l-.96 3.456-1.248.168c-.48.048-.928.096-1.344.144-.512.064-1.016.128-1.512.192.64-2.128 1.272-4.224 1.896-6.288.256-.864.52-1.768.792-2.712.288-.944.568-1.88.84-2.808.288-.944.56-1.848.816-2.712.256-.864.48-1.656.672-2.376 1.088-.08 2.192-.176 3.312-.288a42.358 42.358 0 0 0 3.312-.456c-.048.512-.104 1.152-.168 1.92-.048.752-.096 1.576-.144 2.472-.048.896-.096 1.832-.144 2.808l-.144 2.88c-.08 2.208-.168 4.552-.264 7.032-.48.08-.96.144-1.44.192zm-3.696-6.024h.336c.176-.016.352-.024.528-.024.192-.016.368-.024.528-.024.16-.016.272-.032.336-.048 0-.096.008-.256.024-.48.032-.24.056-.504.072-.792.032-.304.064-.632.096-.984l.096-1.032c.064-.816.144-1.696.24-2.64l.144-2.088-.36.024-.552 2.064-1.488 6.024zm5.343 6.528c.432-2.128.848-4.208 1.248-6.24.144-.864.304-1.76.48-2.688.176-.944.336-1.872.48-2.784.16-.928.304-1.816.432-2.664.144-.864.256-1.648.336-2.352a16.31 16.31 0 0 1 2.952-.624 23.247 23.247 0 0 1 3.144-.216c.624 0 1.136.072 1.536.216.416.144.736.352.96.624.24.256.408.56.504.912.096.352.144.744.144 1.176 0 .64-.112 1.272-.336 1.896a7.955 7.955 0 0 1-.912 1.752 8.885 8.885 0 0 1-1.296 1.512c-.48.448-1 .816-1.56 1.104.288.64.592 1.344.912 2.112.336.752.648 1.472.936 2.16.32.8.648 1.6.984 2.4l-3.72 1.296c-.32-1.024-.608-1.984-.864-2.88-.112-.368-.224-.744-.336-1.128-.112-.4-.216-.776-.312-1.128a27.85 27.85 0 0 1-.24-.936 5.793 5.793 0 0 1-.12-.696l-.312.096a88.995 88.995 0 0 1-.36 1.8c-.128.688-.248 1.352-.36 1.992-.144.752-.288 1.512-.432 2.28L30.9 23.024zm5.64-10.416c.304-.032.672-.16 1.104-.384a8.04 8.04 0 0 0 1.272-.792c.4-.32.744-.648 1.032-.984.288-.336.432-.632.432-.888a.508.508 0 0 0-.168-.408.971.971 0 0 0-.48-.24 2.594 2.594 0 0 0-.648-.12 11.19 11.19 0 0 0-.744-.024c-.176 0-.36.008-.552.024h-.48l-.768 3.816zm5.048 10.512c.48-2.304.936-4.536 1.368-6.696.16-.928.328-1.888.504-2.88a114.303 114.303 0 0 0 .96-5.712c.128-.896.224-1.704.288-2.424.208.016.384.024.528.024H46.557l.96-.048c.32-.016.664-.032 1.032-.048.224 1.12.424 2.2.6 3.24.176.912.352 1.848.528 2.808.192.96.36 1.776.504 2.448.064-.32.136-.688.216-1.104.08-.432.168-.88.264-1.344.096-.464.184-.928.264-1.392.096-.48.192-.952.288-1.416.224-1.04.456-2.112.696-3.216L54.837 5a228.98 228.98 0 0 0-1.44 6.96 458.15 458.15 0 0 0-.576 2.88c-.176.96-.344 1.888-.504 2.784-.16.88-.296 1.704-.408 2.472-.112.752-.2 1.384-.264 1.896-.048 0-.24.04-.576.12-.32.064-.696.144-1.128.24-.416.096-.84.192-1.272.288a7.494 7.494 0 0 0-.936.264c-.096-1.28-.2-2.496-.312-3.648-.048-.496-.104-1-.168-1.512a36.37 36.37 0 0 0-.168-1.512 67.8 67.8 0 0 0-.192-1.344 20.347 20.347 0 0 0-.192-1.08c-.048.304-.112.656-.192 1.056s-.16.824-.24 1.272c-.08.448-.16.92-.24 1.416-.08.48-.168.944-.264 1.392a311.667 311.667 0 0 1-.672 3.36l-3.504.816zm12.891-.096a431.3 431.3 0 0 0 1.056-5.208 179.337 179.337 0 0 0 .84-4.56c.144-.768.264-1.504.36-2.208.112-.72.208-1.376.288-1.968a6.587 6.587 0 0 0-1.128-.048 3.279 3.279 0 0 1-1.104-.144c.016-.256.024-.552.024-.888 0-.336.008-.672.024-1.008l.048-1.176a32.613 32.613 0 0 0 2.496.096c.816 0 1.6-.016 2.352-.048.768-.048 1.472-.096 2.112-.144a63.883 63.883 0 0 0 1.92-.216L63.504 6.8c-.08.368-.16.744-.24 1.128-.064.384-.128.712-.192.984a8.063 8.063 0 0 1-1.08.216c-.352.032-.704.08-1.056.144-.112.544-.232 1.152-.36 1.824-.128.656-.256 1.344-.384 2.064a323.8 323.8 0 0 0-.336 2.16c-.112.736-.224 1.44-.336 2.112a172.094 172.094 0 0 0-.72 4.92l-4.32.672zM71 18.32c-.224.912-.544 1.688-.96 2.328-.4.64-.88 1.168-1.44 1.584a5.562 5.562 0 0 1-1.752.912 6.336 6.336 0 0 1-1.872.288c-.368 0-.744-.064-1.128-.192a3.006 3.006 0 0 1-1.032-.528 3.068 3.068 0 0 1-.768-.912c-.192-.368-.288-.8-.288-1.296v-.192c0-.064.008-.128.024-.192.064-.656.168-1.448.312-2.376.144-.928.296-1.896.456-2.904a99.65 99.65 0 0 1 .528-3.024c.192-1.024.36-1.952.504-2.784a166.604 166.604 0 0 1 .624-3.096c.336-.032.736-.072 1.2-.12.464-.048.896-.088 1.296-.12l1.464-.144a523.815 523.815 0 0 0-1.104 5.256l-.432 2.016a52.022 52.022 0 0 1-.384 1.848c-.112.56-.216 1.048-.312 1.464-.08.4-.152.728-.216.984a86.41 86.41 0 0 1-.192.984 6.463 6.463 0 0 0-.096 1.056c0 .256.064.472.192.648.128.16.288.24.48.24a.842.842 0 0 0 .672-.312c.176-.224.32-.488.432-.792.128-.304.216-.608.264-.912.064-.32.12-.568.168-.744.096-.464.2-.976.312-1.536.128-.576.248-1.168.36-1.776.128-.624.248-1.256.36-1.896.128-.64.248-1.264.36-1.872a199.8 199.8 0 0 0 .792-4.368l3.648-.24-.12.624a591.32 591.32 0 0 0-.744 4.008c-.144.88-.312 1.8-.504 2.76-.192.944-.384 1.88-.576 2.808A74.709 74.709 0 0 1 71 18.32zm10.918-1.344c0 .656-.136 1.264-.408 1.824a5.666 5.666 0 0 1-1.104 1.536 7.973 7.973 0 0 1-1.632 1.2 12.57 12.57 0 0 1-1.944.864c-.672.224-1.368.4-2.088.528-.704.112-1.384.168-2.04.168a8.99 8.99 0 0 1-1.656-.144 77.978 77.978 0 0 0 1.824-8.448c.464-2.848.904-5.712 1.32-8.592a39.56 39.56 0 0 1 2.592-.456 17.524 17.524 0 0 1 2.784-.216c.4 0 .824.048 1.272.144a3.35 3.35 0 0 1 1.224.528c.368.256.672.592.912 1.008.256.416.384.944.384 1.584 0 .608-.104 1.176-.312 1.704a5.644 5.644 0 0 1-.768 1.44 5.455 5.455 0 0 1-1.056 1.128c-.4.304-.808.536-1.224.696.208.112.424.272.648.48.224.208.432.456.624.744.192.272.344.6.456.984.128.384.192.816.192 1.296zm-5.496-2.496c-.064.384-.128.728-.192 1.032a89.54 89.54 0 0 1-.144.84c-.048.272-.104.56-.168.864-.048.288-.104.632-.168 1.032.304-.032.648-.088 1.032-.168.384-.08.752-.2 1.104-.36.352-.176.648-.4.888-.672.24-.288.36-.632.36-1.032 0-.288-.08-.528-.24-.72a1.713 1.713 0 0 0-.576-.48 2.288 2.288 0 0 0-.744-.264 3.36 3.36 0 0 0-.768-.096h-.216a.705.705 0 0 0-.168.024zm1.08-5.808c-.032.176-.072.384-.12.624a13.183 13.183 0 0 1-.288 1.536c-.048.256-.088.48-.12.672a8.49 8.49 0 0 0 1.056-.264c.352-.112.664-.232.936-.36.288-.144.512-.296.672-.456.176-.16.264-.336.264-.528 0-.24-.072-.432-.216-.576a1.517 1.517 0 0 0-.576-.384 2.654 2.654 0 0 0-.72-.192 3.337 3.337 0 0 0-.648-.072h-.24zm4.026 14.352L84.672 5.96l7.584-.648a11.89 11.89 0 0 0-.288 1.08c-.08.304-.16.624-.24.96-.064.32-.12.608-.168.864-.16.016-.392.032-.696.048-.288 0-.6.008-.936.024h-1.92l-.84 4.296c.496-.032.96-.056 1.392-.072a23.79 23.79 0 0 1 1.08-.024c.368 0 .64-.008.816-.024-.064.448-.128.888-.192 1.32a20.2 20.2 0 0 1-.192 1.32c-.16.016-.424.032-.792.048-.352 0-.712.008-1.08.024-.416.016-.872.032-1.368.048l-.816 4.416 3.504-.552-.24 2.736-7.752 1.2z" fill="#fff"/>
  <path d="M10.04 22.28l-.057-.998H9.98l.059.998zm-1.656.144l.114.994-.114-.994zm-1.656.264l.179.984.011-.002.012-.003-.202-.979zm-1.44.36l-.991-.132-.212 1.587 1.52-.506-.317-.949zm.336-2.4l-.99-.144.99.144zm.432-2.736l-.983-.183-.002.008v.008l.985.167zm.504-2.856l-.984-.18-.001.008-.001.008.986.164zm.528-2.76l.98.196.002-.009-.982-.187zM8.36 5.888l-.13-.991-.706.092-.143.697.979.202zm4.2-.552l.974.227.327-1.407-1.431.189.13.991zm-1.248 5.424l.974.228.001-.006-.975-.222zm-.528 2.352l.977.215v-.004l-.977-.211zm-.504 2.352l.979.204-.979-.204zm-.432 2.232l-.985-.175.985.175zm-.312 1.92l-.99-.141-.177 1.237 1.247-.1-.08-.996zm1.272-.048v1h.035l-.035-1zm1.224-.024l.999-.053-.05-.947h-.949v1zm.072.912l-.994.105v.005l.994-.11zm.096.792l-.991.132.004.032.006.032.981-.196zm.096.648l-.996.083.003.048.01.048.983-.179zm.072.36v1h1.28l-.31-1.242-.97.242zm-.384 0l-.141.99.07.01h.071v-1zm-.36-1.024c-.517 0-1.065.017-1.641.05l.114 1.996a26.798 26.798 0 0 1 1.527-.046v-2zm-1.643.05c-.563.033-1.133.082-1.71.148l.227 1.988a29.209 29.209 0 0 1 1.6-.14l-.117-1.996zm-1.71.148c-.59.068-1.171.16-1.745.279l.404 1.959c.514-.107 1.037-.19 1.568-.25L8.27 21.43zm-1.722.274c-.566.103-1.093.234-1.577.395l.632 1.898c.38-.127.813-.236 1.303-.325l-.358-1.968zm-.27 1.476c.096-.715.207-1.511.335-2.388l-1.98-.288c-.128.883-.24 1.687-.337 2.412l1.982.264zm.335-2.388c.126-.872.27-1.776.428-2.713l-1.972-.334c-.161.951-.306 1.87-.436 2.76l1.98.287zm.425-2.697c.177-.95.346-1.908.507-2.875l-1.972-.328c-.16.953-.326 1.9-.501 2.837l1.966.366zm.505-2.859c.175-.955.35-1.87.525-2.744L6.107 12.1c-.177.886-.354 1.81-.53 2.776l1.967.36zm.526-2.753c.4-2.09.822-4.222 1.27-6.393l-1.96-.404c-.448 2.18-.873 4.322-1.274 6.422l1.964.375zm.42-5.604l4.2-.552-.26-1.982-4.2.552.26 1.982zm3.096-1.77c-.432 1.858-.849 3.668-1.25 5.43l1.951.443c.4-1.759.815-3.565 1.247-5.42l-1.948-.453zm-1.248 5.423c-.177.758-.354 1.548-.532 2.37l1.956.42c.174-.81.35-1.588.524-2.334l-1.948-.456zm-.53 2.365c-.177.804-.346 1.591-.507 2.363l1.958.408c.16-.764.326-1.545.502-2.341l-1.954-.43zM9.3 15.26c-.162.777-.308 1.53-.438 2.261l1.97.35c.126-.71.268-1.444.426-2.203l-1.958-.408zm-.438 2.261c-.129.728-.235 1.38-.317 1.954l1.98.282c.078-.546.18-1.174.307-1.886l-1.97-.35zm.753 3.092c.37-.03.768-.045 1.192-.045v-2c-.472 0-.922.017-1.352.051l.16 1.994zm1.226-.046c.456-.015.852-.023 1.19-.023v-2c-.366 0-.786.008-1.258.025l.069 1.998zm.191-.97c.017.321.043.642.077.964l1.989-.21c-.03-.286-.053-.573-.068-.86l-1.998.106zm.077.97c.033.293.066.565.099.813l1.982-.264c-.03-.232-.062-.488-.093-.77l-1.988.22zm.11.877c.042.212.067.39.08.535l1.992-.166a6.762 6.762 0 0 0-.111-.761l-1.962.392zm.092.63c.032.174.06.324.086.424l1.94-.485a6.423 6.423 0 0 1-.058-.296l-1.968.358zm1.056-.818h-.002-.003-.003-.003-.003-.003-.003-.003-.003-.003-.003-.003-.003-.003-.003-.003-.003-.003-.003-.003-.003-.003-.003-.003-.003-.003-.002-.001-.003-.003-.003-.003-.003-.003-.003-.003-.003-.003-.003-.003-.003-.003-.003-.003-.003-.003-.003-.003-.003-.003-.003-.003-.003-.003-.003-.003-.003-.003-.003-.003-.003-.003-.003-.003-.003-.003-.003-.003-.003-.003-.003-.003-.003-.003-.002-.001-.003-.003-.003-.003-.003-.003-.003-.003-.003-.003-.003-.003-.003-.003-.003-.003-.003-.003-.003-.003-.003-.003-.003-.003-.003-.003-.003-.003-.003-.003-.002-.001-.003-.003-.003-.003-.003-.003-.003-.003-.003-.003-.003-.003-.003-.003-.003-.002-.001-.003H12h-.003-.003-.003-.003-.003-.001v2H12.369v-2zm-.243.01a3.545 3.545 0 0 0-.501-.034v2c.087 0 .159.005.219.014l.282-1.98zm.31 1.758l-.984-.181-.255 1.385 1.391-.216-.153-.988zM15.577 5.96l-.085-.996-.76.065-.138.75.983.181zm7.584-.648l.953.303.454-1.427-1.492.128.085.996zm-.288 1.08l.967.254.006-.02.004-.022-.977-.212zm-.24.96l-.973-.232-.004.018-.003.018.98.196zm-.168.864l.1.995.745-.075.138-.736-.983-.184zm-.696.048v1h.027l.026-.001-.053-.999zm-.936.024v1h.024l.024-.001-.048-.999zm-1.92 0v-1h-.823l-.158.808.981.192zm-.84 4.296l-.981-.192-.25 1.274 1.296-.084-.065-.998zm1.392-.072l.037 1 .009-.001-.046-.999zm1.896-.048l.99.141.179-1.251-1.26.114.091.996zm-.192 1.32l-.989-.147-.003.018-.002.019.994.11zm-.192 1.32l.1.995.752-.075.133-.744-.985-.176zm-.792.048v1h.044l-.044-1zm-1.08.024l.039 1h.005l-.044-1zm-1.368.048l-.032-1-.805.027-.146.791.983.182zm-.816 4.416l-.983-.182-.257 1.39 1.396-.22-.156-.988zm3.504-.552l.996.087.112-1.274-1.263.2.155.987zm-.24 2.736l.153.988.775-.12.068-.78-.996-.088zm-6.768 1.381l3.144-17.064-1.967-.362-3.144 17.064 1.967.362zm2.245-16.249l7.584-.648-.17-1.992-7.584.648.17 1.992zM22.21 5.01c-.121.382-.226.773-.312 1.17l1.954.425c.074-.338.162-.667.264-.989L22.21 5.01zm-.302 1.129c-.082.312-.164.64-.246.982l1.946.464c.078-.33.156-.642.234-.938l-1.934-.508zm-.253 1.018a74.88 74.88 0 0 0-.17.876l1.965.368c.047-.25.102-.535.166-.852l-1.961-.392zm.713.065c-.137.014-.35.029-.65.044l.106 1.998c.308-.017.559-.034.743-.052l-.2-1.99zm-.597.043c-.306 0-.634.008-.983.025l.095 1.998c.322-.016.618-.023.888-.023v-2zm-.936.024h-.002-.002-.002-.002-.002-.002-.002-.002-.002-.002-.002-.002H20.8h-.002-.002-.002-.002-.002-.002-.002-.002-.002-.002-.002-.002-.002-.002-.002-.002-.002-.002-.002-.002-.002-.002-.002-.002-.002-.002-.002-.002-.002-.002-.002-.002-.002H20.718h-.002-.002-.002-.002-.002-.002-.002-.002-.002-.002-.002-.002-.002-.002-.002-.002-.002-.002-.002-.002-.002-.002-.002-.002-.002-.002-.002-.002-.002-.002-.002-.002-.002-.002-.002-.002-.002-.002-.002-.002-.002-.002-.002-.002-.002-.002-.002-.002-.002-.002-.002-.002-.002-.002H20.573h-.002-.002-.002-.002-.002-.002-.002-.002-.002-.002-.002-.002-.002-.002-.002-.002-.002-.002-.002-.002-.002-.002-.002-.002-.002-.002-.002-.002-.002-.002-.002-.002-.002-.002-.002-.002-.002-.002-.002-.002-.002-.002-.002-.002-.002-.002-.002-.002-.002-.002-.002-.002-.002-.002-.002-.002-.002-.002-.002-.002-.002-.002-.002-.002-.002-.002-.002-.002-.002-.002-.002-.002-.002-.002-.002-.002-.002H20.378h-.002-.002-.002-.002-.002-.002-.002-.002-.002-.002-.002-.002-.002-.002-.002-.002-.002-.002-.002-.002-.002-.002-.002-.002-.002-.002-.002-.002-.002-.002-.002-.002-.002-.002-.002-.002-.002-.002-.002-.002-.002-.002-.002-.002-.002-.002-.002-.002-.002-.002-.002-.002-.021-.002-.002-.002-.002-.002-.002-.002-.002-.002-.002-.002-.002-.002-.002-.002-.002-.002-.002-.002-.002-.002-.002-.002-.002-.002-.002-.002-.002-.002-.002-.002-.002-.015-.002-.002-.002-.002-.002-.002-.002-.002-.002-.002-.002-.002-.002-.002-.002-.002-.002-.002-.002-.002-.002-.002-.002-.002-.002H20.11h-.002-.002-.002-.002-.002-.002-.002-.002-.002-.002-.002-.002-.002-.002-.002-.002-.002-.002-.002-.002-.002H20.056h-.002-.002-.002-.002-.002-.002-.002-.002-.002-.002-.002-.002-.002-.002-.002-.002-.002-.002-.002-.011-.002-.002-.002H20h-.002-.002-.002-.002-.002-.002-.002-.002-.002-.002-.002-.002-.002-.011-.002-.002-.002-.002-.002-.002-.002-.002-.002-.002-.002-.002-.002-.002-.002H19.919h-.002-.002-.002-.002-.002-.002-.002-.002-.002-.002-.002-.002-.002H19.884h-.002-.002-.002-.002-.002-.002-.002-.002-.002-.002-.002-.002-.002-.002H19.847h-.002-.002-.002-.002-.002-.002-.002-.002-.002-.002-.002-.002-.002H19.812h-.002-.002-.002-.002-.002v2H20.834v-2zm-1.032 0H19.8h-.002-.002-.002-.002-.002-.002-.002-.002-.002-.007-.002-.002-.002-.002-.002-.002-.002-.002-.002-.002-.002-.002-.002-.002-.002-.002-.005-.002-.002-.002-.002-.002-.002-.002-.002-.002-.002-.002-.002-.005-.002-.002-.002-.002-.002-.002-.002-.002-.002-.002-.003-.002-.002-.002-.002-.002-.002-.002-.002-.002-.003-.002-.002-.002-.002-.002-.002-.002-.002-.003-.002-.002-.002-.002-.002-.002-.002-.003-.002-.002-.002-.002-.002-.002-.002-.003-.002-.002-.002-.002-.002-.002-.003-.002-.002-.002-.002-.002-.003-.002-.002-.002-.002-.002-.002-.001-.002-.002-.002-.002-.002-.002-.001-.002-.002-.002-.002-.002-.003-.002-.002-.002-.002-.002-.001-.002-.002-.002-.002-.002-.001-.002-.002-.002-.002-.002-.001-.002-.002-.002-.002-.003-.002-.002-.002-.002-.003-.002-.002-.002-.002-.001-.002-.002-.002-.002-.001-.002-.002-.002-.002-.003-.002-.002-.002-.003-.002-.002-.002-.001-.002-.002-.002-.002-.001-.002-.002-.002-.002-.001-.002-.002-.002-.003-.002-.002-.002-.001-.002-.002-.002-.003-.002-.002-.002-.001-.002-.002-.003-.002-.002-.002-.003-.002-.002-.003-.002-.002-.003-.002-.002-.003-.002-.002-.003-.002-.002-.003-.002-.002-.003-.002-.002-.001-.002-.002-.002-.001-.002-.002-.002-.001-.002-.002-.003-.002-.002-.001-.002-.002-.003-.002-.002-.001-.002-.002-.002-.001-.002-.002-.001-.002-.002-.003-.002-.002-.001-.002-.002-.001-.002-.002-.002-.001-.002-.002-.001-.002-.002-.001-.002-.002-.001-.002-.002-.003-.002-.002-.001-.002-.002-.001-.002-.002-.001-.002-.002-.001-.002-.002-.001-.002-.002-.001-.002-.002-.001-.002-.002-.001-.002-.002-.001-.002-.002-.001-.002-.002-.001-.002-.002-.001-.002-.002-.001-.002-.003-.002-.001-.002-.002-.001-.002-.002-.001-.002-.002-.001-.002-.003-.002-.001-.002-.002-.001-.002-.002-.001-.002-.001-.002-.002-.001-.002-.002-.001-.002-.001-.002-.002-.001-.002-.001-.002-.002-.001-.002-.003-.002-.001-.002-.002-.001-.002-.001-.002-.002-.001-.002-.001-.002-.002-.001-.002-.001-.002-.001-.002-.002-.001-.002-.001-.002-.002-.001-.002-.001-.002-.003-.002-.001-.002-.001-.002-.002-.001-.002-.001-.002-.001-.002-.003-.002-.001-.002-.001-.002-.001-.002-.002-.001-.002-.001-.002-.001H19 19h-.002-.002-.001-.002-.001-.002-.001-.002-.001-.002-.001-.002-.002-.001-.002-.001-.002-.001-.002-.001-.002-.001-.002-.001-.002-.001-.002-.002-.001-.002-.001-.002-.001-.002-.001-.002-.001-.002-.001-.002-.001-.002-.001-.002-.001-.002-.001-.002-.001-.002-.001-.002-.001-.002-.001-.002v2H19.802v-2zm-1.87.808l-.84 4.296 1.964.384.84-4.296-1.963-.384zm.207 5.486c.488-.032.943-.055 1.364-.07l-.074-2c-.442.017-.915.042-1.42.074l.13 1.996zm1.373-.071c.336-.015.68-.023 1.034-.023v-2c-.382 0-.757.008-1.125.025l.09 1.998zm1.034-.023c.373 0 .683-.008.907-.028l-.181-1.992c-.129.012-.363.02-.726.02v2zm-.174-1.165c-.064.446-.127.884-.191 1.314l1.978.293c.065-.433.129-.875.193-1.325l-1.98-.282zm-.196 1.35c-.045.41-.106.828-.182 1.255l1.969.352c.083-.469.15-.93.201-1.386l-1.988-.22zm.703.436c-.13.013-.37.028-.736.044l.087 1.998c.369-.016.657-.033.848-.052l-.2-1.99zm-.693.043c-.367 0-.741.008-1.123.025l.087 1.998c.354-.015.7-.023 1.036-.023v-2zm-1.118.025c-.414.016-.868.032-1.362.048l.064 1.999c.498-.017.956-.033 1.375-.049l-.077-1.998zm-2.313.865l-.816 4.416 1.966.364.816-4.416-1.966-.364zm.323 5.586l3.504-.552-.311-1.976-3.504.552.31 1.976zM19.43 19l-.24 2.736 1.992.174.24-2.736-1.992-.174zm.603 1.835l-7.752 1.2.306 1.976 7.752-1.2-.306-1.976zm9.22 1.684l-.099-.995-.029.003-.03.005.159.987zm-1.32.216l-.163-.986.164.986zm-1.295.216l-.993-.12-.16 1.326 1.317-.22-.164-.986zm.192-1.56l.992.124.001-.009.001-.009-.994-.106zm.12-1.344l-.994-.106-.002.017-.002.018.998.071zm.12-1.152l.995.1.11-1.1H27.07v1zm-2.088 0v-1h-.76l-.204.732.964.268zm-.96 3.456l.135.99.652-.088.176-.634-.963-.268zm-1.248.168l.1.995.016-.002.016-.002-.132-.991zm-1.344.144l-.115-.994-.01.002.125.992zm-1.512.192l-.958-.288-.444 1.477 1.53-.197-.128-.992zm1.896-6.288l.957.29.002-.006-.96-.284zm.792-2.712l-.957-.292-.002.008-.002.007.96.277zm.84-2.808l-.957-.292-.003.01.96.282zm.816-2.712l.959.284-.96-.284zm.672-2.376l-.074-.997-.709.052-.183.687.966.258zm3.312-.288l-.098-.995h-.002l.1.995zm3.312-.456l.995.093.123-1.31-1.294.233.176.984zm-.168 1.92l-.997-.083v.01l-.001.01.998.063zm-.144 2.472l.998.053-.998-.053zm-.144 2.808l.999.05-1-.05zm-.144 2.88l-.999-.05v.014l.999.036zm-.264 7.032l.164.986.804-.134.031-.813-1-.039zm-5.136-5.832l-.97-.24-.307 1.24h1.277v-1zm.336 0v1h.045l.045-.004-.09-.996zm.528-.024v1h.041l.042-.004-.083-.996zm.528-.024v1H27l.05-.005-.1-.995zm.336-.048l.242.97.758-.19v-.78h-1zm.024-.48l-.991-.132-.004.03-.003.03.998.072zm.072-.792l-.995-.105-.002.025-.002.024.999.056zm.096-.984l-.996-.09.996.09zm.096-1.032l.995.095.001-.009v-.008l-.996-.078zm.24-2.64l.995.101.001-.016.002-.016-.998-.069zm.144-2.088l.998.069.078-1.143-1.143.076.067.998zm-.36.024l-.067-.998-.714.048-.185.692.966.258zm-.552 2.064l-.966-.258-.003.009-.002.01.97.239zm2.05 11.06c-.403.065-.845.137-1.326.218l.328 1.972c.479-.08.916-.151 1.314-.215l-.316-1.974zm-1.326.218l-1.296.216.328 1.972 1.296-.216-.328-1.972zm-.14 1.322l.192-1.556-1.984-.248c-.065.513-.129 1.034-.193 1.564l1.986.24zm.194-1.573c.05-.46.09-.92.123-1.38l-1.995-.142c-.03.436-.07.872-.116 1.308l1.988.213zm.12-1.345c.048-.449.089-.835.12-1.159l-1.99-.198c-.03.316-.07.698-.118 1.145l1.988.212zm-.874-2.258h-2.088v2h2.088v-2zm-3.052.732l-.96 3.456 1.927.536.96-3.456-1.927-.536zm-.131 2.733l-1.245.168.264 1.982 1.251-.168-.27-1.982zm-1.213.164c-.484.048-.937.097-1.359.146l.23 1.986c.41-.047.853-.094 1.328-.142l-.199-1.99zm-1.368.147c-.513.064-1.019.128-1.516.192l.256 1.984c.495-.064.997-.128 1.508-.192l-.248-1.984zm-.43 1.472c.64-2.127 1.271-4.223 1.895-6.287l-1.914-.578c-.624 2.064-1.257 4.16-1.897 6.289l1.915.576zm1.897-6.292a384.4 384.4 0 0 0 .794-2.72l-1.922-.553a378.57 378.57 0 0 1-.79 2.705l1.918.568zm.79-2.704c.288-.948.57-1.887.843-2.819l-1.92-.562c-.27.924-.55 1.857-.837 2.797l1.913.584zm.84-2.808c.288-.947.56-1.853.818-2.72l-1.918-.568c-.255.861-.526 1.763-.814 2.704l1.913.584zm.818-2.72c.258-.87.484-1.672.68-2.402l-1.933-.516c-.19.71-.411 1.493-.665 2.35l1.918.568zm-.214-1.663c1.097-.08 2.21-.177 3.338-.29l-.199-1.99c-1.111.111-2.207.206-3.286.286l.147 1.994zm3.337-.29c1.16-.114 2.291-.27 3.39-.467l-.352-1.968a41.359 41.359 0 0 1-3.234.445l.196 1.99zm2.218-1.544c-.048.516-.105 1.16-.169 1.93l1.993.166c.064-.766.12-1.402.167-1.91l-1.99-.186zm-.17 1.95c-.048.755-.096 1.583-.145 2.482l1.997.106c.048-.893.096-1.713.144-2.461l-1.996-.128zm-.145 2.482c-.048.897-.096 1.835-.144 2.812l1.998.098c.048-.974.096-1.91.143-2.804l-1.997-.106zm-.144 2.812l-.144 2.878 1.998.102.144-2.882-1.998-.098zm-.145 2.893c-.08 2.207-.167 4.55-.263 7.03l1.998.077c.096-2.481.184-4.826.264-7.035l-1.998-.072zm.572 6.082c-.46.076-.918.137-1.376.183l.2 1.99c.501-.05 1.003-.117 1.504-.2l-.329-1.973zm-4.972-3.846H25.895v-2h-.001-.007-.001-.001-.001-.001-.001-.001-.005-.002-.001-.001-.001-.005-.002-.001-.001-.001-.003-.002-.001-.001-.001-.003-.002-.001-.001-.003-.002-.001-.001-.003-.002-.001-.003-.002-.001-.003-.002-.001-.003-.001-.001-.003-.001-.001-.003-.001-.001-.003-.001-.001-.003-.001-.003-.001-.003-.001-.003-.001-.003-.001-.003-.001-.003-.001-.003-.003-.003-.001-.003-.003-.003-.003-.003-.003-.003-.003-.001-.001-.003-.005-.005-.005-.001-.001-.007-.001-.001-.002-.016-.002-.001-.001-.001-.006-.001-.004-.001-.004-.001-.003-.004-.001-.002-.001-.001-.003-.003-.004-.002-.001-.001-.004-.001-.002-.001-.001-.001-.003-.001-.001-.001-.001-.004-.001-.001-.001-.001-.001-.001-.001-.001-.001-.001-.001-.001-.001-.001-.001-.001-.001-.001-.001-.001-.001-.001-.004-.001-.001-.001-.003-.001-.001-.002-.001-.001-.002-.001-.002-.001-.002-.002-.001-.001-.001-.001-.001-.001-.001-.001-.002-.002-.001-.001v2zm.426-.004a4.82 4.82 0 0 1 .438-.02v-2c-.207 0-.413.01-.619.028l.181 1.992zm.52-.024c.17-.014.319-.02.446-.02v-2c-.193 0-.397.01-.611.027l.166 1.993zm.545-.025c.16-.016.337-.037.48-.073l-.486-1.94c.017-.004.012-.002-.03.004-.038.005-.091.012-.163.019l.2 1.99zm1.237-1.043c0-.057.005-.186.021-.409l-1.995-.142a8.57 8.57 0 0 0-.026.551h2zm.015-.348c.036-.27.062-.56.08-.868l-1.998-.111a9.328 9.328 0 0 1-.064.715l1.982.264zm.075-.82c.033-.309.065-.641.098-.997l-1.992-.181a70.27 70.27 0 0 1-.095.97l1.99.209zm.098-.997l.095-1.028-1.99-.19c-.033.338-.065.683-.097 1.037l1.992.18zm.097-1.045c.063-.807.142-1.68.238-2.617l-1.99-.202c-.097.95-.177 1.838-.242 2.663l1.994.156zm.24-2.65l.145-2.087-1.996-.138-.144 2.088 1.995.138zm-.92-3.154l-.36.024.133 1.996.36-.024-.133-1.996zm-1.26.764l-.551 2.064 1.932.516.552-2.064-1.932-.516zm-.556 2.082l-1.488 6.024 1.942.48 1.488-6.024-1.942-.48zm4.826 12.792l-.98-.199-.319 1.569 1.55-.402-.251-.968zm1.248-6.24l.98.193.004-.014.002-.015-.986-.164zm.48-2.688l.982.186v-.003l-.982-.183zm.48-2.784l-.986-.17-.002.014.988.156zm.432-2.664l-.987-.164-.001.007-.001.008.989.149zm.336-2.352l-.301-.954-.62.196-.073.645.994.113zm2.952-.624l.12.993.007-.001.008-.001-.135-.991zm4.68 0l-.34.941.013.004.327-.945zm.96.624l-.772.636.02.024.022.024.73-.684zm.504.912l.965-.263-.965.263zm-.192 3.072l.938.346.003-.008-.941-.338zm-.912 1.752l-.825-.566-.004.006.829.56zm-1.296 1.512l.682.731-.682-.731zm-1.56 1.104l-.458-.89-.844.435.39.865.912-.41zm.912 2.112l-.923.385.005.011.005.012.913-.408zm.936 2.16l.928-.371-.003-.008-.003-.007-.922.386zm.984 2.4l.329.944 1.005-.35-.412-.981-.922.387zm-3.72 1.296l-.955.298.308.986.976-.34-.33-.944zm-.864-2.88l.961-.275-.002-.008-.003-.008-.956.291zm-.336-1.128l-.963.27.003.01.96-.28zm-.552-2.064l-.977.217.003.012.974-.229zm-.12-.696l.996-.09-.112-1.228-1.178.362.294.956zm-.312.096l-.294-.956-.578.178-.111.594.983.184zm-.36 1.8l-.98-.205-.001.011-.002.011.983.183zm-.36 1.992l.982.188.001-.008.002-.008-.985-.172zm-.432 2.28l.25.968.615-.16.118-.624-.983-.184zm1.752-9.408l-.98-.197-.27 1.334 1.354-.143-.104-.994zm1.104-.384l-.448-.894-.006.003-.007.003.46.888zm1.272-.792l.605.796.01-.007.01-.008-.625-.781zm1.032-.984l.759.65-.76-.65zm.264-1.296l-.707.707.027.027.029.025.65-.759zm-.48-.24l-.316.949.044.015.047.01.225-.974zm-.648-.12l-.067.998.067-.998zm-1.296 0v1h.041l.042-.003-.083-.997zm-.48 0v-1h-.82l-.16.803.98.197zm-5.428 14.43c.432-2.129.849-4.21 1.249-6.245l-1.963-.386c-.4 2.03-.815 4.108-1.246 6.234l1.96.398zm1.254-6.274c.143-.856.302-1.744.476-2.666l-1.965-.372c-.177.934-.338 1.838-.484 2.71l1.973.328zm.477-2.669c.177-.952.339-1.89.484-2.811l-1.975-.312c-.143.903-.301 1.821-.475 2.757l1.966.366zm.482-2.797c.161-.934.306-1.83.435-2.685L32.553 8.5c-.127.84-.27 1.721-.429 2.643l1.971.34zm.433-2.67c.146-.877.26-1.678.343-2.403l-1.987-.226c-.078.683-.187 1.45-.329 2.3l1.973.33zm-.35-1.562c.848-.268 1.77-.464 2.772-.585l-.24-1.986c-1.111.135-2.156.355-3.133.663l.602 1.908zm2.787-.587a22.247 22.247 0 0 1 3.009-.207v-2c-1.087 0-2.18.075-3.28.225l.27 1.982zm3.009-.207c.557 0 .944.066 1.197.157l.677-1.882c-.546-.197-1.184-.275-1.874-.275v2zm1.209.161c.285.099.434.216.515.315L43.24 5.66c-.367-.445-.858-.744-1.405-.933l-.654 1.89zm.557.363c.124.132.214.29.269.491l1.93-.526a3.13 3.13 0 0 0-.74-1.333L41.74 6.98zm.269.491c.069.252.109.554.109.913h2c0-.505-.056-.987-.18-1.44l-1.93.527zm.109.913c0 .52-.091 1.039-.277 1.558l1.882.676a6.575 6.575 0 0 0 .395-2.234h-2zm-.275 1.55a6.954 6.954 0 0 1-.798 1.533l1.65 1.13a8.951 8.951 0 0 0 1.025-1.971l-1.877-.692zm-.802 1.538c-.324.48-.707.927-1.15 1.342l1.366 1.46a9.88 9.88 0 0 0 1.441-1.682l-1.657-1.12zm-1.15 1.34c-.415.389-.86.703-1.335.947l.915 1.778a7.92 7.92 0 0 0 1.785-1.262l-1.365-1.462zm-1.79 2.246c.284.63.585 1.326.902 2.087l1.846-.77a83.56 83.56 0 0 0-.923-2.137l-1.824.82zm.912 2.11c.333.745.642 1.458.926 2.138l1.845-.772c-.291-.696-.606-1.423-.945-2.182l-1.826.816zm.92 2.123c.322.806.652 1.611.99 2.416l1.845-.774c-.334-.795-.66-1.59-.978-2.384l-1.857.742zm1.584 1.085l-3.72 1.296.658 1.888 3.72-1.296-.658-1.888zm-2.437 1.942c-.318-1.018-.603-1.97-.857-2.857l-1.923.55c.259.905.55 1.873.871 2.903l1.91-.596zm-.862-2.873c-.11-.364-.221-.737-.332-1.117l-1.92.56c.113.388.226.767.339 1.14l1.913-.583zm-.33-1.107l-.31-1.121-1.93.526c.098.355.202.733.315 1.135l1.926-.54zm-.31-1.121c-.093-.344-.17-.644-.23-.902l-1.948.458c.068.286.15.61.249.97l1.93-.526zm-.228-.89c-.06-.27-.09-.455-.1-.57l-1.992.181c.021.238.072.517.14.823l1.952-.434zm-1.39-1.435l-.312.096.588 1.912.312-.096-.588-1.912zm-1.001.868a87.773 87.773 0 0 1-.356 1.78l1.958.409c.145-.693.266-1.3.364-1.82l-1.966-.37zm-.36 1.801c-.129.691-.25 1.359-.362 2.003l1.97.344c.111-.636.23-1.296.358-1.981l-1.966-.366zm-.36 1.987c-.144.753-.288 1.515-.432 2.284l1.966.368c.143-.767.287-1.525.43-2.276l-1.963-.376zm.3 1.5l-3.888 1.008.502 1.936 3.888-1.008-.502-1.936zm2.107-7.445c.48-.051.975-.24 1.46-.491l-.92-1.776c-.38.197-.62.264-.749.277l.21 1.99zm1.447-.485c.504-.251.98-.548 1.43-.89l-1.21-1.592c-.351.266-.722.497-1.114.694l.894 1.788zm1.45-.905a8.624 8.624 0 0 0 1.166-1.114l-1.519-1.302a6.637 6.637 0 0 1-.897.854l1.25 1.562zm1.166-1.114c.34-.397.673-.923.673-1.539h-2c0-.06.017-.073-.008-.023-.024.05-.077.136-.184.26l1.519 1.302zm.673-1.539c0-.406-.14-.844-.517-1.167L39.562 9.91a.547.547 0 0 1-.148-.204.4.4 0 0 1-.033-.147h2zm-.461-1.115a1.963 1.963 0 0 0-.962-.507l-.45 1.948c.041.01.056.018.053.016a.235.235 0 0 1-.055-.043l1.414-1.414zm-.871-.482a3.59 3.59 0 0 0-.898-.169l-.133 1.996c.17.011.3.038.398.07l.633-1.897zm-.898-.169a12.192 12.192 0 0 0-.81-.026v2c.235 0 .46.007.677.022l.133-1.996zm-.81-.026c-.206 0-.418.01-.635.027l.166 1.994c.167-.014.323-.021.469-.021v-2zm-.552.024h-.001-.001-.001-.001-.002-.002-.016-.001-.001-.001-.001-.001-.001-.001-.001-.001-.001-.001-.001-.001-.001-.001-.001-.001-.001-.001-.001-.001-.001-.001-.001-.001-.001-.001-.001-.001-.002-.002-.002-.002-.002-.002-.002-.002-.002-.002H37.69h-.002-.002-.002-.002-.002-.002-.002-.002-.002-.002-.001-.001-.001-.001-.001-.001-.001-.001-.001-.001-.001-.001-.001-.001-.001-.001-.001-.001-.001-.001-.001-.001-.001-.001-.001-.001-.001H37.628h-.002-.002-.002-.001-.001-.001-.001-.001-.001-.001-.001-.001-.001-.001-.001-.001H37.598h-.002-.001-.001-.001-.001-.001-.001-.001-.001-.001-.001-.001H37.576h-.002-.001-.001-.001-.001-.001-.001-.001-.001-.001-.007-.002-.001-.001-.001-.001-.001-.001-.001-.001-.007-.002-.001-.001-.001-.001-.001-.001-.007-.002-.001-.001-.001-.001-.001-.005-.002-.001-.001-.001-.001-.001-.001-.005-.002-.001-.001-.001-.001-.001-.005-.002-.001-.001-.001-.001-.005-.002-.001-.001-.001-.001-.005-.001-.001-.001-.001-.001-.005-.001-.001-.001-.001-.005-.001-.001-.001-.001-.005-.001-.001-.001-.001-.005-.001-.001-.001-.001-.003-.002-.001-.001-.001-.003-.002-.001-.001-.001-.003-.001-.001-.001-.001-.005-.001-.001-.001-.003-.002-.001-.001-.003-.002-.001-.001-.003-.002-.001-.001-.003-.002-.001-.001-.003-.001-.001-.001-.003-.002-.001-.005-.001-.001-.003-.001-.001-.001-.003-.001-.001-.001-.003-.001-.001-.001-.003-.001-.001-.003-.002-.001-.003-.001-.001-.003-.002v2H37.788v-2zm-1.46.803l-.769 3.816 1.961.394.768-3.816-1.96-.394zm5.26 14.525l-.98-.204-.319 1.533 1.526-.355-.227-.974zm1.368-6.696l.98.196.003-.013.002-.013-.985-.17zm.504-2.88l-.982-.19-.002.008v.007l.984.175zm.528-2.928l.986.164v-.002l-.986-.162zm.432-2.784l.99.144v-.003l-.99-.141zm.288-2.424l.076-.997-.985-.076-.087.984.996.089zm1.848.024v1h.025l.025-.001-.05-.999zm.96-.048l-.05-.999.05.999zm1.032-.048l.98-.196-.168-.84-.856.037.044.999zm.6 3.24l-.986.167.002.011.002.011.982-.189zm.528 2.808l-.984.18.002.008.001.008.98-.196zm.504 2.448l-.978.21 1.958-.014-.98-.196zm.216-1.104l.982.189.001-.007-.983-.182zm.264-1.344l-.98-.203.98.203zm.264-1.392l-.98-.196-.003.013-.003.013.986.17zm.288-1.416l-.978-.21-.002.007.98.203zm.696-3.216l-.122-.993-.705.087-.15.694.977.212zM54.837 5l.976.217.307-1.382-1.405.172.122.993zm-1.44 6.96l.98.2.002-.014-.982-.186zm-.576 2.88l-.981-.193-.003.013.984.18zm-.504 2.784l.984.179V17.8l-.984-.176zm-.408 2.472l.989.147v-.003l-.99-.144zm-.264 1.896v1h.883l.109-.876-.992-.124zm-.576.12l.196.98.018-.003.017-.004-.231-.973zm-1.128.24l-.217-.976-.008.002.225.974zm-1.272.288l-.217-.976-.008.002.225.974zm-.936.264l-.997.075.1 1.341 1.256-.483-.36-.933zm-.312-3.648l-.996.096.996-.096zm-.168-1.512l-.996.09.001.017.002.017.993-.124zm-.168-1.512l.991-.132-.991.132zm-.192-1.344l.988-.152-.988.152zm-.192-1.08l.978-.206-1.966.05.988.156zm-.432 2.328l-.985-.176.985.176zm-.24 1.416l.986.164.001-.005-.987-.159zm-.264 1.392l-.978-.21-.002.01-.002.01.982.19zm-.672 3.36l.227.974.623-.145.13-.628-.98-.201zm-2.525 1.02c.48-2.307.937-4.541 1.37-6.704l-1.962-.392a855.828 855.828 0 0 1-1.366 6.688l1.958.408zm1.374-6.73c.16-.926.328-1.885.503-2.875l-1.969-.35c-.176.994-.344 1.955-.505 2.885l1.971.34zm.5-2.86c.194-1 .372-1.985.533-2.954l-1.973-.328c-.158.95-.333 1.918-.523 2.902l1.964.38zm.534-2.956c.16-.982.305-1.915.434-2.802l-1.979-.288c-.127.873-.27 1.796-.43 2.766l1.975.324zm.435-2.805c.13-.909.228-1.735.294-2.476l-1.992-.178a45.282 45.282 0 0 1-.282 2.372l1.98.282zm-.779-1.568c.223.017.427.027.605.027v-2c-.11 0-.259-.006-.452-.021l-.153 1.994zm.605.027H45.742v-2h-.001-.006-.001-.001-.001-.006-.001-.001-.001-.001-.006-.001-.001-.001-.001-.006-.001-.001-.001-.001-.006-.001-.001-.001-.001-.001-.006-.001-.001-.001-.001-.001-.002-.006-.001-.001-.001-.001-.002-.006-.001-.001-.001-.001-.001-.002-.006-.001-.001-.001-.001-.001-.001-.002-.006-.001-.001-.001-.001-.001-.001-.001-.002-.008-.001-.001-.001-.001-.001-.001-.001-.002-.008-.001-.001-.001-.001-.001-.001-.001-.001-.001-.001-.002-.012-.001-.001-.001-.001-.001-.001-.001-.001-.001-.001-.001-.001-.002-.002-.014-.001-.001-.001-.001-.001-.001-.001-.001-.001-.001-.001-.001-.001-.001-.001-.001-.001-.001-.001-.001-.001-.001-.001-.001-.001-.001-.001-.001-.001-.001-.001-.001-.001-.001-.001-.002-.002-.002-.002-.002-.002-.002-.002-.002-.001-.001-.001-.001-.001-.001-.001-.001-.001-.001-.001-.001-.001-.001-.001-.001-.001-.001-.001-.001-.001-.001-.001-.001-.001-.001-.001-.001-.001-.001-.001-.001-.001-.001H45.444h-.002-.002-.001-.001-.001-.001-.001-.001-.001-.001-.001-.001-.001-.001-.001H45.418h-.002-.001-.001-.001-.001-.001-.001-.001-.001-.001-.007-.002-.001-.001-.001-.001-.001-.001-.001-.007-.002-.001-.001-.001-.001-.001-.007-.001-.001-.001-.001-.001-.001-.005-.002-.001-.001-.001-.001-.005-.002-.001-.001-.001-.001-.005-.001-.001-.001-.001-.005-.001-.001-.001-.001-.005-.001-.001-.001-.001-.005-.001-.001-.001-.003-.002-.001-.001-.001-.003-.002-.001-.001-.003-.002-.001-.001-.003-.001-.001-.001-.001-.003-.002-.001-.003-.002-.001-.001-.003-.001-.001-.001-.003-.001-.001-.001-.003-.001-.001-.003-.002-.001-.003-.001-.001v2zm.504 0H46.557v-2h-.002-.002-.002-.002-.002-.002-.003-.002-.002-.002-.002-.002-.003-.002-.002-.002-.002-.002-.003-.002-.002-.002-.002-.002-.001-.002-.002-.002-.002-.002-.003-.002-.002-.002-.002-.003-.002-.002-.002-.002-.001-.002-.002-.002-.002-.003-.002-.002-.002-.002-.001-.002-.002-.002-.002-.003-.002-.002-.002-.003-.002-.002-.002-.003-.002-.002-.002-.003-.002-.002-.002-.001-.002-.002-.002-.003-.002-.002-.002-.001-.002-.002-.002-.003-.002-.002-.002-.001-.002-.002-.002-.001-.002-.002-.002-.001-.002-.002-.002-.001-.002-.002-.002-.001-.002-.002-.002-.001-.002-.002-.002-.001-.002-.002-.002-.001-.002-.002-.003-.002-.002-.001-.002-.002-.002-.001-.002-.002-.003-.002-.002-.001-.002-.002-.003-.002-.002-.001-.002-.002-.001-.002-.002-.002-.001-.002-.002-.001-.002-.002-.001-.002-.002-.003-.002-.002-.001-.002-.002-.001-.002-.002-.001-.002-.002-.001-.002-.002-.001-.002-.002-.001-.002-.002-.001-.002-.002-.001-.002-.002-.001-.002-.002-.001-.002-.002-.001-.002-.002-.001-.002-.002-.001-.002-.003-.002-.001-.002-.002-.001-.002-.002-.001-.002-.003-.002-.001-.002-.002-.001-.002-.003-.002-.001-.002-.002-.001-.002-.001-.002-.002-.001-.002-.003-.002-.001-.002-.002-.001-.002-.001-.002-.002-.001-.002-.001-.002-.003-.002-.001-.002-.001-.002-.002-.001-.002-.001-.002-.002-.001-.002-.001-.002-.001-.002-.002-.001-.002-.001-.002-.001-.002-.003-.002-.001-.002-.001-.002-.001-.002-.002-.001-.002-.001-.002-.001-.002-.001-.002-.001-.002-.002-.001-.002-.001-.002-.001-.002-.001-.002-.001-.002-.001-.002-.001-.002-.002-.001-.002-.001-.002-.001-.002-.001-.002-.001-.002-.001-.002-.001-.002-.001-.002-.001-.002-.001-.002-.001-.002-.001-.002-.001-.002-.001-.002-.001-.002-.001-.002-.001-.002-.001-.002-.001-.002-.001-.002-.001-.002-.001-.002-.001-.001-.002-.001-.002-.001-.002-.001-.002-.001-.002-.001-.002-.001-.002-.001-.001-.002-.001-.002-.001-.002-.001-.002-.001-.002-.001-.001-.002-.001-.002-.001-.002-.001-.004-.002-.001-.002-.001-.002-.001-.001-.002-.001-.002-.001-.004-.002-.001-.002-.001-.001-.002-.001-.002-.001-.004-.002-.001-.004-.002-.001-.004-.002-.001-.004-.002-.001-.004-.002-.001-.001-.002-.001-.004-.002-.001-.001-.002-.001-.004-.002-.001-.001-.002-.001-.001-.002-.001-.004-.004-.002-.001-.001-.002-.001-.001-.002-.001-.001-.002-.001-.001-.002-.001-.001-.002-.001-.001-.002-.001-.001-.002-.001-.001-.002-.001-.001-.002-.001-.001-.002-.001-.001-.004v2zm.866-.001H46.62l.002-.001h.007a.079.079 0 0 1 .006 0h.005l.002-.001h.002a.079.079 0 0 1 .004 0H46.659l.002-.001H46.68l.002-.001H46.7l.002-.001h.017l.002-.001H46.74l.002-.001H46.76l.002-.001h.01a.254.254 0 0 1 .005 0h.002l.002-.001h.006a.254.254 0 0 1 .005 0h.008l.002-.001a.254.254 0 0 1 .005 0H46.82l.002-.001h.017l.002-.001H46.86l.002-.001h.002a.109.109 0 0 0 .003 0h.012a.109.109 0 0 0 .003-.001h.017l.002-.001H46.92l.002-.001H46.94l.002-.001h.017l.002-.001H46.98l.002-.001H47l.002-.001h.017l.002-.001h.006a.254.254 0 0 1 .005 0h.008l.002-.001H47.06l.002-.001h.017l.002-.001H47.1l.002-.001H47.12l.002-.001h.017l.002-.001H47.16l.002-.001H47.18l.002-.001h.017l.002-.001H47.22l.002-.001H47.237a.254.254 0 0 1 .005-.001h.01a.254.254 0 0 1 .005 0h.002l.002-.001h.006a.254.254 0 0 1 .005 0h.008l.002-.001a.254.254 0 0 1 .005 0h.01a.254.254 0 0 1 .003 0l.002-.001h.017l.002-.001h.008a.109.109 0 0 0 .003 0h.008l.002-.001h.002a.109.109 0 0 0 .003 0H47.36l.002-.001h.017l.002-.001H47.4l.002-.001H47.42l.002-.001h.017l.002-.001H47.46l.002-.001H47.48l.002-.001h.017l.002-.001H47.52l.002-.001H47.54l.002-.001h.017l.002-.001h.006l-.1-1.998h-.002-.002-.002-.002-.002-.003l-.002.001h-.002-.002-.002-.002-.002-.003-.002-.002-.002l-.002.001h-.002-.002-.003-.002-.002-.002-.002-.002l-.002.001h-.003-.002-.002-.002-.002-.002-.002-.003l-.002.001h-.002-.002-.002-.002a.255.255 0 0 0-.003 0h-.002-.002-.002-.002l-.002.001h-.002-.002-.003-.002-.002-.002-.002-.002l-.002.001h-.003-.002-.002-.002-.002-.002-.002-.003l-.002.001h-.002-.002-.002-.002-.002-.003-.002-.002-.002l-.002.001h-.002-.002-.003-.002-.002-.002-.002-.002l-.002.001h-.003-.002a.254.254 0 0 1-.004 0h-.002-.002-.002-.003l-.002.001a.254.254 0 0 1-.006 0h-.002-.002-.003-.002-.002-.002l-.002.001h-.002-.002-.003-.002-.002-.002-.002-.002l-.002.001h-.003-.002-.002-.002-.002-.002-.002-.003l-.002.001h-.002-.002-.002-.002-.002-.003-.002-.002-.002l-.002.001h-.002-.002-.003-.002-.002-.002-.002-.002l-.002.001h-.003-.002-.002-.002-.002-.002-.002-.003l-.002.001h-.002-.002-.002-.002-.002-.003-.002-.002-.002l-.002.001h-.002-.002-.003-.002-.002-.002-.002-.002l-.002.001h-.003-.002-.002-.002-.002-.002-.002-.003l-.002.001h-.002-.002-.002-.002-.002-.003-.002-.002-.002l-.002.001h-.002-.002-.003-.002-.002-.002-.002-.002l-.002.001h-.003-.002-.002-.002-.002-.002-.002-.003l-.002.001h-.002-.002-.002-.002-.002-.003-.002-.002-.002l-.002.001h-.002-.002-.003-.002H47h-.002-.002-.002a.255.255 0 0 0-.005.001h-.002-.002-.002-.002-.002-.002-.003l-.002.001a.254.254 0 0 1-.004 0h-.002-.002-.002-.003-.002-.002-.002l-.002.001h-.002-.002-.003-.002-.002-.002-.002-.002l-.002.001h-.003-.002-.002-.002-.002-.002-.002-.003l-.002.001h-.002-.002-.002-.002-.002-.003-.002-.002-.002l-.002.001h-.002-.002-.003-.002-.002-.002-.002-.002l-.002.001h-.003-.002-.002-.002-.002-.002-.002-.003l-.002.001h-.002-.002-.002-.002-.002-.003-.002-.002-.002l-.002.001h-.002-.002-.003-.002-.002-.002-.002-.002l-.002.001h-.003-.002-.002-.002-.002-.002-.002-.003l-.002.001h-.002-.002-.002-.002-.002-.003-.002-.002-.002l-.002.001h-.002-.002-.003-.002-.002-.002-.002-.002l-.002.001h-.003-.002-.002-.002-.002-.002-.002-.003l-.002.001h-.002-.002-.002-.002a.255.255 0 0 0-.003 0h-.002-.002-.002-.002l-.002.001h-.002a.255.255 0 0 0-.003 0h-.002-.002-.002-.002-.002-.002l-.002.001h-.003-.002-.002-.002-.002-.002-.002-.003l-.002.001h-.002-.002-.002-.002-.002-.003-.002-.002-.002l-.002.001h-.002-.002-.003-.002-.002-.002-.002-.002l-.002.001h-.003-.002-.002-.002-.002-.002-.002-.003l-.002.001h-.002-.002-.002-.002-.002-.003-.002-.002-.002l-.002.001h-.002-.002-.003-.002-.002-.002-.002-.002l-.002.001h-.003-.002-.002-.002-.002-.002-.002-.003l-.002.001h-.002-.002-.002-.002-.002-.003-.002-.002-.002l-.002.001h-.002-.002-.003-.002-.002-.002-.002-.002l-.002.001h-.003-.002l.1 1.998zm.96-.048c.317-.016.659-.032 1.025-.048l-.087-1.998c-.37.016-.716.032-1.038.048l.1 1.998zm.001-.85c.222 1.11.42 2.18.595 3.21l1.972-.334c-.178-1.05-.38-2.14-.606-3.27l-1.96.393zm.599 3.232c.175.91.35 1.842.526 2.8l1.967-.361c-.176-.963-.353-1.902-.53-2.817l-1.963.378zm.53 2.815c.192.963.36 1.784.506 2.461l1.956-.418c-.143-.667-.31-1.478-.502-2.435l-1.96.392zm2.464 2.448c.065-.323.137-.693.218-1.111l-1.964-.378c-.08.414-.151.78-.215 1.097l1.961.392zm.219-1.118c.079-.425.165-.866.26-1.323l-1.959-.406c-.097.47-.186.926-.267 1.365l1.966.364zm.26-1.323c.098-.475.188-.95.27-1.425l-1.97-.34c-.079.453-.165.906-.258 1.36l1.958.405zm.265-1.399c.096-.478.191-.948.287-1.41l-1.959-.405c-.096.467-.192.94-.289 1.423l1.961.392zm.285-1.401c.224-1.04.456-2.111.696-3.215l-1.954-.424c-.24 1.104-.473 2.177-.697 3.217l1.955.422zm-.16-2.434l2.929-.36-.244-1.986-2.928.36.244 1.986zm1.83-1.57a229.784 229.784 0 0 0-1.446 6.99l1.965.373c.414-2.18.892-4.49 1.434-6.93l-1.952-.433zm-1.443 6.978c-.193.946-.385 1.908-.577 2.886l1.962.386c.191-.974.383-1.932.575-2.874l-1.96-.398zm-.58 2.899c-.176.961-.344 1.89-.505 2.788l1.97.352c.159-.895.327-1.821.502-2.78l-1.967-.36zm-.504 2.785c-.162.89-.3 1.726-.414 2.507l1.98.288c.11-.755.243-1.567.402-2.437l-1.968-.358zm-.413 2.504a84.535 84.535 0 0 0-.267 1.919l1.984.248c.063-.502.15-1.125.26-1.873l-1.977-.294zm.725 1.043c-.105 0-.201.017-.228.021a4.01 4.01 0 0 0-.156.03c-.11.023-.252.055-.424.096l.463 1.946a13.949 13.949 0 0 1 .446-.1c.006 0 .002 0-.008.002-.004 0-.04.005-.093.005v-2zm-.772.14c-.33.065-.712.147-1.15.244l.435 1.952c.427-.095.796-.173 1.107-.235l-.392-1.962zm-1.157.246c-.413.095-.835.19-1.264.286l.434 1.952c.434-.096.86-.193 1.28-.29l-.45-1.948zm-1.272.288c-.428.099-.795.199-1.07.305l.718 1.866c.14-.054.398-.13.802-.223l-.45-1.948zm.286 1.163c-.096-1.286-.201-2.51-.314-3.67l-1.99.194c.11 1.144.214 2.352.31 3.626l1.994-.15zm-.314-3.67a55.51 55.51 0 0 0-.171-1.539l-1.984.248c.062.503.117.998.164 1.484l1.991-.192zm-.167-1.505a37.3 37.3 0 0 0-.173-1.554l-1.983.264c.063.465.117.955.164 1.47l1.992-.18zm-.173-1.554a68.95 68.95 0 0 0-.195-1.364l-1.977.304c.063.409.126.85.19 1.324l1.982-.264zm-.195-1.364a21.373 21.373 0 0 0-.202-1.134l-1.957.412c.06.281.12.622.182 1.026l1.977-.304zm-2.168-1.084a25.73 25.73 0 0 1-.185 1.016l1.961.392c.082-.41.149-.775.2-1.096l-1.976-.312zm-.185 1.016c-.081.407-.163.838-.244 1.292l1.97.352c.078-.442.157-.86.235-1.252l-1.96-.392zm-.244 1.292c-.08.454-.162.932-.242 1.433l1.974.318c.08-.49.158-.957.237-1.4l-1.969-.35zm-.242 1.428a29.97 29.97 0 0 1-.255 1.346l1.956.42c.099-.464.19-.943.272-1.438l-1.973-.328zm-.259 1.365a312.64 312.64 0 0 1-.67 3.35l1.96.402c.24-1.171.465-2.295.673-3.37l-1.963-.382zm.083 2.577l-3.504.816.454 1.948 3.504-.816-.454-1.948zm9.614 1.694l-.978-.205-.296 1.415 1.428-.222-.154-.988zm1.056-5.208l-.98-.196-.001.003.981.193zm.432-2.256l.984.18-.984-.18zm.408-2.304l-.983-.184-.001.008-.002.008.986.168zm.36-2.208l-.988-.154-.001.01-.002.009.991.135zm.288-1.968l.991.134.135-.996-.996-.13-.13.992zm-1.128-.048l-.041-1h-.002l.043 1zm-1.104-.144l-.998-.062-.049.789.756.23.291-.957zm.048-1.896l1 .048v-.005l-1-.043zm.048-1.176l.077-.997-1.036-.08-.04 1.039 1 .038zm1.248.072l.039-1-.039 1zm3.6-.024l.043 1 .01-.001.01-.001-.063-.998zm2.112-.144l.075.997h.011l.011-.002-.097-.995zm1.92-.216l.98.2.28-1.37-1.387.178.127.992zM63.504 6.8l.978.212.002-.012-.98-.2zm-.24 1.128l-.979-.204-.004.02-.003.02.986.164zm-.192.984l.263.965.575-.157.136-.579-.974-.229zm-1.08.216l.09.996.02-.002.02-.002-.13-.992zm-1.056.144l-.179-.984-.664.12-.136.662.98.202zm-.36 1.824l.982.191v-.004l-.982-.187zm-.384 2.064l-.984-.175-.002.009-.001.009.987.157zm-.672 4.272l-.986-.164v.005l.986.159zm-.72 4.92l.154.988.74-.115.098-.742-.992-.131zm-3.34.877a430.6 430.6 0 0 0 1.058-5.22l-1.963-.386c-.335 1.708-.686 3.44-1.053 5.196l1.957.41zm1.057-5.217c.145-.725.29-1.483.435-2.271l-1.967-.362c-.143.78-.286 1.526-.43 2.24l1.962.393zm.435-2.271c.145-.788.281-1.56.41-2.317l-1.971-.336c-.128.748-.263 1.511-.406 2.291l1.967.362zm.407-2.3c.147-.783.27-1.536.368-2.258l-1.981-.27a43.98 43.98 0 0 1-.353 2.159l1.966.368zm.365-2.24c.113-.725.21-1.387.291-1.987l-1.982-.268a98.831 98.831 0 0 1-.285 1.948l1.976.308zm-.57-3.113a7.585 7.585 0 0 0-1.3-.055l.084 1.998c.329-.014.648 0 .957.04l.259-1.983zm-1.301-.055a2.28 2.28 0 0 1-.77-.102l-.582 1.914c.472.143.953.207 1.439.186l-.087-1.998zm-.063.917c.018-.282.026-.6.026-.95h-2c0 .321-.007.596-.022.826l1.996.124zm.026-.95c0-.32.008-.64.023-.96l-1.998-.096A22.26 22.26 0 0 0 53.816 8h2zm.023-.965l.049-1.18-1.999-.077-.048 1.17 1.998.087zm-1.027-.222c.428.033.857.058 1.286.074l.077-1.998a31.602 31.602 0 0 1-1.21-.07l-.153 1.994zm1.286.074c.429.017.858.025 1.286.025v-2c-.403 0-.806-.008-1.21-.023l-.076 1.998zm1.286.025c.83 0 1.627-.016 2.395-.049l-.085-1.998c-.737.031-1.507.047-2.31.047v2zm2.415-.05c.771-.048 1.48-.096 2.124-.145l-.15-1.994c-.635.047-1.334.095-2.1.143l.126 1.996zm2.146-.147a64.88 64.88 0 0 0 1.95-.22l-.254-1.983c-.613.079-1.243.15-1.89.213l.194 1.99zm.843-1.41L62.524 6.6l1.96.4.264-1.296-1.96-.4zm-.26 1.283c-.081.37-.162.75-.243 1.136l1.958.408c.08-.381.16-.755.239-1.12l-1.955-.424zm-.25 1.176c-.062.37-.122.675-.18.919l1.948.458c.07-.3.138-.65.205-1.049l-1.973-.328zm.531.183a7.063 7.063 0 0 1-.946.19l.259 1.983a9.063 9.063 0 0 0 1.213-.243l-.526-1.93zm-.907.185c-.382.035-.764.087-1.145.156l.358 1.968c.323-.059.646-.103.968-.132l-.181-1.992zm-1.945.938c-.113.55-.234 1.163-.363 1.839l1.965.374c.127-.668.246-1.271.357-1.81l-1.96-.403zm-.362 1.835c-.13.662-.258 1.355-.387 2.08l1.969.35c.127-.715.254-1.398.38-2.048l-1.962-.383zm-.39 2.098c-.113.706-.225 1.428-.337 2.167l1.977.3c.112-.733.223-1.451.335-2.153l-1.975-.314zm-.337 2.167c-.112.731-.223 1.43-.334 2.098l1.973.328c.113-.677.225-1.385.338-2.126l-1.977-.3zm-.335 2.103a173.246 173.246 0 0 0-.724 4.948l1.983.262c.222-1.687.461-3.318.715-4.892l-1.974-.319zm.114 4.09l-4.32.673.307 1.976 4.32-.672-.307-1.976zM71 18.32l.97.238.003-.007.001-.008L71 18.32zm-.96 2.328l-.839-.545-.005.007-.004.008.848.53zm-1.44 1.584l-.597-.803-.01.009.607.794zm-1.752.912l.294.956-.294-.956zm-3 .096l.316-.949-.018-.006-.018-.005-.28.96zm-1.032-.528l-.62.785.62-.785zm-.768-.912l-.887.463.008.014.008.015.87-.492zm-.264-1.68l.97.242.018-.071.007-.074-.995-.097zm.768-5.28l.987.157-.987-.157zm.528-3.024l.982.187V12l-.982-.184zm.504-2.784l-.982-.189-.002.01-.002.008.986.171zm.408-2.064l.98.202v-.006l-.98-.196zm.216-1.032l-.095-.995-.704.067-.172.685.97.243zm1.2-.12l.102.995-.102-.995zm1.296-.12l.08.997h.008l.008-.002-.096-.995zm1.464-.144l.977.21.289-1.342-1.366.137.1.995zm-1.104 5.256l.978.21.001-.01-.98-.2zm-.432 2.016l-.978-.21-.003.012-.002.01.983.188zm-.384 1.848l-.975-.223-.003.014-.003.013.98.196zm-.312 1.464l-.975-.225-.003.014-.003.015.98.196zm-.216.984l-.97-.242-.008.028-.005.03.983.184zm-.192.984l-.981-.196-.003.016-.003.016.987.164zm.096 1.704l-.81.588.014.019.015.018.78-.625zm1.152-.072l.763.646.012-.014.01-.014-.785-.618zm.432-.792l-.922-.388-.009.02-.008.022.939.346zm.264-.912l-.981-.196-.004.02-.003.02.988.156zm.168-.744l.964.263.009-.03.006-.03-.98-.203zm.312-1.536l-.977-.217-.002.01-.002.01.98.197zm.36-1.776l-.98-.2-.002.009-.002.01.984.181zm.36-1.896l-.981-.196-.002.012-.002.012.985.172zm.36-1.872l-.982-.19-.002.009.984.181zm.792-4.368l-.066-.998-.788.052-.132.778.986.168zm3.648-.24l.982.189.244-1.272-1.292.085.066.998zm-.12.624l-.982-.189.982.189zM73.04 7.88l.983.183-.983-.183zm-.432 2.352l-.984-.179-.002.009-.001.008.987.162zm-.504 2.76l.98.2v-.004l-.98-.196zm-.576 2.808l-.98-.203-.002.014.982.189zm-1.5 2.281c-.203.828-.484 1.495-.827 2.022l1.677 1.09c.49-.753.848-1.638 1.093-2.635l-1.943-.477zm-.836 2.037c-.34.543-.737.976-1.189 1.311l1.193 1.606a6.723 6.723 0 0 0 1.692-1.857l-1.696-1.06zm-1.2 1.32a4.561 4.561 0 0 1-1.439.75l.589 1.912a6.563 6.563 0 0 0 2.065-1.074l-1.215-1.588zm-1.439.75a5.334 5.334 0 0 1-1.577.244v2c.728 0 1.45-.112 2.166-.332l-.588-1.912zm-1.577.244c-.25 0-.52-.043-.812-.14l-.633 1.897c.476.158.959.243 1.445.243v-2zm-.848-.152a2.006 2.006 0 0 1-.693-.353l-1.239 1.57c.408.322.868.556 1.372.703l.56-1.92zm-.693-.353a2.068 2.068 0 0 1-.517-.62l-1.74.985c.265.47.603.877 1.018 1.205l1.24-1.57zm-.5-.59c-.105-.2-.175-.467-.175-.833h-2c0 .626.121 1.222.401 1.759l1.773-.926zm-.175-.833v-.001-.001-.001-.001-.001-.001-.001-.001-.001-.001-.001-.001-.001-.001-.001-.001-.001-.001-.001-.001-.001-.001-.001-.001-.001-.001-.001-.001-.001-.001-.001-.001-.001-.001-.001-.001-.001-.001-.001-.001-.001-.001-.001-.001-.001-.001-.001-.001-.001-.001-.001-.001-.001-.001-.001-.001-.001-.001-.001-.001-.001-.001-.001-.001-.001-.001-.001-.001-.001-.001-.001-.001-.001-.001-.001-.001-.001-.001-.001-.001-.001-.001-.001-.001-.001-.001-.001-.001-.001-.001-.001-.001-.001-.001-.001-.001-.001-.001-.001-.001-.001-.001-.001-.001-.001-.001-.001-.001-.001-.001-.001-.001-.001-.001-.001-.001-.001-.001-.001-.001-.001-.001-.001-.001-.001-.001-.001-.001-.001-.001-.001-.001-.001-.001-.001-.001-.001-.001-.001-.001-.001-.001-.001-.001-.001-.001-.001-.001-.001-.001-.001-.001-.001-.001-.001-.001-.001-.001-.001-.001-.001-.001-.001-.001-.001-.001-.001-.001-.001-.001-.001-.001-.001-.001-.001-.001-.001-.001-.001-.001-.001-.001-.001-.001-.001-.001-.001-.001-.001-.001-.001-.001h-2V20.505h2zm0-.192c0 .02-.003.038-.006.05l-1.94-.484a1.79 1.79 0 0 0-.054.434h2zm.019-.095c.061-.631.163-1.403.305-2.32l-1.977-.306c-.145.94-.252 1.751-.319 2.432l1.99.194zm.305-2.32c.144-.926.295-1.893.455-2.9l-1.975-.314a818.15 818.15 0 0 0-.456 2.908l1.976.306zm.455-2.9c.159-.998.333-1.996.523-2.994l-1.965-.374a100.605 100.605 0 0 0-.533 3.054l1.975.314zM64.062 12c.193-1.027.362-1.96.507-2.797l-1.97-.342c-.144.827-.31 1.75-.502 2.77l1.965.37zm.504-2.78c.16-.829.294-1.512.405-2.05l-1.959-.404c-.113.55-.25 1.243-.41 2.077l1.964.378zm.406-2.056c.114-.57.18-.886.206-.985l-1.94-.486c-.04.157-.117.529-.227 1.079l1.961.392zm-.67-.233c.34-.032.743-.072 1.208-.12l-.205-1.99c-.463.048-.86.088-1.192.12l.19 1.99zm1.208-.12c.458-.048.882-.087 1.273-.118l-.16-1.994c-.408.033-.848.074-1.318.122l.205 1.99zm1.29-.12l1.467-.144-.199-1.99-1.46.144.192 1.99zm.39-1.35a525.975 525.975 0 0 0-1.106 5.267l1.96.4c.319-1.564.686-3.313 1.101-5.246l-1.955-.42zm-1.104 5.257l-.432 2.016 1.955.42.432-2.017-1.955-.418zm-.437 2.039a51.283 51.283 0 0 1-.376 1.812l1.95.446a53.21 53.21 0 0 0 .391-1.884l-1.965-.374zm-.382 1.839c-.11.553-.213 1.031-.306 1.435l1.949.45c.099-.428.205-.926.318-1.493l-1.961-.392zm-.312 1.464c-.078.392-.147.703-.206.938l1.94.485c.07-.278.146-.623.227-1.03l-1.961-.393zm-.218.996c-.047.25-.11.574-.19.972l1.961.392c.08-.402.145-.734.195-.996l-1.966-.368zm-.196 1.004c-.071.427-.11.835-.11 1.22h2c0-.255.026-.55.083-.892l-1.973-.328zm-.11 1.22c0 .429.11.86.384 1.236l1.617-1.176a.07.07 0 0 1 .006.009c.001.002.001.003 0 0a.264.264 0 0 1-.006-.069h-2zm.412 1.273a1.59 1.59 0 0 0 1.26.615v-2a.42.42 0 0 1 .302.135l-1.562 1.25zm1.26.615a1.84 1.84 0 0 0 1.436-.666l-1.527-1.292.008-.006a.182.182 0 0 1 .073-.034l.01-.002v2zm1.459-.694c.249-.317.44-.675.584-1.064l-1.877-.692c-.08.22-.177.389-.28.52l1.573 1.236zm.567-1.022c.157-.373.269-.755.33-1.144l-1.975-.312a2.926 2.926 0 0 1-.198.68l1.843.776zm.323-1.104c.063-.312.113-.534.152-.677l-1.93-.526a12.7 12.7 0 0 0-.183.81l1.961.393zm.167-.737c.096-.467.2-.981.313-1.543l-1.961-.392c-.112.558-.215 1.068-.31 1.53l1.958.405zm.309-1.522c.13-.588.253-1.192.367-1.812l-1.967-.362c-.11.596-.227 1.177-.353 1.74l1.953.434zm.363-1.792c.13-.634.252-1.275.366-1.925l-1.97-.344c-.11.63-.229 1.253-.355 1.867l1.96.402zm.361-1.9c.13-.646.25-1.275.363-1.888l-1.967-.362c-.11.603-.23 1.222-.357 1.857l1.961.392zm.361-1.88c.274-1.415.54-2.878.796-4.39l-1.971-.335a198.627 198.627 0 0 1-.788 4.346l1.963.38zm-.124-3.56l3.648-.24-.131-1.995-3.648.24.131 1.996zM73.472 5.6l-.982-.189v.003h-.001v.005h-.001v.005h-.001v.005l-.001.001v.004h-.001v.005l-.001.001v.004l-.001.001v.005h-.001v.005h-.001v.006h-.001v.004l-.001.001v.005l-.001.001v.004h-.001v.005l-.001.001v.004l-.001.001v.005h-.001v.005l-.001.001v.004h-.001v.005l-.001.001v.004l-.001.001v.004l-.001.001v.005l-.001.001v.004l-.001.002v.002l-.001.002v.004l-.001.001v.004l-.001.002v.003l-.001.001v.005l-.001.001v.003l-.001.002v.004l-.001.002v.004h-.001v.005h-.001v.005h-.001v.003a.252.252 0 0 0-.001.003v.003a.27.27 0 0 0-.001.003v.003l-.001.001V5.6a.288.288 0 0 0-.001.003v.003l-.001.002v.004l-.001.002v.003l-.001.002v.003l-.001.002v.004l-.001.001a3981146791.126 3981146791.126 0 0 0-.001.005v.001a.368.368 0 0 0-.002.009v.001a.39.39 0 0 1 0 .003l-.001.002v.003l-.001.001v.005l-.001.001v.004l-.001.001v.005l-.001.001v.004l-.001.001v.003l-.001.002v.003l-.001.002v.005l-.001.001v.003l-.001.002V5.7l-.001.002v.003l-.001.002v.003l-.001.002v.004a.572.572 0 0 0-.002.005v.005l-.001.002v.003l-.001.002v.003l-.001.002v.004l-.001.001a.654.654 0 0 0 0 .004l-.001.002v.003l-.001.002v.004l-.001.002v.003l-.001.002v.004l-.001.002v.001l-.001.002v.004l-.001.002v.004l-.001.001v.004l-.001.002v.002l-.001.002v.004l-.001.002v.004l-.001.001v.002l-.001.002v.004l-.001.002v.004l-.001.002v.002l-.001.002v.004l-.001.002v.004l-.001.002v.002l-.001.002v.004l-.001.002v.002l-.001.002v.004l-.001.002v.003l-.001.002v.004l-.001.002v.002l-.001.002v.004l-.001.002v.002l-.001.003v.004l-.001.002v.002l-.001.002v.004l-.001.003v.002l-.001.002v.002l-.001.002v.005l-.001.002v.002l-.001.002v.005l-.001.002v.002l-.001.002v.003l-.001.002v.004l-.001.002v.003l-.001.002v.002l-.001.002v.003l-.001.002v.005l-.001.002v.002l-.001.002v.003l-.001.002v.005l-.001.002v.002l-.001.003v.002l-.001.002v.003l-.001.002v.002l-.001.003V6l-.001.003v.002l-.001.003v.002l-.001.002v.003l-.001.002v.003l-.001.002v.002l-.001.003v.005l-.001.002 1.964.378V6.41v-.002l.001-.002v-.003l.001-.002v-.003-.002l.001-.002V6.39l.001-.002v-.003l.001-.002v-.002l.001-.003v-.002l.001-.003v-.002-.002l.001-.003v-.002l.001-.002V6.36l.001-.002v-.002l.001-.003v-.002l.001-.002v-.003-.002l.001-.002V6.34l.001-.003v-.002l.001-.002V6.33v-.002l.001-.002v-.002l.001-.003V6.32l.001-.002v-.002-.003l.001-.002v-.002l.001-.002v-.002l.001-.003V6.3v-.002l.001-.002v-.002l.001-.003v-.002l.001-.002v-.002-.002l.001-.003v-.002l.001-.002v-.002-.002l.001-.002v-.002l.001-.003v-.002l.001-.002v-.002-.002l.001-.002v-.002l.001-.002v-.002-.002l.001-.003v-.002l.001-.002v-.002-.002l.001-.002v-.002l.001-.002v-.002-.002l.001-.002V6.22v-.002l.001-.002v-.002l.001-.002V6.21v-.002l.001-.002v-.002l.001-.002V6.2v-.002l.001-.002v-.002-.002l.001-.002v-.002l.001-.002v-.002-.002l.001-.002V6.18v-.002l.001-.002v-.001l.001-.002V6.17v-.002l.001-.002v-.002-.002l.001-.002v-.002-.002l.001-.001v-.002l.001-.002v-.002-.002l.001-.002v-.001-.002l.001-.002v-.002-.002l.001-.002v-.001-.002l.001-.002v-.002-.002l.001-.001v-.002-.002l.001-.002v-.002l.001-.001v-.002-.002l.001-.002v-.001-.002l.001-.002v-.001V6.1l.001-.002v-.002-.001l.001-.002v-.002-.001-.002l.001-.002v-.002-.001l.001-.002V6.08 6.08l.001-.002v-.002-.001l.001-.002v-.001-.002l.001-.002v-.001-.002l.001-.002v-.001-.002l.001-.001v-.002-.002-.001l.001-.002V6.05v-.002l.001-.002v-.001-.002l.001-.001V6.04 6.04v-.002l.001-.001v-.002-.001l.001-.002V6.03v-.002-.001l.001-.002v-.001-.002l.001-.001v-.002-.001-.002l.001-.001v-.002-.001l.001-.002V6.01v-.002-.001l.001-.001v-.002-.001a.34.34 0 0 1 .002-.006v-.001-.002-.001-.002l.001-.001v-.001a.306.306 0 0 1 0-.003l.001-.001v-.002-.001l.001-.002v-.002-.002h.001v-.002-.002l.001-.002v-.001-.002-.001l.001-.001v-.002-.002l.001-.001v-.002-.001-.001l.001-.002V5.95 5.95v-.001l.001-.002v-.002-.001l.001-.002V5.94v-.001l.001-.001v-.002-.002-.001l.001-.001V5.93v-.002l.001-.002v-.001-.001-.001-.001l.001-.002v-.002l.001-.002v-.001-.001-.001-.001l.001-.001V5.91v-.002l.001-.002v-.002-.001-.001l.001-.001V5.9v-.001-.001-.001l.001-.001v-.001-.001-.001-.001l.001-.001V5.89v-.001-.001-.001l.001-.001v-.001-.002-.002h.001v-.002-.001-.001-.001l.001-.001v-.001-.001-.002h.001v-.002-.001-.001-.001h.001v-.002-.001-.001-.001l.001-.002v-.001-.001-.001l.001-.002v-.001-.002-.001l.001-.001v-.001-.001-.001-.001l.001-.001v-.002-.001-.001l.001-.001v-.001-.001-.002l.001-.001v-.001-.001-.001-.001l.001-.002v-.001-.001-.001-.001h.001v-.001-.001-.001-.001-.001h.001v-.001-.001-.001-.001-.001h.001v-.001-.001-.001-.001-.001l.001-.001v-.001-.001-.001-.001-.001h.001v-.001V5.8 5.8v-.001-.001h.001v-.001-.001-.001-.001-.001h.001v-.001-.001-.001-.001l-.981-.189zm-1.102.435c-.08.419-.185.973-.314 1.662l1.967.366c.128-.687.231-1.237.31-1.65l-1.963-.378zm-.314 1.662c-.128.69-.272 1.475-.432 2.356l1.968.358c.16-.88.303-1.662.43-2.348l-1.966-.366zm-.435 2.373a78.807 78.807 0 0 1-.498 2.726l1.961.392c.194-.97.364-1.902.51-2.795l-1.973-.323zm-.497 2.723c-.192.943-.384 1.878-.576 2.804l1.959.406c.192-.93.384-1.867.577-2.812l-1.96-.398zm-.578 2.818a73.506 73.506 0 0 1-.521 2.486l1.95.446c.178-.78.357-1.632.535-2.553l-1.964-.38zM81.51 18.8l.9.437-.9-.437zm-1.104 1.536l.695.72.006-.007.006-.006-.707-.707zm-1.632 1.2l.484.875.008-.004-.492-.871zm-1.944.864l.317.949.013-.005-.33-.944zm-2.088.528l.157.988.01-.002.008-.001-.175-.985zm-3.696.024l-.964-.265-.287 1.048 1.067.2.184-.983zm1.824-8.448l-.987-.16v.004l.987.156zm1.32-8.592l-.207-.978-.683.144-.1.691.99.143zm2.592-.456l.142.99.008-.001.009-.002-.159-.987zm4.056-.072l-.21.978.21-.978zm1.224.528l-.57.82.57-.82zm.912 1.008l-.866.5.007.012.008.012.851-.524zm.072 3.288l-.93-.367-.005.013-.005.012.94.342zm-.768 1.44l-.803-.595-.007.01-.008.01.818.575zm-1.056 1.128l.605.796.01-.007.01-.008-.625-.781zm-1.224.696l-.359-.933-2.032.781 1.917 1.032.474-.88zm.648.48l-.68.733.68-.733zm.624.744l-.832.555.008.01.007.012.817-.577zm.456.984l-.96.28.006.018.006.018.948-.316zm-5.304-1.2l-.242-.97-.636.159-.108.647.986.164zm-.192 1.032l-.978-.206-.005.02-.003.022.986.164zm-.144.84l-.984-.174.984.174zm-.168.864l-.978-.206-.005.02-.003.022.986.164zm-.168 1.032l-.987-.158-.206 1.29 1.298-.137-.105-.995zm1.032-.168l-.204-.979.204.979zm1.104-.36l.414.91.017-.007.017-.009-.448-.894zm.888-.672l.75.662.01-.011.008-.01-.768-.641zm.12-1.752l-.8.6.016.02.016.02.768-.64zm-.576-.48l-.496.868.013.008.013.006.47-.882zm-.744-.264l-.229.973.028.007.027.005.174-.985zm-.072-5.88v-1h-.834l-.15.821.984.179zm-.12.624l-.98-.196-.007.032-.004.032.991.132zm-.12.768l.983.184.002-.01-.985-.174zm-.168.768l-.97-.243-.007.03-.006.029.983.184zm-.12.672l-.986-.164-.234 1.402 1.4-.254-.18-.984zm1.056-.264l.303.953-.303-.953zm.936-.36l.426.905.01-.005.011-.006-.447-.894zm.672-.456l-.672-.74-.018.016-.017.017.707.707zm.048-1.104l-.743.669.018.02.018.018.707-.707zm-.576-.384l-.394.92.012.004.01.004.372-.928zm-.72-.192l-.196.98.036.008.036.004.124-.992zm2.528 8.232c0 .513-.105.97-.307 1.387l1.799.874a5.118 5.118 0 0 0 .508-2.261h-2zm-.307 1.387c-.221.455-.522.876-.912 1.266l1.414 1.414a6.663 6.663 0 0 0 1.297-1.806l-1.8-.874zm-.9 1.254c-.396.383-.87.733-1.428 1.048l.983 1.742a8.975 8.975 0 0 0 1.835-1.352l-1.39-1.438zm-1.42 1.044c-.557.307-1.153.572-1.79.795l.659 1.888a13.568 13.568 0 0 0 2.098-.933l-.967-1.75zm-1.777.79c-.624.209-1.273.373-1.947.492l.35 1.97c.767-.137 1.51-.325 2.23-.564l-.633-1.898zm-1.929.49c-.656.104-1.284.155-1.883.155v2c.713 0 1.446-.06 2.197-.18l-.314-1.976zm-1.883.155a7.992 7.992 0 0 1-1.471-.127l-.369 1.966c.58.109 1.195.161 1.84.161v-2zm-.691 1.12a78.978 78.978 0 0 0 1.847-8.556l-1.975-.312a76.978 76.978 0 0 1-1.801 8.34l1.929.529zm1.846-8.551c.465-2.854.906-5.724 1.323-8.61l-1.98-.286a480.38 480.38 0 0 1-1.317 8.574l1.974.322zm.54-7.775c.81-.17 1.651-.319 2.527-.444l-.283-1.98c-.917.131-1.803.287-2.658.468l.414 1.956zm2.544-.447c.84-.135 1.715-.203 2.625-.203v-2c-1.01 0-1.991.076-2.942.229l.317 1.974zm2.625-.203c.32 0 .674.038 1.063.122l.419-1.956a7.077 7.077 0 0 0-1.482-.166v2zm1.063.122c.321.069.606.192.862.37l1.142-1.64a4.35 4.35 0 0 0-1.585-.686l-.42 1.956zm.862.37c.239.167.445.39.617.688l1.733-1a4.081 4.081 0 0 0-1.208-1.329l-1.142 1.642zm.632.712c.133.217.235.549.235 1.06h2c0-.769-.153-1.493-.532-2.108l-1.703 1.048zm.235 1.06c0 .492-.083.934-.242 1.337l1.86.734a5.606 5.606 0 0 0 .382-2.071h-2zm-.252 1.362c-.16.442-.371.836-.631 1.187l1.607 1.19c.38-.513.68-1.079.904-1.693l-1.88-.684zm-.645 1.207a4.453 4.453 0 0 1-.863.922l1.249 1.562c.476-.381.893-.827 1.25-1.334l-1.636-1.15zm-.844.907c-.334.254-.66.436-.978.559l.718 1.866a5.984 5.984 0 0 0 1.47-.833l-1.21-1.592zm-1.093 2.372c.115.062.263.167.442.333l1.36-1.466a4.201 4.201 0 0 0-.854-.627l-.948 1.76zm.442.333c.16.148.318.334.472.566l1.664-1.11a5.147 5.147 0 0 0-.775-.922l-1.361 1.466zm.487.588a2.3 2.3 0 0 1 .313.687l1.92-.56a4.286 4.286 0 0 0-.599-1.28l-1.634 1.153zm.325.723c.088.265.14.588.14.98h2c0-.568-.075-1.11-.243-1.612l-1.897.632zm-5.342-1.68c-.062.373-.124.703-.184.99l1.957.412c.067-.32.134-.679.2-1.074l-1.973-.328zm-.192 1.032l-.142.83 1.97.348.145-.85-1.973-.328zm-.142.83c-.046.26-.1.537-.162.832l1.957.412c.066-.313.124-.612.174-.896l-1.97-.348zm-.17.874c-.049.29-.105.637-.17 1.038l1.976.316.167-1.026-1.973-.328zm.923 2.19c.345-.036.723-.098 1.131-.183l-.408-1.958c-.36.075-.67.125-.932.152l.209 1.99zm1.131-.183a6.247 6.247 0 0 0 1.314-.429l-.828-1.82a4.242 4.242 0 0 1-.894.291l.408 1.958zm1.347-.445a3.893 3.893 0 0 0 1.191-.904l-1.5-1.324a1.897 1.897 0 0 1-.585.44l.895 1.788zm1.21-.926c.4-.48.591-1.055.591-1.672h-2a.564.564 0 0 1-.128.392l1.537 1.28zm.591-1.672c0-.484-.14-.962-.472-1.36l-1.536 1.28v-.001c-.002-.002-.001-.002 0 .001a.264.264 0 0 1 .008.08h2zm-.44-1.32a2.71 2.71 0 0 0-.905-.762l-.941 1.764a.72.72 0 0 1 .246.198l1.6-1.2zm-.88-.748c-.33-.19-.689-.314-1.066-.38l-.348 1.969c.167.03.305.08.422.147l.992-1.736zm-1.01-.37a4.355 4.355 0 0 0-.998-.122v2c.152 0 .33.02.54.07l.457-1.947zm-.998-.122h-.001-.001-.003-.001-.001-.001-.001-.003-.001-.001-.001-.003-.001-.001-.001-.003-.001-.001-.003-.001-.001-.001-.002-.001-.001-.001-.002-.001-.001-.003-.001-.001-.002-.001-.001-.003-.001-.001-.002-.001-.001-.002-.001-.001-.002-.001-.003-.001-.002-.001-.001-.002-.001-.002-.001-.001-.002-.001-.002-.001-.002-.001-.002-.001-.002-.001-.001-.002-.001-.001-.001-.002-.001-.002-.001-.002-.001-.002-.001-.001-.001-.002-.001-.002-.002-.001-.002-.002-.001-.002-.002-.001-.001-.001-.002-.002-.001-.001-.001-.002-.002-.002-.002-.002-.001-.001-.001-.001-.001-.001-.001-.001-.001-.001-.001-.001-.001-.001-.001-.001-.001-.001-.002-.002-.002-.002-.001-.001-.001-.002-.002-.002-.001-.002-.002-.001-.002-.002-.001-.002-.002-.001-.002-.001-.002-.001-.002-.001-.002v2H76.807v-2zm-.216 0c-.154 0-.294.025-.41.054l.485 1.94-.011.002a.441.441 0 0 1-.064.004v-2zm-.072-4.963c-.03.169-.069.37-.116.607l1.96.392c.05-.244.09-.458.124-.641l-1.968-.358zm-.127.67c-.03.225-.068.467-.114.727l1.97.348c.05-.284.092-.554.127-.81l-1.983-.264zm-.112.717c-.044.236-.096.472-.155.71l1.94.485c.07-.275.13-.55.181-.827L76.28 9.88zm-.168.768c-.048.26-.09.491-.123.692l1.973.328c.03-.183.069-.4.116-.652l-1.966-.368zm1.042 1.84a9.48 9.48 0 0 0 1.18-.295l-.606-1.906c-.313.1-.623.177-.932.233l.358 1.968zm1.18-.295c.385-.123.74-.258 1.06-.408l-.853-1.81c-.224.106-.494.21-.813.312l.606 1.906zm1.08-.419c.347-.173.672-.382.932-.643l-1.414-1.414c-.06.06-.183.154-.412.269l.894 1.788zm.898-.61c.33-.3.591-.73.591-1.268h-2a.39.39 0 0 1 .04-.171c.021-.043.039-.055.024-.04l1.345 1.479zm.591-1.268c0-.454-.144-.918-.509-1.283l-1.414 1.414a.3.3 0 0 1-.067-.104c-.013-.034-.01-.047-.01-.027h2zm-.472-1.245a2.512 2.512 0 0 0-.948-.643l-.743 1.856c.126.05.181.1.204.125l1.487-1.338zm-.926-.634a3.654 3.654 0 0 0-.99-.265l-.248 1.984c.169.021.317.062.45.12l.788-1.84zm-.918-.254a4.328 4.328 0 0 0-.844-.091v2c.111 0 .26.014.452.053l.392-1.962zm-.844-.091h-.24v2h.24v-2zm3.786 15.352l-.984-.181-.255 1.385 1.392-.216-.153-.988zM84.672 5.96l-.085-.996-.76.065-.138.75.983.181zm7.584-.648l.953.303.454-1.427-1.492.128.085.996zm-.288 1.08l.967.254.005-.02.005-.022-.977-.212zm-.24.96l-.973-.232-.004.018-.004.018.98.196zm-.168.864l.1.995.745-.075.138-.736-.983-.184zm-.696.048v1h.026l.026-.001-.052-.999zm-.936.024v1h.024l.023-.001-.047-.999zm-1.92 0v-1h-.823l-.159.808.982.192zm-.84 4.296l-.982-.192-.249 1.274 1.295-.084-.064-.998zm1.392-.072l.037 1 .008-.001-.045-.999zm1.896-.048l.99.141.179-1.251-1.26.114.09.996zm-.192 1.32l-.99-.147-.002.018-.002.019.994.11zm-.192 1.32l.1.995.752-.075.132-.744-.984-.176zm-.792.048v1h.043l-.043-1zm-1.08.024l.038 1h.005l-.043-1zm-1.368.048l-.032-1-.805.027-.146.791.983.182zm-.816 4.416l-.983-.182-.257 1.39 1.396-.22-.156-.988zm3.504-.552l.996.087.112-1.274-1.264.2.156.987zm-.24 2.736l.153.988.775-.12.068-.78-.996-.088zm-6.769 1.381l3.144-17.064-1.966-.362-3.144 17.064 1.966.362zm2.246-16.249l7.584-.648-.17-1.992-7.584.648.17 1.992zm6.546-1.947c-.122.382-.226.773-.312 1.17l1.954.425c.074-.338.162-.667.264-.989l-1.906-.606zm-.302 1.129c-.082.312-.164.64-.246.982l1.946.464c.078-.33.156-.642.234-.938l-1.934-.508zm-.254 1.018a74.88 74.88 0 0 0-.17.876l1.966.368c.047-.25.102-.535.165-.852l-1.96-.392zm.713.065c-.136.014-.35.029-.649.044l.105 1.998c.309-.017.56-.034.743-.052l-.199-1.99zm-.596.043c-.306 0-.634.008-.984.025l.096 1.998c.322-.016.618-.023.888-.023v-2zm-.936.024h-.002-.002-.002-.002-.002-.002-.002-.002-.002-.002-.002-.002-.002-.002-.002-.002-.002-.002-.004H89.875h-.002-.002-.002-.002-.002-.002-.002-.002-.002-.002-.002-.002-.002-.002-.002-.002-.002-.002-.002-.002-.002-.002-.002-.002-.002-.002-.002-.002-.002-.002-.002-.002-.002-.004-.002H89.784h-.002-.002-.002-.002-.002-.002-.002-.002-.002-.002-.002-.002-.002-.002-.002-.002-.002-.002-.002-.002-.002-.002-.002-.002-.002-.002-.002-.002-.002-.002-.002-.002-.002-.002-.002-.002-.002-.002-.002-.002-.002-.002-.002-.002-.002-.002-.002-.002-.002-.002-.002-.002-.002-.002-.002-.002-.004-.002-.004-.002-.004-.002-.004-.002-.004-.002-.004H89.534h-.002-.004-.002-.004-.002-.004-.002-.004-.002-.002-.002-.002-.002-.002-.002-.002-.002-.002-.002-.002-.002-.002-.002-.002-.002-.002-.002-.002-.002-.002-.002-.002-.002-.002-.002-.002-.002-.002-.002-.002-.002-.002-.002-.002-.002-.002-.002-.002-.002-.002-.002-.002-.002-.002-.002-.002-.002-.002-.002-.002-.002-.002-.002-.002-.002-.002H89.363h-.002-.002-.002-.002-.002-.002-.002-.002-.002-.002-.002-.002-.002-.002-.002-.002-.002-.002-.002-.002-.002-.002-.002-.002-.002-.002-.002-.002-.002-.002-.019-.002-.002-.002-.002-.002-.002-.002-.002-.002-.002-.002-.002-.002-.002-.002-.002-.002-.002-.002-.002-.002-.002-.002-.002-.002-.021-.002-.002-.002-.002-.002-.002-.002-.002-.002-.002-.002-.002-.002-.002-.002-.002-.002-.002-.002H89.162h-.002-.002-.002-.002-.002-.002-.002-.002-.002-.002-.002-.002-.002-.002-.002-.002-.002-.002-.002-.017-.002-.002-.002-.002-.002-.002-.002-.002-.002-.002-.002-.002-.002-.002-.015-.002-.002-.002-.002-.002-.002-.002-.002-.002-.002-.002-.002-.002-.002-.011-.002-.002-.002-.002-.002-.002-.002-.002-.002-.002-.002H89h-.002-.002-.015-.002-.002-.002-.002-.002-.002-.002-.002-.002-.002-.002H88.947h-.002-.002-.002-.002-.002-.002-.002-.002-.002-.002-.002-.002-.011-.002-.002-.002-.002-.002-.002-.002-.002v2H89.928v-2zm-1.032 0h-.002-.002-.002-.002-.002-.002-.002-.002-.002-.002-.002-.002-.002-.002H88.858h-.002-.002-.002-.002-.002-.002-.002-.002-.002-.002-.002-.002H88.824h-.002-.002-.002-.002-.002-.002-.002-.002-.002-.002-.002-.005-.002-.002-.002-.002-.002-.002-.002-.002-.002-.005-.002-.002-.002-.002-.002-.002-.002-.002-.005-.002-.002-.002-.002-.002-.002-.005-.002-.002-.002-.002-.002-.002-.002-.003-.002-.002-.002-.002-.002-.002-.005-.002-.002-.002-.002-.002-.005-.002-.002-.002-.002-.002-.003-.002-.002-.002-.002-.002-.003-.002-.002-.002-.002-.002-.003-.002-.002-.002-.002-.002-.003-.002-.002-.002-.002-.003-.002-.002-.002-.002-.003-.002-.002-.002-.002-.003-.002-.002-.002-.002-.003-.002-.002-.002-.003-.002-.002-.002-.003-.002-.002-.002-.002-.003-.002-.002-.002-.003-.002-.002-.002-.003-.002-.002-.002-.003-.002-.002-.002-.001-.002-.002-.002-.002-.001-.002-.002-.002-.003-.002-.002-.002-.001-.002-.002-.002-.003-.002-.002-.003-.002-.002-.002-.001-.002-.002-.002-.003-.002-.002-.003-.002-.002-.003-.002-.002-.003-.002-.002-.003-.002-.002-.003-.002-.002-.003-.002-.002-.001-.002-.002-.002-.001-.002-.002-.003-.002-.002-.001-.002-.002-.003-.002-.002-.003-.002-.002-.001-.002-.002-.003-.002-.002-.001-.002-.002-.003-.002-.003-.002-.002-.001-.002-.002-.003-.002-.003-.002-.002-.001-.002-.002-.001-.002-.002-.001-.002-.002-.003-.002-.003-.002-.002-.001-.002-.002-.001-.002-.002-.001-.002-.002-.001-.002-.002-.001-.002-.002-.001-.002-.002-.001-.002-.002-.001-.002-.003-.002-.003-.002-.001-.002-.002-.001-.002-.002-.001-.002-.002-.001-.002-.002-.001-.002-.001-.002-.002-.001-.002-.002-.001-.002-.002-.001-.002-.001-.002-.002-.001-.002-.003-.002-.001-.002-.002-.001-.002-.003-.002-.001-.002-.003-.002-.001-.002-.002-.001-.002-.001-.002-.002-.001-.002-.001-.002-.003-.002-.001-.002-.002-.001-.002-.001-.002-.003-.002-.001-.002-.001-.002-.003-.002-.001-.002-.001-.002-.002-.001-.002-.001-.002-.001-.002-.002-.001-.002-.001-.002-.001-.002-.003-.002-.001-.002-.001-.002-.001-.002-.003-.002-.001-.002-.001-.002-.001-.002-.002-.001-.002-.001-.002-.001-.002-.001-.002-.001-.002-.001-.002-.003-.002-.001-.002-.001-.002-.001-.002-.001-.002-.001-.002-.001-.002-.001-.002-.001-.002-.001-.002-.003-.003-.003-.003-.003-.002-.001-.002-.001-.002-.001v2H88.896v-2zm-1.87.808l-.84 4.296 1.963.384.84-4.296-1.963-.384zm.206 5.486c.489-.032.943-.055 1.365-.07l-.074-2c-.442.017-.916.042-1.42.074l.13 1.996zm1.373-.071c.337-.015.681-.023 1.035-.023v-2c-.383 0-.758.008-1.126.025l.091 1.998zm1.035-.023c.373 0 .683-.008.906-.028l-.18-1.992c-.129.012-.363.02-.726.02v2zm-.174-1.165c-.064.446-.127.884-.191 1.314l1.978.293c.064-.433.129-.875.193-1.325l-1.98-.282zm-.196 1.35c-.045.41-.106.828-.182 1.255l1.968.352c.084-.469.151-.93.202-1.386l-1.988-.22zm.702.436c-.13.013-.369.028-.735.044l.086 1.998c.37-.016.658-.033.848-.052l-.199-1.99zm-.692.043c-.367 0-.742.008-1.124.025l.087 1.998c.355-.015.7-.023 1.037-.023v-2zm-1.118.025c-.414.016-.868.032-1.362.048l.064 1.999c.498-.017.956-.033 1.374-.049l-.076-1.998zm-2.313.865l-.816 4.416 1.966.364.816-4.416-1.966-.364zm.323 5.586l3.504-.552-.312-1.976-3.504.552.312 1.976zM88.524 19l-.24 2.736 1.992.174.24-2.736-1.992-.174zm.603 1.835l-7.752 1.2.306 1.976 7.752-1.2-.306-1.976z" fill="#224259"/>
</svg>
