<svg width="98" height="54" viewBox="0 0 98 54" fill="none" xmlns="http://www.w3.org/2000/svg">
  <path fill="#224259" d="M0 .225L97.127 0l.02 8.87-97.126.226z"/>
  <path fill="#00FFF0" d="M0 10.225L97.127 10l.02 8.87-97.126.226z"/>
  <path fill="#224259" d="M0 20.225L97.127 20l.02 8.87-97.126.226z"/>
  <path d="M13.928 23.024c.48-2.16.936-4.272 1.368-6.336.176-.864.36-1.776.552-2.736.192-.96.376-1.904.552-2.832.176-.928.344-1.824.504-2.688.16-.864.296-1.656.408-2.376.464-.144.92-.264 1.368-.36.448-.112.904-.208 1.368-.288.48-.08.928-.12 1.344-.12.72 0 1.32.12 1.8.36.496.24.896.568 1.2.984.304.4.52.872.648 1.416.128.544.192 1.128.192 1.752a6.86 6.86 0 0 1-.504 2.592 7.623 7.623 0 0 1-1.32 2.232 6.466 6.466 0 0 1-1.896 1.536 4.549 4.549 0 0 1-2.208.576h-.264a31.459 31.459 0 0 0-.36 1.776 66.41 66.41 0 0 0-.288 1.776c-.112.64-.216 1.28-.312 1.92l-4.152.816zm6.696-14.832a159.204 159.204 0 0 1-.528 3c-.176.944-.368 1.952-.576 3.024.256-.064.52-.208.792-.432.288-.24.552-.544.792-.912.24-.384.432-.824.576-1.32a5.567 5.567 0 0 0 .216-1.56c0-.592-.136-1.04-.408-1.344-.256-.304-.544-.456-.864-.456zm2.662 14.832L26.43 5.96l7.584-.648a11.89 11.89 0 0 0-.288 1.08c-.08.304-.16.624-.24.96-.064.32-.12.608-.168.864-.16.016-.392.032-.696.048-.288 0-.6.008-.936.024h-1.92l-.84 4.296c.496-.032.96-.056 1.392-.072a23.79 23.79 0 0 1 1.08-.024c.368 0 .64-.008.816-.024-.064.448-.128.888-.192 1.32a20.2 20.2 0 0 1-.192 1.32c-.16.016-.424.032-.792.048-.352 0-.712.008-1.08.024-.416.016-.872.032-1.368.048l-.816 4.416 3.504-.552-.24 2.736-7.752 1.2zm8.083 0c.432-2.128.848-4.208 1.248-6.24.144-.864.304-1.76.48-2.688.176-.944.336-1.872.48-2.784.16-.928.304-1.816.432-2.664.144-.864.256-1.648.336-2.352a16.31 16.31 0 0 1 2.952-.624 23.247 23.247 0 0 1 3.144-.216c.624 0 1.136.072 1.536.216.416.144.736.352.96.624.24.256.408.56.504.912.096.352.144.744.144 1.176 0 .64-.112 1.272-.336 1.896a7.955 7.955 0 0 1-.912 1.752 8.885 8.885 0 0 1-1.296 1.512c-.48.448-1 .816-1.56 1.104.288.64.592 1.344.912 2.112.336.752.648 1.472.936 2.16.32.8.648 1.6.984 2.4l-3.72 1.296c-.32-1.024-.608-1.984-.864-2.88-.112-.368-.224-.744-.336-1.128-.112-.4-.216-.776-.312-1.128a27.85 27.85 0 0 1-.24-.936 5.793 5.793 0 0 1-.12-.696l-.312.096a88.995 88.995 0 0 1-.36 1.8c-.128.688-.248 1.352-.36 1.992-.144.752-.288 1.512-.432 2.28l-3.888 1.008zm5.64-10.416c.304-.032.672-.16 1.104-.384a8.04 8.04 0 0 0 1.272-.792c.4-.32.744-.648 1.032-.984.288-.336.432-.632.432-.888a.508.508 0 0 0-.168-.408.971.971 0 0 0-.48-.24 2.594 2.594 0 0 0-.648-.12 11.19 11.19 0 0 0-.744-.024c-.176 0-.36.008-.552.024h-.48l-.768 3.816zm5.048 10.512c.48-2.304.936-4.536 1.368-6.696.16-.928.329-1.888.505-2.88a114.303 114.303 0 0 0 .96-5.712c.127-.896.224-1.704.288-2.424.208.016.384.024.528.024h1.319l.96-.048c.32-.016.665-.032 1.032-.048.224 1.12.424 2.2.6 3.24.177.912.352 1.848.529 2.808.191.96.36 1.776.504 2.448.064-.32.136-.688.215-1.104.08-.432.168-.88.264-1.344.096-.464.184-.928.265-1.392.096-.48.192-.952.288-1.416l.695-3.216L55.305 5a228.98 228.98 0 0 0-1.44 6.96 458.15 458.15 0 0 0-.576 2.88c-.175.96-.343 1.888-.504 2.784-.16.88-.295 1.704-.407 2.472-.112.752-.2 1.384-.264 1.896-.048 0-.24.04-.576.12-.32.064-.696.144-1.128.24-.416.096-.84.192-1.272.288a7.494 7.494 0 0 0-.936.264c-.096-1.28-.2-2.496-.313-3.648-.047-.496-.104-1-.168-1.512a36.37 36.37 0 0 0-.167-1.512 67.8 67.8 0 0 0-.193-1.344 20.347 20.347 0 0 0-.191-1.08c-.049.304-.113.656-.193 1.056s-.16.824-.24 1.272c-.08.448-.16.92-.24 1.416-.08.48-.167.944-.264 1.392a311.667 311.667 0 0 1-.671 3.36l-3.505.816zm10.924-.072c.448-2.24.88-4.424 1.296-6.552.16-.912.328-1.856.504-2.832.176-.992.336-1.968.48-2.928.16-.96.304-1.888.432-2.784.144-.912.256-1.736.336-2.472.368.016.704.04 1.008.072l.936.048.912.048h1.032a8075381684125542 8075381684125542 0 0 1-1.536 6.84l2.376-.264c.224-1.136.424-2.232.6-3.288a39.59 39.59 0 0 1 .696-3.312c.368-.064.776-.112 1.224-.144a53.381 53.381 0 0 1 2.208-.192l.408-.048a37.86 37.86 0 0 0-.648 2.376 146.4 146.4 0 0 0-.576 2.664c-.192.912-.376 1.84-.552 2.784-.176.944-.336 1.84-.48 2.688-.352 2.032-.68 4.112-.984 6.24l-3.744.432c.208-.96.392-1.896.552-2.808.16-.768.32-1.568.48-2.4.176-.832.312-1.544.408-2.136l-2.328.216c-.112.608-.248 1.312-.408 2.112l-.408 2.28-.528 2.592-3.696.768zm20.386-4.728c-.224.912-.544 1.688-.96 2.328-.4.64-.88 1.168-1.44 1.584a5.562 5.562 0 0 1-1.752.912 6.336 6.336 0 0 1-1.872.288c-.368 0-.744-.064-1.128-.192a3.006 3.006 0 0 1-1.032-.528 3.068 3.068 0 0 1-.768-.912c-.192-.368-.288-.8-.288-1.296v-.192c0-.064.008-.128.024-.192.064-.656.168-1.448.312-2.376.144-.928.296-1.896.456-2.904a99.65 99.65 0 0 1 .528-3.024c.192-1.024.36-1.952.504-2.784a166.604 166.604 0 0 1 .624-3.096c.336-.032.736-.072 1.2-.12.464-.048.896-.088 1.296-.12l1.464-.144a523.815 523.815 0 0 0-1.104 5.256l-.432 2.016a52.022 52.022 0 0 1-.384 1.848c-.112.56-.216 1.048-.312 1.464-.08.4-.152.728-.216.984a86.41 86.41 0 0 1-.192.984 6.463 6.463 0 0 0-.096 1.056c0 .256.064.472.192.648.128.16.288.24.48.24a.842.842 0 0 0 .672-.312c.176-.224.32-.488.432-.792.128-.304.216-.608.264-.912.064-.32.12-.568.168-.744.096-.464.2-.976.312-1.536.128-.576.248-1.168.36-1.776.128-.624.248-1.256.36-1.896.128-.64.248-1.264.36-1.872a199.8 199.8 0 0 0 .792-4.368l3.648-.24-.12.624a591.32 591.32 0 0 0-.744 4.008c-.144.88-.312 1.8-.504 2.76-.192.944-.384 1.88-.576 2.808a74.709 74.709 0 0 1-.528 2.52zm10.918-1.344c0 .656-.135 1.264-.407 1.824a5.666 5.666 0 0 1-1.105 1.536 7.973 7.973 0 0 1-1.632 1.2 12.57 12.57 0 0 1-1.944.864c-.672.224-1.368.4-2.088.528-.703.112-1.383.168-2.04.168a8.99 8.99 0 0 1-1.656-.144 77.978 77.978 0 0 0 1.825-8.448c.463-2.848.903-5.712 1.32-8.592a39.56 39.56 0 0 1 2.591-.456 17.524 17.524 0 0 1 2.784-.216c.4 0 .824.048 1.272.144a3.35 3.35 0 0 1 1.225.528c.367.256.671.592.911 1.008.257.416.385.944.385 1.584 0 .608-.105 1.176-.313 1.704a5.644 5.644 0 0 1-.767 1.44 5.455 5.455 0 0 1-1.056 1.128c-.4.304-.809.536-1.225.696.209.112.425.272.648.48.224.208.432.456.624.744.192.272.344.6.457.984.128.384.192.816.192 1.296zM78.79 14.48c-.065.384-.129.728-.193 1.032a89.54 89.54 0 0 1-.143.84c-.048.272-.104.56-.168.864-.049.288-.105.632-.168 1.032.303-.032.648-.088 1.032-.168.383-.08.751-.2 1.103-.36.353-.176.648-.4.888-.672.24-.288.36-.632.36-1.032 0-.288-.08-.528-.24-.72a1.713 1.713 0 0 0-.575-.48 2.288 2.288 0 0 0-.745-.264 3.36 3.36 0 0 0-.767-.096h-.217a.705.705 0 0 0-.167.024zm1.08-5.808c-.032.176-.073.384-.12.624a13.183 13.183 0 0 1-.288 1.536c-.048.256-.088.48-.12.672a8.49 8.49 0 0 0 1.055-.264c.352-.112.664-.232.936-.36.288-.144.513-.296.672-.456.177-.16.264-.336.264-.528 0-.24-.072-.432-.216-.576a1.517 1.517 0 0 0-.575-.384 2.654 2.654 0 0 0-.72-.192 3.337 3.337 0 0 0-.648-.072h-.24z" fill="#fff"/>
  <path d="M13.928 23.024l-.976-.217-.332 1.493 1.5-.295-.192-.981zm1.368-6.336l.979.205v-.005l-.979-.2zm.552-2.736l.98.196-.98-.196zm.552-2.832l-.982-.186.982.186zm.504-2.688l-.983-.182.983.182zm.408-2.376l-.296-.955-.596.185-.096.616.988.154zm1.368-.36l.21.978.016-.004.017-.004-.243-.97zm1.368-.288l-.164-.986h-.006l.17.986zm3.144.24l-.447.895.011.005.436-.9zm1.2.984l-.807.59.005.008.006.007.796-.605zm.648 1.416l-.973.229.973-.229zm-.312 4.344l-.927-.374-.003.007-.003.008.933.359zm-1.32 2.232l-.76-.65-.002.002.762.648zm-1.896 1.536l-.47-.882-.009.004.479.878zm-2.472.576v-1h-.792l-.181.771.973.229zm-.648 3.552l.985.172.002-.013.002-.014-.989-.145zm-.312 1.92l.193.981.691-.136.105-.697-.989-.148zm2.544-14.016v-1h-.847l-.14.836.987.164zm-.528 3l-.983-.183.983.183zm-.576 3.024l-.982-.19-.299 1.541 1.523-.38-.242-.971zm.792-.432l.636.772.004-.004-.64-.768zm.792-.912l.838.546.005-.008.005-.008-.848-.53zm.576-1.32l-.96-.279.96.279zm-.192-2.904l-.765.644.01.012.01.01.745-.666zm-6.584 14.593c.481-2.164.938-4.28 1.37-6.348l-1.957-.41c-.43 2.06-.886 4.168-1.365 6.324l1.952.434zm1.372-6.353c.176-.866.36-1.779.553-2.74l-1.962-.392c-.191.959-.375 1.87-.55 2.732l1.959.4zm.553-2.74c.192-.963.377-1.91.553-2.842l-1.965-.372c-.175.924-.358 1.865-.55 2.822l1.962.392zm.553-2.842c.177-.929.345-1.826.505-2.692l-1.966-.364c-.16.862-.328 1.757-.503 2.684l1.965.372zm.505-2.692c.162-.872.3-1.673.413-2.404l-1.976-.308c-.11.71-.245 1.492-.403 2.348l1.966.364zm-.279-1.603c.438-.136.864-.248 1.282-.337l-.42-1.956c-.479.103-.963.23-1.454.383l.592 1.91zm1.314-.345c.424-.106.856-.197 1.296-.273l-.34-1.97c-.488.084-.968.185-1.44.303l.485 1.94zm1.29-.272a7.209 7.209 0 0 1 1.18-.106v-2a9.2 9.2 0 0 0-1.508.134l.328 1.972zm1.18-.106c.615 0 1.05.103 1.353.254l.894-1.788c-.658-.33-1.422-.466-2.247-.466v2zm1.364.26c.36.174.628.4.829.674l1.614-1.18a4.16 4.16 0 0 0-1.571-1.294l-.872 1.8zm.84.69c.21.276.371.616.47 1.039l1.947-.458a4.711 4.711 0 0 0-.825-1.792l-1.592 1.21zm.47 1.039c.109.46.166.967.166 1.523h2c0-.692-.071-1.354-.219-1.981l-1.946.458zm.166 1.523c0 .768-.143 1.504-.431 2.217l1.854.75a7.86 7.86 0 0 0 .577-2.967h-2zm-.437 2.233a6.623 6.623 0 0 1-1.148 1.942l1.522 1.298a8.623 8.623 0 0 0 1.492-2.522l-1.866-.718zm-1.149 1.943a5.466 5.466 0 0 1-1.605 1.302l.942 1.764a7.466 7.466 0 0 0 2.187-1.77l-1.524-1.296zm-1.613 1.306a3.549 3.549 0 0 1-1.729.454v2a5.55 5.55 0 0 0 2.687-.698l-.958-1.756zm-1.729.454h-.264v2h.264v-2zm-1.237.771a32.398 32.398 0 0 0-.372 1.833l1.97.344c.11-.624.226-1.196.348-1.719l-1.946-.458zm-.372 1.833c-.113.647-.21 1.248-.292 1.802l1.978.291c.079-.533.173-1.116.284-1.749l-1.97-.344zm-.288 1.776a80.79 80.79 0 0 0-.316 1.944l1.978.296a78.94 78.94 0 0 1 .308-1.896l-1.97-.344zm.48 1.11l-4.152.817.386 1.962 4.152-.816-.386-1.962zm1.75-13.198c-.175 1.05-.35 2.044-.524 2.98l1.966.367c.177-.95.354-1.957.531-3.019l-1.972-.328zm-.524 2.98c-.176.942-.367 1.948-.575 3.018l1.964.38c.208-1.074.4-2.084.577-3.03l-1.966-.367zm.65 4.178c.44-.11.835-.342 1.185-.63l-1.272-1.544c-.194.16-.327.216-.398.234l.485 1.94zm1.19-.634a5.06 5.06 0 0 0 .989-1.134l-1.676-1.092a3.068 3.068 0 0 1-.594.69l1.28 1.536zm.999-1.15c.295-.472.522-.999.688-1.571l-1.92-.558a4.23 4.23 0 0 1-.464 1.069l1.696 1.06zm.688-1.571a6.566 6.566 0 0 0 .256-1.839h-2c0 .455-.06.88-.176 1.281l1.92.558zm.256-1.839c0-.729-.166-1.456-.663-2.01l-1.49 1.333c.047.053.153.222.153.677h2zm-.643-1.988c-.396-.47-.944-.812-1.629-.812v2h-.002l-.006-.001c-.006-.002-.006-.003-.003 0a.422.422 0 0 1 .11.101l1.53-1.288zm1.033 15.02l-.984-.181-.255 1.385 1.392-.216-.153-.988zM26.43 5.96l-.085-.996-.76.065-.139.75.984.181zm7.584-.648l.953.303.454-1.427-1.492.128.085.996zm-.288 1.08l.967.254.005-.02.005-.022-.977-.212zm-.24.96l-.973-.232-.004.018-.004.018.98.196zm-.168.864l.1.995.745-.075.138-.736-.983-.184zm-.696.048v1h.026l.026-.001-.052-.999zm-.936.024v1h.023l.024-.001-.047-.999zm-1.92 0v-1h-.824l-.158.808.982.192zm-.84 4.296l-.982-.192-.249 1.274 1.295-.084-.064-.998zm1.392-.072l.037 1 .008-.001-.045-.999zm1.896-.048l.99.141.178-1.251-1.259.114.09.996zm-.192 1.32l-.99-.147-.002.018-.002.019.994.11zm-.192 1.32l.1.995.751-.075.133-.744-.984-.176zm-.792.048v1h.043l-.043-1zm-1.08.024l.038 1h.005l-.043-1zm-1.368.048l-.032-1-.805.027-.147.791.984.182zm-.816 4.416l-.984-.182-.256 1.39 1.395-.22-.155-.988zm3.504-.552l.996.087.112-1.274-1.264.2.156.987zm-.24 2.736l.153.988.774-.12.069-.78-.996-.088zm-6.769 1.381l3.144-17.064-1.967-.362-3.144 17.064 1.967.362zm2.246-16.249l7.584-.648-.17-1.992-7.584.648.17 1.992zM33.06 5.01c-.122.382-.226.773-.312 1.17l1.954.425c.073-.338.161-.667.264-.989L33.06 5.01zm-.302 1.129c-.083.312-.164.64-.246.982l1.946.464c.078-.33.156-.642.234-.938l-1.934-.508zm-.254 1.018a74.88 74.88 0 0 0-.17.876L34.3 8.4c.047-.25.102-.535.165-.852l-1.96-.392zm.713.065c-.136.014-.35.029-.649.044l.105 1.998c.309-.017.56-.034.743-.052l-.199-1.99zm-.596.043c-.306 0-.634.008-.984.025l.095 1.998c.323-.016.619-.023.889-.023v-2zm-.936.024h-.002-.002-.002-.002-.002-.002-.002-.002-.002-.002-.002-.002-.002-.002-.002-.002-.002-.002-.002-.002-.002-.002-.002-.002-.002-.002-.002H31.617h-.002-.002-.002-.002-.002-.002-.002-.002-.002-.002-.002-.002-.002-.002-.002-.002-.002-.002-.002-.002-.002-.002-.002-.002-.002-.002-.002-.002-.002-.002-.002-.002-.002-.002-.002-.002-.002-.002H31.523h-.002-.002-.002-.002-.002-.002-.002-.002-.002-.002-.002-.002-.002-.002-.002-.002-.002-.002-.002-.002-.002-.002-.002-.002-.002-.002-.002-.002-.002-.002-.002-.002-.002-.002-.002-.002-.002-.002-.002-.002-.002-.002-.002-.002-.002-.002-.002-.002-.002-.002-.002-.002-.002-.002-.002-.002-.002-.002-.002-.002-.002-.002-.002-.002-.002-.002-.002-.002-.002-.002-.002-.002-.002-.002-.002-.002-.002-.002-.002-.002-.002-.002-.002-.002-.002-.002-.002-.002-.002-.002-.002-.002-.002-.002-.002-.002-.002-.002-.002-.002-.002-.002-.002-.002-.002-.002-.002-.002-.002-.002-.002-.002-.002-.002-.002-.002-.002-.002-.002-.002-.002-.002-.002-.002-.002-.002-.002-.002-.002-.002-.002-.002-.002-.002-.002-.002-.002-.002-.002-.002-.002-.002-.002-.002-.002-.002-.002-.002-.002-.002-.002-.002-.002-.002-.002-.002-.002-.002-.002-.002-.002-.002-.002-.002-.002-.002-.002-.002-.002-.002-.002-.002-.002-.002H31.15h-.002-.002-.002-.002-.002-.002-.002-.002-.002-.002-.002-.002-.002-.002-.002-.002-.002-.002-.002-.002-.002-.002-.002-.002-.002-.002-.002-.002-.002-.002-.002-.002-.002-.002-.002-.002-.002-.002-.017-.002-.002-.002-.002-.002-.002-.002-.002-.002-.002-.002-.002-.002-.002-.002-.002-.002-.002-.002-.002-.002-.002-.002-.002-.002-.002-.002-.002H30.989h-.002-.002-.002-.002-.002-.002-.002-.002-.002-.002-.002-.002-.002-.002-.002-.002-.002-.002-.002-.002-.002-.002-.002H30.93h-.002-.002-.002-.002-.002-.002-.002-.002-.002-.002-.002-.002-.002-.002-.002-.002-.002-.002-.002H30.879h-.002-.002-.002-.002-.002-.002-.002-.002-.002-.002-.002-.002-.002-.002-.002-.002-.002-.011-.002-.002-.002-.002-.002-.002-.002-.002-.002-.002-.002-.002-.002-.002-.002-.002-.011-.002-.002-.002-.002-.002-.002-.002-.002-.002-.002-.002-.002-.002-.002-.002-.011-.002-.002-.002-.002-.002-.002-.002-.002-.002-.002-.002-.002-.002H30.715h-.002-.002-.002-.002-.002-.002-.002-.002-.002-.002-.002-.002-.002H30.68h-.002-.002-.002-.002-.002-.002-.002-.002-.002-.002-.002-.002-.002v2H31.686v-2zm-1.032 0h-.002-.002-.002-.002-.002-.002-.002-.002-.002-.002-.002-.002-.002-.002-.002-.002-.002-.002-.002-.007-.002-.002-.002-.002-.002-.002-.002-.002-.002-.002-.002-.002-.002-.002-.005-.002-.002-.002-.002-.002-.002-.002-.002-.002-.002-.002-.003-.002-.002-.002-.002-.002-.002-.002-.002-.002-.002-.003-.002-.002-.002-.002-.002-.002-.002-.002-.005-.002-.002-.002-.002-.002-.002-.002-.003-.002-.002-.002-.002-.002-.002-.002-.003-.002-.002-.002-.002-.002-.002-.003-.002-.002-.002-.002-.002-.002-.003-.002-.002-.002-.002-.002-.002-.001-.002-.002-.002-.002-.002-.002-.003-.002-.002-.002-.002-.002-.001-.002-.002-.002-.002-.002-.003-.002-.002-.002-.002-.003-.002-.002-.002-.002-.003-.002-.002-.002-.002-.003-.002-.002-.002-.002-.003-.002-.002-.002-.003-.002-.002-.002-.002-.001-.002-.002-.002-.002-.003-.002-.002-.002-.003-.002-.002-.002-.003-.002-.002-.002-.003-.002-.002-.002-.001-.002-.002-.002-.002-.001-.002-.002-.002-.003-.002-.002-.002-.001-.002-.002-.002-.003-.002-.002-.002-.001-.002-.002-.002-.001-.002-.002-.002-.001-.002-.002-.002-.001-.002-.002-.002-.003-.002-.002-.003-.002-.002-.003-.002-.002-.001-.002-.002-.002-.001-.002-.002-.002-.001-.002-.002-.003-.002-.002-.001-.002-.002-.002-.001-.002-.002-.003-.002-.002-.001-.002-.002-.002-.001-.002-.002-.001-.002-.002-.002-.001-.002-.002-.001-.002-.002-.003-.002-.002-.001-.002-.002-.001-.002-.002-.001-.002-.002-.003-.002-.002-.001-.002-.002-.001-.002-.002-.001-.002-.002-.001-.002-.002-.001-.002-.002-.003-.002-.003-.002-.003-.002-.003-.002-.003-.002-.001-.002-.002-.001-.002-.002-.001-.002-.002-.001-.002-.002-.001-.002-.002-.001-.002-.002-.001-.002-.001-.002-.002-.001H30 30h-.001-.002-.002-.001-.002-.001-.002-.002-.001-.002-.002-.001-.002-.001-.002-.002-.001-.002-.002-.001-.002-.001-.002-.002-.001-.002-.003-.002-.001-.002-.002-.001-.002-.001-.002-.002-.001-.002-.001-.002-.002-.001-.002-.001-.002-.002-.001-.002-.001-.002-.003-.002-.001-.002-.001-.002-.002-.001-.002-.001-.002-.003-.002-.001-.002-.001-.002-.002-.001-.002-.001-.002-.001-.002-.003-.002-.001-.002-.001-.002-.001-.002-.002-.001-.002-.001-.002-.001-.002-.001-.002-.002-.001-.002-.001-.002-.001-.002-.001-.002-.001-.002-.003-.002-.001-.002-.001-.002-.001-.002-.001-.002-.001-.002-.001-.002-.001-.002-.002-.001-.002-.001-.002-.001-.002-.001-.002-.001-.002-.001-.002-.001-.002-.001-.002-.001-.002-.001-.002-.001-.002-.001-.002-.001v2H30.654v-2zm-1.87.808l-.84 4.296 1.963.384.84-4.296-1.963-.384zm.206 5.486c.488-.032.943-.055 1.365-.07l-.074-2c-.443.017-.916.042-1.42.074l.13 1.996zm1.373-.071c.336-.015.681-.023 1.035-.023v-2c-.383 0-.758.008-1.126.025l.091 1.998zm1.035-.023c.373 0 .683-.008.906-.028l-.18-1.992c-.13.012-.364.02-.726.02v2zm-.174-1.165c-.064.446-.128.884-.192 1.314l1.979.293.193-1.325-1.98-.282zm-.196 1.35c-.046.41-.106.828-.183 1.255l1.97.352c.083-.469.15-.93.2-1.386l-1.987-.22zm.702.436c-.13.013-.369.028-.736.044l.087 1.998c.37-.016.658-.033.848-.052l-.199-1.99zm-.692.043c-.367 0-.742.008-1.124.025l.087 1.998c.354-.015.7-.023 1.037-.023v-2zm-1.119.025c-.413.016-.867.032-1.361.048l.064 1.999c.498-.017.956-.033 1.374-.049l-.077-1.998zm-2.313.865l-.816 4.416 1.967.364.816-4.416-1.967-.364zm.323 5.586l3.504-.552-.31-1.976-3.505.552.311 1.976zM30.282 19l-.24 2.736 1.992.174.24-2.736-1.992-.174zm.603 1.835l-7.752 1.2.306 1.976 7.752-1.2-.306-1.976zm.484 2.188l-.98-.199-.318 1.569 1.55-.402-.252-.968zm1.248-6.24l.982.193.002-.014.003-.015-.987-.164zm.48-2.688l.983.186v-.003l-.983-.183zm.48-2.784l-.985-.17-.002.014.987.156zm.432-2.664l-.986-.164-.001.007-.001.008.988.149zm.336-2.352l-.3-.954-.62.196-.073.645.993.113zm2.952-.624l.12.993.008-.001.008-.001-.136-.991zm4.68 0l-.338.941.011.004.327-.945zm.96.624l-.771.636.02.024.022.024.73-.684zm.504.912l.965-.263-.965.263zm-.192 3.072l.939.346.003-.008-.942-.338zm-.912 1.752l-.824-.566-.004.006.828.56zm-1.296 1.512l.683.731-.683-.731zm-1.56 1.104l-.457-.89-.844.435.39.865.911-.41zm.912 2.112l-.923.385.005.011.005.012.913-.408zm.936 2.16l.929-.371-.003-.008-.003-.007-.923.386zm.984 2.4l.33.944 1.005-.35-.413-.981-.922.387zm-3.72 1.296l-.954.298.308.986.975-.34-.329-.944zm-.864-2.88l.962-.275-.002-.008-.003-.008-.957.291zm-.336-1.128l-.963.27.003.01.96-.28zm-.552-2.064l-.976.217.003.012.973-.229zm-.12-.696l.996-.09-.111-1.228-1.179.362.294.956zm-.312.096l-.294-.956-.577.178-.111.594.982.184zm-.36 1.8l-.978-.205-.003.011-.002.011.983.183zm-.36 1.992l.983.188.001-.008.002-.008-.986-.172zm-.432 2.28l.251.968.615-.16.117-.624-.983-.184zm1.752-9.408l-.98-.197-.268 1.334 1.353-.143-.105-.994zm1.104-.384l-.447-.894-.006.003-.007.003.46.888zm1.272-.792l.605.796.01-.007.01-.008-.625-.781zm1.032-.984l.76.65-.76-.65zm.264-1.296l-.707.707.028.027.029.025.65-.759zm-.48-.24l-.316.949.045.015.047.01.224-.974zm-.648-.12l-.066.998.066-.998zm-1.296 0v1h.042l.041-.003-.083-.997zm-.48 0v-1h-.818l-.162.803.98.197zm-5.428 14.43c.433-2.129.85-4.21 1.25-6.245l-1.963-.386c-.4 2.03-.815 4.108-1.247 6.234l1.96.398zm1.255-6.274c.142-.856.301-1.744.476-2.666l-1.965-.372c-.177.934-.339 1.838-.484 2.71l1.973.328zm.477-2.669c.177-.952.339-1.89.484-2.811l-1.975-.312c-.143.903-.301 1.821-.476 2.757l1.967.366zm.482-2.797c.161-.934.306-1.83.435-2.685L33.021 8.5c-.127.84-.27 1.721-.429 2.643l1.97.34zm.433-2.67c.146-.877.26-1.678.343-2.403l-1.987-.226c-.078.683-.187 1.45-.329 2.3l1.973.33zm-.35-1.562c.847-.268 1.77-.464 2.772-.585l-.24-1.986c-1.111.135-2.157.355-3.134.663l.603 1.908zm2.787-.587a22.244 22.244 0 0 1 3.008-.207v-2c-1.086 0-2.179.075-3.279.225l.27 1.982zm3.008-.207c.558 0 .944.066 1.198.157l.677-1.882c-.547-.197-1.184-.275-1.875-.275v2zm1.21.161c.284.099.433.216.514.315L43.71 5.66c-.367-.445-.858-.744-1.405-.933l-.654 1.89zm.557.363c.124.132.214.29.269.491l1.93-.526a3.13 3.13 0 0 0-.74-1.333l-1.46 1.368zm.269.491c.069.252.108.554.108.913h2c0-.505-.056-.987-.179-1.44l-1.93.527zm.108.913c0 .52-.09 1.039-.277 1.558l1.883.676a6.575 6.575 0 0 0 .394-2.234h-2zm-.274 1.55a6.954 6.954 0 0 1-.798 1.533l1.65 1.13a8.96 8.96 0 0 0 1.025-1.971l-1.877-.692zm-.802 1.538c-.325.48-.707.927-1.15 1.342l1.366 1.46a9.885 9.885 0 0 0 1.44-1.682l-1.656-1.12zm-1.15 1.34c-.415.389-.86.703-1.335.947l.915 1.778a7.922 7.922 0 0 0 1.785-1.262l-1.365-1.462zm-1.79 2.246c.284.63.584 1.326.901 2.087l1.846-.77a83.576 83.576 0 0 0-.923-2.137l-1.824.82zm.911 2.11c.334.745.642 1.458.927 2.138l1.845-.772c-.291-.696-.607-1.423-.946-2.182l-1.826.816zm.921 2.123c.322.806.652 1.611.99 2.416l1.844-.774c-.333-.795-.66-1.59-.977-2.384l-1.857.742zm1.583 1.085l-3.72 1.296.658 1.888 3.72-1.296-.658-1.888zm-2.436 1.942c-.318-1.018-.604-1.97-.857-2.857l-1.923.55c.258.905.549 1.873.871 2.903l1.909-.596zm-.862-2.873c-.11-.364-.222-.737-.333-1.117l-1.92.56c.114.388.227.767.34 1.14l1.913-.583zm-.33-1.107a171.35 171.35 0 0 1-.31-1.121l-1.93.526c.097.355.202.733.315 1.135l1.925-.54zm-.31-1.121c-.094-.344-.17-.644-.231-.902l-1.947.458c.067.286.15.61.249.97l1.93-.526zm-.228-.89c-.06-.27-.09-.455-.1-.57l-1.993.181c.022.238.072.517.14.823l1.953-.434zm-1.39-1.435l-.313.096.588 1.912.313-.096-.589-1.912zm-1.001.868a87.846 87.846 0 0 1-.356 1.78l1.957.409c.145-.693.267-1.3.364-1.82l-1.965-.37zm-.36 1.801c-.13.691-.25 1.359-.363 2.003l1.97.344c.112-.636.231-1.296.359-1.981l-1.967-.366zm-.36 1.987c-.144.753-.288 1.515-.432 2.284l1.965.368c.144-.767.288-1.525.432-2.276l-1.965-.376zm.3 1.5l-3.888 1.008.501 1.936 3.888-1.008-.502-1.936zm2.107-7.445c.48-.051.975-.24 1.46-.491l-.92-1.776c-.38.197-.621.264-.75.277l.21 1.99zm1.447-.485c.503-.251.98-.548 1.43-.89l-1.21-1.592a7.04 7.04 0 0 1-1.115.694l.895 1.788zm1.45-.905a8.63 8.63 0 0 0 1.166-1.114l-1.519-1.302a6.638 6.638 0 0 1-.897.854l1.25 1.562zm1.166-1.114c.34-.397.672-.923.672-1.539h-2c0-.06.017-.073-.007-.023-.024.05-.078.136-.184.26l1.519 1.302zm.672-1.539c0-.406-.14-.844-.517-1.167L40.031 9.91a.547.547 0 0 1-.148-.204.401.401 0 0 1-.034-.147h2zm-.46-1.115a1.962 1.962 0 0 0-.963-.507l-.45 1.948c.042.01.057.018.054.016a.24.24 0 0 1-.056-.043l1.415-1.414zm-.871-.482a3.59 3.59 0 0 0-.898-.169l-.133 1.996c.17.011.3.038.398.07l.633-1.897zm-.898-.169a12.196 12.196 0 0 0-.81-.026v2c.235 0 .46.007.677.022l.133-1.996zm-.81-.026c-.207 0-.419.01-.636.027l.166 1.994c.167-.014.324-.021.47-.021v-2zm-.553.024h-.014-.001-.001-.001-.001-.001-.001-.001-.001-.001-.001-.001-.001-.001-.001-.001-.001-.001-.001-.001-.001-.001-.002-.002-.002-.002-.002H38.131h-.002-.002-.002-.002-.002-.001-.001-.001-.001-.001-.001-.001-.001-.001-.001-.001-.001-.001-.001-.001-.001-.001-.001-.001-.001-.001H38.088h-.002-.002-.001-.001-.001-.001-.001-.001-.001-.001-.001-.001-.001-.001-.001H38.062h-.002-.002-.001-.001-.001-.001-.001-.001-.001-.001-.001-.001-.007-.002-.002-.001-.001-.001-.001-.001-.001-.001-.001-.007-.002-.001-.001-.001-.001-.001-.001-.001-.007-.002-.001-.001H38 38h-.001-.001-.007-.001-.001-.001-.001-.001-.001-.001-.005-.002-.001-.001-.001-.001-.001-.005-.002-.001-.001-.001-.001-.001-.005-.002-.001-.001-.001-.001-.005-.002-.001-.001-.001-.005-.002-.001-.001-.001-.005-.002-.001-.001-.001-.005-.001-.001-.001-.001-.005-.001-.001-.001-.001-.003-.002-.001-.001-.001-.005-.001-.001-.001-.005-.001-.001-.001-.003-.002-.001-.001-.005-.001-.001-.001-.003-.002-.001-.001-.003-.002-.001-.001-.003-.002-.001-.001-.003-.002-.001-.005-.001-.001-.003-.002-.001-.003-.002-.001-.003-.002-.001-.003-.002-.001-.003-.002-.001-.003-.002-.001-.003-.001-.001-.001-.003-.001-.001-.003v2H38.257v-2zm-1.46.803l-.768 3.816 1.96.394.769-3.816-1.96-.394zm5.26 14.525l-.979-.204-.319 1.533 1.525-.355-.227-.974zm1.368-6.696l.981.196.003-.013.002-.013-.986-.17zm.505-2.88l-.982-.19-.002.008-.001.007.984.175zm.528-2.928l.986.164v-.002l-.986-.162zm.431-2.784l.99.144v-.003l-.99-.141zm.288-2.424l.077-.997-.985-.076-.088.984.997.089zm1.849.024v1h.024l.025-.001-.05-.999zm.96-.048l-.05-.999.05.999zm1.032-.048l.98-.196-.168-.84-.856.037.044.999zm.6 3.24l-.986.167.001.011.003.011.981-.189zm.527 2.808l-.983.18.001.008.002.008.98-.196zm.505 2.448l-.978.21 1.958-.014-.98-.196zm.215-1.104l.982.189.002-.007-.983-.182zm.264-1.344l-.979-.203.98.203zm.265-1.392l-.981-.196-.003.013-.002.013.986.17zm.288-1.416l-.978-.21-.002.007.98.203zm.695-3.216l-.122-.993-.704.087-.15.694.976.212zM55.305 5l.977.217.307-1.382-1.405.172.122.993zm-1.44 6.96l.98.2.003-.014-.983-.186zm-.576 2.88l-.98-.193-.003.013.983.18zm-.504 2.784l.984.179V17.8l-.983-.176zm-.407 2.472l.989.147v-.003l-.99-.144zm-.264 1.896v1h.882l.11-.876-.992-.124zm-.576.12l.196.98.017-.003.018-.004-.231-.973zm-1.128.24l-.217-.976-.008.002.224.974zm-1.272.288l-.217-.976-.008.002.225.974zm-.936.264l-.998.075.1 1.341 1.256-.483-.358-.933zm-.313-3.648l-.995.096.995-.096zm-.168-1.512l-.995.09.001.017.002.017.992-.124zm-.167-1.512l.99-.132-.99.132zm-.193-1.344l.989-.152-.989.152zm-.191-1.08l.978-.206-1.966.05.987.156zm-.433 2.328l-.984-.176.984.176zm-.24 1.416l.987.164v-.005l-.986-.159zm-.264 1.392l-.977-.21-.002.01-.002.01.981.19zm-.671 3.36l.226.974.624-.145.129-.628-.98-.201zm-2.526 1.02c.481-2.307.938-4.541 1.37-6.704l-1.961-.392a851.232 851.232 0 0 1-1.367 6.688l1.958.408zm1.375-6.73c.16-.926.327-1.885.503-2.875l-1.97-.35c-.175.994-.344 1.955-.504 2.885l1.971.34zm.5-2.86c.194-1 .371-1.985.533-2.954l-1.973-.328a113.29 113.29 0 0 1-.523 2.902l1.963.38zm.533-2.956c.161-.982.306-1.915.435-2.802l-1.98-.288c-.126.873-.27 1.796-.428 2.766l1.973.324zm.435-2.805c.13-.909.229-1.735.295-2.476l-1.993-.178a45.381 45.381 0 0 1-.281 2.372l1.98.282zm-.778-1.568c.223.017.426.027.605.027v-2c-.11 0-.26-.006-.452-.021l-.153 1.994zm.605.027H46.21v-2h-.004-.001-.001-.001-.001-.006-.001-.001-.001-.001-.006-.001-.001-.001-.002-.004-.001-.001-.001-.001-.001-.006-.001-.001-.001-.001-.002-.004-.001-.001-.001-.001-.001-.001-.006-.001-.001-.001-.001-.001-.002-.006-.001-.001-.001-.001-.001-.002-.006-.001-.001-.001-.001-.001-.001-.008-.001-.001-.001-.001-.001-.001-.002-.008-.001-.001-.001-.001-.001-.001-.001-.002-.008-.001-.001-.001-.001-.001-.001-.001-.001-.001-.002-.01-.001-.001-.001-.001-.001-.001-.001-.001-.001-.001-.001-.001-.002-.002-.012-.001-.001-.001-.001-.001-.001-.001-.001-.001-.001-.001-.001-.001-.001-.001-.001-.001-.001-.001-.001H46 46h-.002-.002-.002-.002-.002H45.947h-.002-.002-.002-.002-.002-.002-.001-.001-.001-.001-.001-.001-.001-.001-.001-.001-.001-.001-.001-.001-.001-.001-.001-.001-.001H45.906h-.002-.002-.001-.001-.001-.001-.001-.001-.001-.001-.001-.001-.001H45.882h-.002-.001-.001-.001-.001-.001-.001-.001-.001-.001-.007-.002-.001-.001-.001-.001-.001-.001-.007-.002-.001-.001-.001-.001-.001-.005-.002-.001-.001-.001-.001-.001-.005-.002-.001-.001-.001-.001-.005-.002-.001-.001-.001-.005-.002-.001-.001-.001-.005-.001-.001-.001-.001-.005-.001-.001-.001-.005-.001-.001-.001-.005-.001-.001-.001-.003-.002-.001-.001-.003-.002-.001-.001-.003-.002-.001-.001-.003-.001-.001-.001-.003-.002-.001-.003-.002-.001-.003-.002-.001-.003-.002-.001-.003-.001-.001-.001-.003v2zm.503 0H47.026v-2h-.004-.002-.002-.002-.002-.002-.002-.003-.002-.002-.002H47h-.002-.003-.002-.002-.002-.002-.002-.003-.002-.002-.002-.002-.003-.002-.002-.002-.002-.002-.001-.002-.002-.002-.002-.002-.001-.002-.002-.002-.002-.003-.002-.002-.002-.002-.001-.002-.002-.002-.002-.003-.002-.002-.002-.003-.002-.002-.002-.002-.001-.002-.002-.002-.003-.002-.002-.002-.003-.002-.002-.002-.001-.002-.002-.002-.002-.001-.002-.002-.002-.001-.002-.002-.002-.003-.002-.002-.002-.001-.002-.002-.002-.001-.002-.002-.002-.001-.002-.002-.002-.001-.002-.002-.002-.001-.002-.002-.002-.001-.002-.002-.002-.001-.002-.002-.002-.001-.002-.002-.003-.002-.002-.001-.002-.002-.002-.001-.002-.002-.003-.002-.002-.001-.002-.002-.003-.002-.002-.001-.002-.002-.001-.002-.002-.003-.002-.002-.001-.002-.002-.001-.002-.002-.001-.002-.002-.003-.002-.002-.001-.002-.002-.001-.002-.002-.001-.002-.002-.001-.002-.002-.001-.002-.002-.001-.002-.002-.001-.002-.002-.001-.002-.002-.001-.002-.002-.001-.002-.003-.002-.001-.002-.002-.001-.002-.002-.001-.002-.002-.001-.002-.003-.002-.001-.002-.002-.001-.002-.003-.002-.001-.002-.002-.001-.002-.001-.002-.002-.001-.002-.002-.001-.002-.001-.002-.002-.001-.002-.001-.002-.002-.001-.002-.001-.002-.002-.001-.002-.001-.002-.002-.001-.002-.001-.002-.001-.002-.002-.001-.002-.001-.002-.003-.002-.001-.002-.001-.002-.003-.002-.001-.002-.001-.002-.001-.002-.002-.001-.002-.001-.002-.001-.002-.001-.002-.002-.001-.002-.001-.002-.001-.002-.001-.002-.001-.002-.001-.002-.002-.001-.002-.001-.002-.001-.002-.001-.002-.001-.002-.001-.002-.001-.002-.001-.002-.001-.002-.001-.002-.002-.001-.002-.001-.002-.001-.002-.001-.002-.001-.002-.001-.002-.001-.002-.001-.002-.001-.004-.002-.001-.002-.001-.002-.001-.002-.001-.002-.001-.002-.001-.002-.001-.002-.001-.002-.001-.003-.001-.002-.001-.002-.001-.002-.001-.002-.001-.002-.001-.002-.001-.001-.002-.001-.002-.001-.002-.001-.002-.001-.001-.002-.001-.002-.001-.002-.001-.004-.002-.001-.002-.001-.004-.002-.001-.002-.001-.001-.002-.001-.002-.001-.004-.002-.001-.002-.001-.001-.002-.001-.002-.001-.001-.002-.001-.002-.001-.001-.002-.001-.004-.002-.001-.004-.002-.001-.001-.002-.001-.004-.002-.001-.001-.002-.001-.004-.002-.001-.001-.002-.001-.001-.002-.001-.004-.004-.004-.002-.001-.001-.002-.001-.001-.002-.001-.001-.002-.001-.001-.002-.001-.001-.002-.001-.001-.002-.001-.001-.002-.001-.001-.004-.004-.002v2zm.866-.001h.014l.001-.001H47.11l.002-.001h.017l.002-.001H47.149l.001-.001H47.17l.002-.001h.017l.002-.001H47.209l.001-.001H47.23l.002-.001h.017l.002-.001h.017a.255.255 0 0 0 .005-.001h.002a.254.254 0 0 1 .004 0h.004a.255.255 0 0 0 .005 0h.002l.002-.001h.006a.255.255 0 0 0 .003 0h.008l.002-.001H47.329l.001-.001H47.35l.002-.001h.017l.002-.001H47.389l.001-.001h.012a.254.254 0 0 1 .003 0h.004l.002-.001h.006a.254.254 0 0 1 .003 0h.008l.002-.001H47.449a.109.109 0 0 1 .003-.001h.012a.109.109 0 0 1 .003 0h.002l.002-.001h.008a.109.109 0 0 1 .003 0h.006l.002-.001h.004a.109.109 0 0 1 .003 0h.012a.109.109 0 0 1 .003-.001h.017l.002-.001h.017l.002-.001H47.569l.001-.001H47.59l.002-.001h.017l.002-.001H47.629l.001-.001h.012a.254.254 0 0 1 .005 0h.002a.254.254 0 0 1 .004-.001h.004a.254.254 0 0 1 .005 0h.002a.254.254 0 0 1 .004 0l.002-.001h.002a.254.254 0 0 1 .003 0h.014l.001-.001H47.71l.002-.001h.017l.002-.001H47.749l.001-.001H47.77l.002-.001h.017l.002-.001H47.809l.001-.001H47.83l.002-.001h.017l.002-.001H47.869l.001-.001H47.89l.002-.001h.017l.002-.001h.004a.109.109 0 0 1 .003 0h.012a.109.109 0 0 1 .003-.001h.012a.109.109 0 0 1 .003 0h.002l.002-.001h.006a.254.254 0 0 1 .005 0h.002a.254.254 0 0 1 .004 0l.002-.001h.002a.254.254 0 0 1 .005 0h.012l.001-.001H48.01l.002-.001h.017l.002-.001h.005l-.1-1.998h-.001-.002a.079.079 0 0 1-.006 0h-.002-.002l-.001.001h-.002-.002a.079.079 0 0 1-.006 0h-.002-.002-.003-.002a.079.079 0 0 1-.006.001h-.002-.002-.003-.002-.002-.002l-.002.001h-.002-.002-.003-.002-.002-.002-.002-.002-.002l-.001.001h-.002-.002-.002-.002-.002-.002-.002-.003-.002a.079.079 0 0 1-.006.001h-.002-.002-.003-.002a.079.079 0 0 1-.006.001h-.002-.002-.003-.002-.002-.002-.002-.002-.002l-.001.001h-.002-.002-.002-.002-.002-.002-.002-.003-.002l-.002.001h-.002-.002-.002-.002-.003-.002-.002-.002l-.002.001h-.002-.002-.003-.002-.002-.002-.002-.002-.002l-.001.001h-.002-.002-.002-.002-.002-.002-.002-.003-.002l-.002.001h-.002-.002-.002-.002-.003-.002-.002-.002l-.002.001H47.7h-.002-.003-.002-.002-.002-.002-.002-.002l-.001.001h-.002-.002-.002-.002-.002-.002-.002-.003-.002a.079.079 0 0 1-.006.001h-.002-.002-.003-.002a.079.079 0 0 1-.006.001h-.002-.002-.003-.002-.002-.002-.002-.002-.002l-.001.001h-.002-.002-.002-.002-.002-.002-.002-.003-.002l-.002.001h-.002-.002-.002-.002-.003-.002-.002-.002l-.002.001h-.002-.002-.003-.002-.002-.002-.002-.002-.002l-.001.001h-.002-.002-.002-.002-.002-.002-.002-.003-.002l-.002.001h-.002-.002-.002-.002-.003-.002-.002-.002l-.002.001h-.002-.002-.003-.002-.002-.002-.002-.002-.002l-.001.001h-.002-.002-.002-.002-.002-.002-.002-.003-.002l-.002.001h-.002-.002-.002-.002-.003-.002-.002-.002l-.002.001h-.002-.002-.003-.002-.002-.002-.002-.002-.002l-.001.001h-.002-.002a.079.079 0 0 1-.006 0h-.002-.002-.003-.002a.079.079 0 0 1-.006.001h-.002-.002-.003-.002a.079.079 0 0 1-.006.001H47.4h-.002-.003-.002a.079.079 0 0 1-.006 0h-.002-.002l-.001.001h-.002-.002-.002-.002-.002-.002-.002-.003-.002l-.002.001h-.002-.002-.002-.002-.003-.002-.002-.002l-.002.001h-.002-.002-.003-.002-.002-.002-.002-.002-.002l-.001.001h-.002-.002-.002-.002-.002-.002-.002-.003-.002l-.002.001h-.002-.002-.002-.002-.003-.002a.079.079 0 0 1-.006.001h-.002-.002-.003-.002a.079.079 0 0 1-.006 0h-.002-.002l-.001.001h-.002-.002-.002-.002-.002-.002-.002-.003-.002l-.002.001h-.002-.002-.002-.002-.003-.002-.002-.002l-.002.001h-.002-.002-.003-.002-.002-.002-.002-.002-.002l-.001.001h-.002-.002-.002-.002-.002-.002-.002-.003-.002l-.002.001h-.002-.002-.002-.002-.003-.002-.002-.002l-.002.001h-.002-.002-.003-.002-.002-.002-.002-.002-.002l-.001.001h-.002-.002-.002-.002-.002-.002-.002-.003-.002l-.002.001h-.002-.002-.002-.002-.003-.002-.002-.002l-.002.001H47.1h-.002-.003-.002-.002-.002-.002-.002-.002l-.001.001h-.002-.002-.002-.002-.002-.002-.002-.003-.002l-.002.001h-.002-.002-.002-.002-.003-.002-.002-.002l-.002.001h-.002-.002-.003-.002a.079.079 0 0 1-.006 0h-.002-.002l-.001.001h-.002-.002a.079.079 0 0 1-.006 0h-.002-.002-.003-.002a.079.079 0 0 1-.006.001h-.002-.002-.003-.002a.079.079 0 0 1-.006.001h-.002-.002-.001l.1 1.998zm.96-.048c.318-.016.66-.032 1.026-.048l-.087-1.998c-.37.016-.716.032-1.038.048l.1 1.998zm.002-.85c.222 1.11.42 2.18.595 3.21l1.971-.334c-.177-1.05-.38-2.14-.605-3.27l-1.961.393zm.599 3.232c.175.91.35 1.842.526 2.8l1.967-.361a307.28 307.28 0 0 0-.53-2.817l-1.963.378zm.529 2.815c.193.963.361 1.784.507 2.461l1.955-.418a185.8 185.8 0 0 1-.5-2.435l-1.962.392zm2.465 2.448c.065-.323.137-.693.217-1.111l-1.964-.378c-.08.414-.15.78-.214 1.097l1.961.392zm.219-1.118c.078-.425.165-.866.26-1.323l-1.959-.406c-.097.47-.186.926-.268 1.365l1.967.364zm.26-1.323c.098-.475.188-.95.27-1.425l-1.971-.34c-.078.453-.164.906-.258 1.36l1.959.405zm.265-1.399c.096-.478.191-.948.287-1.41l-1.959-.405c-.096.467-.193.94-.29 1.423l1.962.392zm.285-1.401c.224-1.04.456-2.111.696-3.215L51.4 5.148c-.24 1.104-.472 2.177-.696 3.217l1.955.422zm-.16-2.434l2.928-.36-.243-1.986-2.928.36.243 1.986zm1.83-1.57a230.09 230.09 0 0 0-1.446 6.99l1.965.373c.414-2.18.892-4.49 1.434-6.93l-1.953-.433zm-1.443 6.978c-.193.946-.385 1.908-.578 2.886l1.963.386c.191-.974.383-1.932.574-2.874l-1.96-.398zm-.58 2.899c-.176.961-.345 1.89-.505 2.788l1.969.352c.16-.895.327-1.821.503-2.78l-1.967-.36zm-.504 2.785c-.162.89-.3 1.726-.414 2.507l1.979.288c.11-.755.244-1.567.402-2.437l-1.967-.358zm-.414 2.504a84.535 84.535 0 0 0-.267 1.919l1.985.248c.063-.502.15-1.125.26-1.873l-1.978-.294zm.726 1.043c-.105 0-.201.017-.228.021a4.045 4.045 0 0 0-.157.03c-.11.023-.252.055-.423.096l.463 1.946a13.935 13.935 0 0 1 .446-.1c.006 0 .002 0-.008.002-.004 0-.041.005-.093.005v-2zm-.773.14c-.328.065-.712.147-1.148.244l.433 1.952c.428-.095.797-.173 1.108-.235l-.393-1.962zm-1.156.246c-.414.095-.835.19-1.264.286l.433 1.952c.435-.096.862-.193 1.28-.29l-.45-1.948zm-1.272.288c-.429.099-.796.199-1.07.305l.717 1.866a6.64 6.64 0 0 1 .802-.223l-.45-1.948zm.286 1.163c-.097-1.286-.201-2.51-.314-3.67l-1.99.194c.11 1.144.214 2.352.31 3.626l1.994-.15zm-.314-3.67a55.896 55.896 0 0 0-.171-1.539l-1.985.248c.063.503.118.998.165 1.484l1.99-.192zm-.168-1.505c-.049-.541-.106-1.06-.172-1.554l-1.983.264c.062.465.117.955.164 1.47l1.991-.18zm-.172-1.554c-.065-.486-.13-.94-.195-1.364l-1.977.304c.063.409.126.85.19 1.324l1.982-.264zm-.195-1.364a21.264 21.264 0 0 0-.202-1.134l-1.957.412c.06.281.12.622.182 1.026l1.977-.304zm-2.168-1.084c-.046.287-.107.625-.185 1.016l1.961.392c.082-.41.149-.775.2-1.096l-1.976-.312zm-.185 1.016c-.082.407-.163.838-.244 1.292l1.969.352c.079-.442.158-.86.236-1.252l-1.961-.392zm-.244 1.292c-.081.454-.162.932-.243 1.433l1.975.318c.079-.49.158-.957.237-1.4l-1.969-.35zm-.242 1.428c-.078.465-.163.914-.255 1.346l1.955.42c.1-.464.19-.943.273-1.438l-1.973-.328zm-.26 1.365c-.206 1.069-.43 2.185-.669 3.35l1.959.402c.24-1.171.465-2.295.674-3.37l-1.963-.382zm.084 2.577l-3.504.816.453 1.948 3.504-.816-.453-1.948zm7.646 1.718l-.98-.196-.297 1.483 1.48-.308-.203-.979zm1.296-6.552l.981.192.002-.01.002-.01-.985-.172zm.504-2.832l.984.178v-.003l-.984-.175zm.48-2.928l-.986-.164-.002.008v.008l.988.148zm.432-2.784l-.988-.156v.007l-.002.008.99.141zm.336-2.472l.043-1-.936-.04-.101.932.994.108zm1.008.072l-.105.995.028.002.027.002.05-.999zm.936.048l-.053.999.053-.999zm.912.048l-.052.999.026.001h.026v-1zm1.032 0l.973.233.295-1.233h-1.268v1zm-.816 3.408l-.972-.233-.003.013.975.22zm-.72 3.432l-.982-.19-.26 1.334 1.352-.15-.11-.994zm2.376-.264l.11.994.73-.081.141-.72-.98-.193zm.6-3.288l.986.164v-.002l-.986-.162zm.696-3.312l-.171-.985-.639.11-.16.63.97.245zm1.224-.144l.071.997h.018l.018-.003-.107-.994zm1.248-.12l.083.997-.083-.997zm.96-.072l.062.998.028-.002.027-.003-.117-.993zm.408-.048l.955.297.457-1.47-1.529.18.117.993zm-.648 2.376l-.972-.234-.003.013.975.221zm-.576 2.664l.979.206v-.003l-.979-.203zm-.552 2.784l.983.183-.983-.183zm-.48 2.688l.985.17v-.003l-.985-.167zm-.984 6.24l.115.993.766-.088.109-.764-.99-.141zm-3.744.432l-.977-.212-.296 1.366 1.388-.16-.115-.994zm.552-2.808l-.979-.204-.003.016-.003.015.985.173zm.48-2.4l-.978-.207-.002.01-.002.008.982.189zm.408-2.136l.987.16.207-1.275-1.286.12.092.995zm-2.328.216l-.092-.996-.754.07-.137.745.983.181zm-.408 2.112l-.98-.196-.002.01-.002.009.984.177zm-.408 2.28l.98.2.002-.013.003-.012-.985-.175zm-.528 2.592l.203.98.645-.135.132-.645-.98-.2zm-2.715.964c.448-2.241.88-4.427 1.296-6.556l-1.962-.384c-.416 2.127-.848 4.31-1.295 6.548l1.96.392zm1.3-6.575c.16-.91.328-1.853.503-2.828l-1.968-.354c-.176.977-.345 1.922-.505 2.836l1.97.346zm.504-2.83c.177-1 .339-1.986.484-2.955l-1.978-.296c-.142.95-.301 1.918-.476 2.901l1.97.35zm.482-2.939c.16-.967.306-1.902.435-2.807l-1.98-.282c-.127.887-.27 1.808-.428 2.76l1.973.33zm.433-2.792c.146-.924.26-1.765.342-2.52l-1.988-.216a51.063 51.063 0 0 1-.33 2.424l1.976.312zm-.695-1.629c.351.015.666.038.946.067l.21-1.989a17.55 17.55 0 0 0-1.07-.076l-.086 1.998zm1.001.072l.933.048.106-1.998-.939-.048-.1 1.998zm.933.048l.913.048.105-1.998-.912-.048L57.92 6.6zm.965.049H59.917v-2h-.002-.007-.002-.002-.002-.002-.005-.002-.002-.002-.002-.002-.005-.002-.002-.002-.002-.007-.002-.002-.002-.002-.007-.002-.002-.002-.002-.002-.007-.002-.002-.002-.002H59.816h-.002-.002-.002-.002-.007-.002-.002-.002-.002-.002-.007-.002-.002-.002-.002-.002-.007-.002-.002-.002-.002-.002-.002-.007-.002-.002-.002-.002-.002-.002-.005-.002-.002-.002-.002-.002-.002-.002H59.708h-.002-.002-.002-.002-.002-.002H59.687h-.002-.002-.002-.002-.002-.002H59.666h-.002-.002-.002-.002-.002-.002-.002-.011-.002-.002-.002-.002-.002-.002-.002H59.618h-.002-.002-.002-.002-.002-.002-.002-.002-.002-.011-.002-.002-.002-.002-.002-.002-.002-.002-.002-.002H59.56h-.002-.002-.002-.002-.002-.002-.002-.002-.002-.002-.002-.002H59.523h-.002-.002-.002-.002-.002-.002-.002-.002-.002-.002-.002-.002-.002-.002-.011-.002-.002-.002-.002-.002-.002-.002-.002-.002-.002-.002-.002-.002-.002-.002-.002-.002-.002-.002-.002-.002-.019-.002-.002-.002-.002-.002-.002-.002-.002-.002-.002-.002-.002-.002-.002-.002-.002-.002-.002-.002-.002-.002-.002-.002-.002-.002-.002-.002-.002-.002-.002-.002-.002-.002-.002-.002-.002-.002-.002-.002-.002-.002-.002-.002-.002-.002-.002-.002-.002-.002-.002-.002-.002-.002-.002-.002-.002-.002-.002-.002-.002-.002-.002-.002-.002-.002-.002-.002-.002-.002-.002-.002-.002-.002-.002-.002-.002-.002-.002-.002-.002-.002-.002-.002-.002-.002-.002-.002-.002-.002-.002-.002-.002-.002-.002-.002-.002-.002-.002-.002H59.214h-.002-.002-.002-.002-.002-.002-.002-.002-.002-.002-.002-.002-.002-.002-.002-.002-.002-.002-.002-.002-.002-.002-.007-.002-.002-.002-.002-.002-.002-.002-.002-.002-.002-.002-.002-.002-.002-.002-.002-.007-.002-.002-.002-.002-.002-.002-.002-.002-.002-.002-.002-.002-.002-.005-.002-.002-.002-.002-.002-.002-.002-.002-.002-.002-.002-.002-.005-.002-.002-.002-.002-.002-.002-.002-.002-.002-.002-.005-.002-.002-.002-.002-.002-.002-.002-.002-.002-.005-.002-.002-.002-.002-.002-.002-.002H59h-.005-.002-.002-.002-.002-.002-.002-.002-.002-.003-.002-.002-.002-.002-.002-.002-.002-.002-.003-.002-.002-.002-.002-.002-.002-.002-.005-.002-.002-.002-.002-.002-.002-.005-.002-.002-.002-.002-.002-.002-.003-.002-.002-.002-.002-.002-.002-.003-.002-.002-.002v2zm.06-1.233l-.816 3.408 1.945.466.816-3.408-1.945-.466zm-.82 3.421c-.258 1.146-.5 2.3-.726 3.461l1.964.382c.222-1.143.46-2.277.714-3.403l-1.951-.44zm.367 4.646l2.376-.264-.221-1.988-2.376.264.22 1.988zm3.246-1.064c.226-1.145.428-2.251.605-3.318l-1.972-.328a112.584 112.584 0 0 1-.595 3.258l1.962.388zm.606-3.32c.17-1.042.397-2.118.678-3.228l-1.938-.492a40.59 40.59 0 0 0-.714 3.396l1.974.324zm-.12-2.489c.33-.057.703-.101 1.124-.132l-.142-1.994c-.475.033-.917.085-1.324.156l.342 1.97zm1.16-.135c.441-.047.85-.086 1.224-.117l-.166-1.994c-.393.033-.817.074-1.271.123l.213 1.988zm1.224-.117c.38-.032.693-.056.94-.07l-.125-1.997c-.266.017-.593.041-.981.073l.166 1.994zm.994-.076h.008l.001-.001h.008l.002-.001h.006l.002-.001h.007l.002-.001h.006l.001-.001h.008l.001-.001h.008l.001-.001h.003a.076.076 0 0 1 .003 0h.002v-.001h.005a.31.31 0 0 1 .003 0l.002-.001a.03.03 0 0 1 .002 0h.005l.001-.001h.007a.058.058 0 0 0 .003-.001h.005l.002-.001h.007l.001-.001h.007l.001-.001h.008l.001-.001h.007a.05.05 0 0 1 .005-.001h.004l.001-.001h.007v-.001h.008l.002-.001h.007l.001-.001h.007l.002-.001h.007v-.001H65.799l.001-.001h.006l.002-.001h.004a.049.049 0 0 1 .003 0l.002-.001h.007l.002-.001h.007l.001-.001h.007l.001-.001h.008v-.001a.028.028 0 0 0 .002 0h.006l.001-.001h.008l.001-.001h.007l.001-.001h.008v-.001h.008l.001-.001h.008v-.001a.017.017 0 0 0 .002 0h.007v-.001h.007l.001-.001h.008l.001-.001h.007l.002-.001h.008V6.24h.007l.001-.001h.003a.012.012 0 0 0 .002 0h.002a.012.012 0 0 1 .002 0v-.001h.008v-.001h.008v-.001H65.986v-.001h.008l.001-.001h.008v-.001h.007l-.116-.994-.117-.993h-.001-.002-.001-.001-.001-.001-.001-.001v.001h-.001-.001-.001-.001-.001-.001-.002v.001h-.001-.001-.001-.001-.002-.002-.001v.001h-.001-.001-.002-.001-.001-.002v.001h-.001-.001-.001-.001-.001-.001-.001-.001l-.001.001h-.001-.003-.001-.001-.002v.001h-.001-.001-.002-.001-.002-.001l-.001.001h-.001-.001-.002-.002-.002l-.001.001h-.001-.001a.012.012 0 0 1-.001 0h-.002-.002l-.001.001h-.002a.014.014 0 0 1-.001 0h-.001-.003-.001v.001h-.004-.003-.001-.001v.001h-.002-.003-.001-.003v.001h-.001-.003a.02.02 0 0 0-.001 0h-.003v.001h-.001-.001-.003a.028.028 0 0 0-.003 0l-.001.001h-.003-.001-.001-.001-.001-.001v.001h-.004-.001-.001-.001-.001l-.001.001h-.007a.028.028 0 0 1-.003.001h-.001-.001-.001-.001-.001-.001l-.001.001h-.001a.028.028 0 0 1-.002 0h-.001a.028.028 0 0 1-.002 0h-.001a.028.028 0 0 1-.003.001h-.001-.001-.001-.001-.001-.001l-.001.001h-.001-.001-.001-.002-.002l-.002.001h-.004-.001-.001-.001l-.001.001h-.001a.035.035 0 0 0-.002 0h-.004l-.002.001h-.001-.001-.001-.001-.002l-.002.001h-.001-.001-.001-.001-.004l-.001.001h-.001-.001-.004-.001l-.001.001h-.001-.001-.002a.049.049 0 0 0-.003 0l-.001.001h-.004-.001-.001-.002v.001h-.002-.001-.004-.001l-.002.001h-.002-.001-.004l-.001.001h-.004-.001-.002-.001l-.001.001h-.003-.001-.001-.002l-.001.001h-.001-.004-.002l-.002.001h-.004-.002l-.002.001h-.004-.002-.001l-.001.001h-.002-.001-.001-.002-.001-.002l-.001.001h-.001-.002-.001-.003l-.001.001h-.002-.001-.002-.001-.001l-.002.001h-.001-.002-.001-.002-.001l-.001.001h-.002-.001-.002-.001l-.002.001h-.001-.002-.001-.003l-.001.001h-.002-.001-.002-.001-.002l-.001.001h-.002-.001-.002-.001-.002l-.001.001h-.002-.001-.002-.001l-.002.001h-.003-.002-.001-.002l-.001.001h-.002-.001-.002-.001l-.002.001h-.002-.001-.002-.001-.002l-.001.001h-.002-.002-.001-.002l.234 1.987zm-.664-1.338a38.899 38.899 0 0 0-.665 2.439l1.944.468a36.89 36.89 0 0 1 .63-2.313l-1.909-.594zm-.668 2.452c-.194.855-.387 1.749-.58 2.682l1.958.406c.191-.923.382-1.805.572-2.646l-1.95-.442zm-.58 2.679c-.193.92-.379 1.855-.556 2.807l1.966.366c.175-.936.357-1.857.548-2.761l-1.957-.412zm-.556 2.807c-.177.948-.338 1.85-.483 2.704l1.972.334c.143-.842.302-1.732.477-2.672l-1.966-.366zm-.482 2.7a214.635 214.635 0 0 0-.989 6.27l1.98.282c.303-2.118.63-4.188.98-6.21l-1.971-.342zM62.538 21l-3.744.432.23 1.986 3.744-.432-.23-1.986zm-2.652 1.637c.211-.972.398-1.921.56-2.847l-1.97-.346a71.094 71.094 0 0 1-.544 2.77l1.954.423zm.554-2.816c.161-.773.322-1.579.483-2.415l-1.964-.378c-.159.828-.318 1.622-.477 2.385l1.958.408zm.48-2.397c.177-.842.317-1.57.416-2.183l-1.974-.32a45.63 45.63 0 0 1-.4 2.089l1.957.414zm-.663-3.339l-2.328.216.184 1.992 2.328-.216-.184-1.992zm-3.22 1.03c-.11.603-.245 1.301-.404 2.098l1.96.392c.161-.803.298-1.513.411-2.127l-1.966-.362zm-.408 2.117l-.408 2.282 1.969.35c.128-.72.263-1.479.407-2.278l-1.968-.354zm-.404 2.257v.006l-.002.005v.005l-.002.005-.001.005-.001.005-.001.005-.001.005-.001.005-.001.005-.001.005-.001.005-.001.005-.001.005-.001.005-.001.005-.001.006-.001.005-.001.005-.001.005-.002.005v.005l-.002.005v.005l-.002.005v.005l-.002.005v.005l-.002.005v.005l-.002.005v.005l-.002.006v.005l-.002.005v.005l-.002.005-.001.005-.001.005-.001.005-.001.005-.001.005-.001.005-.001.005-.001.005-.001.005-.001.005-.001.005-.001.005-.001.005-.001.006-.001.005-.002.005v.005l-.002.005v.005l-.002.005v.005l-.002.005v.005l-.002.005v.005l-.002.005v.005l-.002.005v.006l-.002.005v.005l-.002.005-.001.005-.001.005-.001.005-.001.005-.001.005-.001.005-.001.005-.001.005-.001.005-.001.005-.001.005-.001.005-.001.006-.001.005-.001.005-.002.005v.005l-.002.005v.005l-.002.005v.005l-.002.005v.005l-.002.005v.005l-.002.005v.005l-.002.006v.005l-.002.005v.005L56.12 20l-.001.005-.001.005-.001.005-.001.005-.001.005-.001.005-.001.005-.001.005-.001.005-.001.005-.001.005-.001.006-.001.005-.001.005-.001.005-.002.005v.005l-.002.005v.005l-.002.005v.005l-.002.005v.005l-.002.005v.005l-.002.005v.005l-.002.006v.005l-.002.005v.005l-.002.005-.001.005-.001.005-.001.005-.001.005-.001.005-.001.005-.001.005-.001.005-.001.005-.001.005-.001.005-.001.006-.001.005-.001.005-.001.005-.002.005v.005l-.002.005v.005l-.002.005v.005l-.002.005v.005l-.002.005v.005l-.002.005v.005l-.002.006v.005l-.002.005v.005l-.002.005-.001.005-.001.005-.001.005-.001.005-.001.005-.001.005-.001.005-.001.005-.001.005-.001.005-.001.005-.001.005-.001.006-.001.005-.001.005-.002.005v.005l-.002.005v.005l-.002.005v.005l-.002.005v.005l-.002.005v.005l-.002.005v.005l-.002.005v.006l-.002.005v.005l-.002.005-.001.005-.001.005-.001.005-.001.005-.001.005-.001.005-.001.005-.001.005-.001.005-.001.005-.001.005-.001.006-.001.005-.001.005-.001.005-.002.005v.005l-.002.005v.005l-.002.005v.005l-.002.005v.005l-.002.005v.005l-.002.005v.005l-.002.006v.005l-.002.005v.005l-.002.005-.001.005-.001.005-.001.005-.001.005-.001.005-.001.005-.001.005-.001.005-.001.005-.001.005-.001.005-.001.006-.001.005-.001.005-.001.005-.002.005v.005l-.002.005v.005l-.002.005v.005l-.002.005v.005l-.002.005v.005l-.002.005v.005l-.002.006v.005l-.002.005v.005l-.002.005-.001.005-.001.005-.001.005-.001.005-.001.005-.001.005-.001.005-.001.005-.001.005-.001.005-.001.005-.001.006-.001.005-.001.005-.001.005-.002.005v.005l-.002.005v.005l-.002.005v.005l-.002.005v.005l-.002.005v.005l-.002.005v.005l-.002.005v.005l-.002.006v.005l-.002.005-.001.005-.001.005-.001.005-.001.005-.001.005-.001.005-.001.005-.001.005-.001.005-.001.005-.001.005-.001.005-.001.006-.001.005-.001.005-.002.005v.005l-.002.005v.005l-.002.005v.005l-.002.005v.005l-.002.005v.005l-.002.005v.005l-.002.005v.006l-.002.005v.005l-.002.005-.001.005-.001.005-.001.005-.001.005-.001.005-.001.005-.001.005-.001.005-.001.005-.001.005-.001.005-.001.006-.001.005-.001.005-.001.005-.002.005v.005l-.002.005v.005l-.002.005v.005l-.002.005v.005l-.002.005v.005l-.002.005v.005l-.002.006v.005l-.002.005v.005l-.002.005-.001.005-.001.005-.001.005-.001.005-.001.005-.001.005-.001.005-.001.005-.001.005-.001.005-.001.005-.001.006-.001.005-.001.005-.001.005-.002.005v.005l-.002.005v.005l-.002.005v.005l-.002.005v.005l-.002.005v.005l-.002.005v.005l-.002.006v.005l-.002.005v.005l-.002.005-.001.005-.001.005-.001.005-.001.005-.001.005-.001.005-.001.005-.001.005-.001.005-.001.005-.001.005-.001.005-.001.005-.001.006-.001.005-.002.005v.005l-.002.005v.005l-.002.005v.005l-.002.005v.005l-.002.005v.005l-.002.005v.005l-.002.005v.006l-.002.005v.005l-.002.005-.001.005-.001.005-.001.005-.001.005-.001.005-.001.005-.001.005-.001.005-.001.005-.001.005-.001.005-.001.005-.001.006-.001.005-.001.005-.002.005v.005l-.002.005v.005l-.002.005v.005l-.002.005v.005l-.002.005v.005l-.002.005v.005l-.002.006v.005l-.002.005v.005l-.002.005-.001.005-.001.005-.001.005-.001.005-.001.005-.001.005-.001.005-.001.005-.001.005-.001.005-.001.005-.001.006-.001.005-.001.005-.001.005-.002.005v.005l-.002.005v.005l-.002.005v.005l-.002.005v.005l-.002.005v.005l-.002.005v.005l-.002.006v.005l-.002.005v.005l-.002.005-.001.005-.001.005-.001.005-.001.005-.001.005-.001.005-.001.005-.001.005-.001.005-.001.005-.001.005-.001.006-.001.005-.001.005-.001.005-.002.005v.005l-.002.005v.005l-.002.005v.005l-.002.005v.005l-.002.005v.005l-.002.005v.005l1.959.4.001-.006.001-.005.001-.005.001-.005.001-.005.001-.005.001-.005.001-.005.001-.005.001-.005.001-.005.001-.005.001-.005.001-.005.001-.005.001-.005.002-.006v-.005l.002-.005v-.005l.002-.005v-.005l.002-.005v-.005l.002-.005v-.005l.002-.005v-.005l.002-.005v-.005l.002-.005v-.005l.002-.006.001-.005.001-.005.001-.005.001-.005.001-.005.001-.005.001-.005.001-.005.001-.005.001-.005.001-.005.001-.005.001-.005.001-.005.001-.005.002-.005v-.005l.002-.006v-.005l.002-.005v-.005l.002-.005v-.005l.002-.005v-.005l.002-.005v-.005l.002-.005v-.005l.002-.005v-.005l.002-.005.001-.006.001-.005.001-.005.001-.005.001-.005.001-.005.001-.005.001-.005.001-.005.001-.005.001-.005.001-.005.001-.005.001-.005.001-.005.002-.005v-.006l.002-.005v-.005l.002-.005v-.005l.002-.005v-.005l.002-.005v-.005l.002-.005v-.005l.002-.005v-.005l.002-.005v-.005l.002-.006.001-.005.001-.005.001-.005.001-.005.001-.005.001-.005.001-.005.001-.005.001-.005.001-.005.001-.005.001-.005.001-.005.001-.005.001-.005.002-.006v-.005l.002-.005v-.005l.002-.005v-.005l.002-.005v-.005l.002-.005v-.005l.002-.005v-.005l.002-.005v-.005l.002-.005v-.005l.002-.006.001-.005.001-.005.001-.005.001-.005.001-.005.001-.005.001-.005.001-.005.001-.005.001-.005.001-.005.001-.005.001-.005.001-.005.001-.005.002-.006v-.005l.002-.005v-.005l.002-.005v-.005l.002-.005v-.005l.002-.005V21.7l.002-.005v-.005l.002-.005v-.005l.002-.005v-.005l.002-.006.001-.005.001-.005.001-.005.001-.005.001-.005.001-.005.001-.005.001-.005.001-.005.001-.005.001-.005.001-.005.001-.005.001-.005.001-.005.002-.005v-.006l.002-.005v-.005l.002-.005v-.005l.002-.005v-.005l.002-.005v-.005l.002-.005v-.005l.002-.005v-.005l.002-.005v-.005l.002-.005.001-.006.001-.005.001-.005.001-.005.001-.005.001-.005.001-.005.001-.005.001-.005.001-.005.001-.005.001-.005.001-.005.001-.005.001-.005.002-.005v-.006l.002-.005v-.005l.002-.005v-.005l.002-.005v-.005l.002-.005v-.005l.002-.005v-.005l.002-.005v-.005l.002-.005v-.005l.002-.006.001-.005.001-.005.001-.005.001-.005.001-.005.001-.005.001-.005.001-.005.001-.005.001-.005.001-.005.001-.005.001-.005.001-.005.001-.005.002-.006v-.005l.002-.005v-.005l.002-.005v-.005l.002-.005v-.005l.002-.005v-.005l.002-.005v-.005l.002-.005v-.005l.002-.005v-.005l.002-.006.001-.005.001-.005.001-.005.001-.005.001-.005.001-.005.001-.005.001-.005.001-.005.001-.005.001-.005.001-.005.001-.005.001-.005.001-.005.002-.006v-.005l.002-.005v-.005l.002-.005v-.005l.002-.005v-.005l.002-.005v-.005l.002-.005v-.005l.002-.005v-.005l.002-.005v-.005l.002-.005.001-.005.001-.006.001-.005.001-.005.001-.005.001-.005.001-.005.001-.005.001-.005.001-.005.001-.005.001-.005.001-.005.001-.005.001-.005.002-.005v-.006l.002-.005v-.005l.002-.005v-.005l.002-.005V20.9l.002-.005v-.005l.002-.005v-.005l.002-.005v-.005l.002-.005v-.005l.002-.005.001-.006.001-.005.001-.005.001-.005.001-.005.001-.005.001-.005.001-.005.001-.005.001-.005.001-.005.001-.005.001-.005.001-.005.001-.005.002-.006v-.005l.002-.005v-.005l.002-.005v-.005l.002-.005v-.005l.002-.005v-.005l.002-.005v-.005l.002-.005v-.005l.002-.005v-.005l.002-.006.001-.005.001-.005.001-.005.001-.005.001-.005.001-.005.001-.005.001-.005.001-.005.001-.005.001-.005.001-.005.001-.005.001-.005.001-.005.002-.006v-.005l.002-.005v-.005l.002-.005v-.005l.002-.005v-.005l.002-.005v-.005l.002-.005v-.005l.002-.005v-.005l.002-.005v-.005l.002-.006.001-.005.001-.005.001-.005.001-.005.001-.005.001-.005.001-.005.001-.005.001-.005.001-.005.001-.005.001-.005.001-.005.001-.005.001-.005.002-.005v-.005l.002-.006v-.005l.002-.005v-.005l.002-.005v-.005l.002-.005v-.005l.002-.005v-.005l.002-.005v-.005l.002-.005v-.005l.002-.005.001-.006.001-.005.001-.005.001-.005.001-.005.001-.005.001-.005.001-.005.001-.005.001-.005.001-.005.001-.005.001-.005.001-.005.001-.005.002-.005v-.006l.002-.005v-.005l.002-.005v-.005l.002-.005v-.005l.002-.005v-.005l.002-.005v-.005l.002-.005v-.005l.002-.005v-.005l.002-.006.001-.005.001-.005.001-.005.001-.005.001-.005.001-.005.001-.005.001-.005.001-.005.001-.005.001-.005.001-.005.001-.005.001-.005.001-.005.002-.006v-.005l.002-.005v-.005l.002-.005V20.1l.002-.005v-.005l.002-.005v-.005l.002-.005v-.005l.002-.005v-.005l.002-.005v-.005l.002-.006.001-.005.001-.005.001-.005.001-.005.001-.005.001-.005.001-.005.001-.005.001-.005.001-.005.001-.005.001-.005.001-.005.001-.005.001-.005.002-.006v-.005l.002-.005v-.005l.002-.005v-.005l.002-.005v-.005l.002-.005v-.005l.002-.005v-.005l.002-.005v-.005l.002-.005v-.005l-1.959-.4zm.249 1.813l-3.696.768.407 1.958 3.695-.768-.406-1.958zm16.893-2.981l.97.238.003-.007.001-.008-.974-.223zm-.96 2.328l-.839-.545-.004.007-.005.008.848.53zm-1.44 1.584l-.597-.803-.01.009.607.794zm-1.752.912l.294.956-.294-.956zm-3 .096l.316-.949-.018-.006-.018-.005-.28.96zm-1.032-.528l-.62.785.62-.785zm-.768-.912l-.887.463.008.014.008.015.87-.492zm-.264-1.68l.97.242.018-.071.007-.074-.995-.097zm.768-5.28l.987.157-.987-.157zm.528-3.024l.982.187V12l-.982-.184zm.504-2.784l-.982-.189-.002.01-.001.008.985.171zm.408-2.064l.98.202v-.006l-.98-.196zm.216-1.032l-.095-.995-.704.067-.171.685.97.243zm1.2-.12l.103.995-.103-.995zm1.296-.12l.08.997h.008l.008-.002-.096-.995zm1.464-.144l.978.21.288-1.342-1.366.137.1.995zm-1.104 5.256l.978.21.002-.01-.98-.2zm-.432 2.016l-.978-.21-.002.012-.003.01.983.188zm-.384 1.848l-.975-.223-.003.014-.003.013.98.196zm-.312 1.464l-.975-.225-.003.014-.003.015.98.196zm-.216.984l-.97-.242-.008.028-.005.03.983.184zm-.192.984l-.98-.196-.004.016-.003.016.987.164zm.096 1.704l-.809.588.014.019.014.018.78-.625zm1.152-.072l.763.646.012-.014.011-.014-.786-.618zm.432-.792l-.922-.388-.009.02-.008.022.939.346zm.264-.912l-.98-.196-.005.02-.003.02.988.156zm.168-.744l.965.263.008-.03.006-.03-.98-.203zm.312-1.536l-.976-.217-.003.01-.002.01.98.197zm.36-1.776l-.98-.2-.002.009-.002.01.984.181zm.36-1.896l-.98-.196-.003.012-.002.012.985.172zm.36-1.872l-.982-.19-.002.009.984.181zm.792-4.368l-.066-.998-.787.052-.133.778.986.168zm3.648-.24l.982.189.244-1.272-1.292.085.066.998zm-.12.624l-.982-.189.982.189zm-.312 1.656l.983.183-.983-.183zm-.432 2.352l-.984-.179-.002.009-.001.008.987.162zm-.504 2.76l.98.2v-.004l-.98-.196zm-.576 2.808l-.98-.203-.002.014.982.189zm-1.5 2.281c-.203.828-.484 1.495-.827 2.022l1.677 1.09c.49-.753.848-1.638 1.093-2.635l-1.942-.477zm-.836 2.037c-.34.543-.737.976-1.188 1.311l1.192 1.606a6.724 6.724 0 0 0 1.692-1.857l-1.696-1.06zm-1.2 1.32a4.561 4.561 0 0 1-1.438.75l.588 1.912a6.564 6.564 0 0 0 2.065-1.074l-1.215-1.588zm-1.438.75a5.334 5.334 0 0 1-1.578.244v2c.728 0 1.451-.112 2.166-.332l-.588-1.912zm-1.578.244c-.25 0-.52-.043-.812-.14l-.632 1.897c.475.158.958.243 1.444.243v-2zm-.848-.152a2.006 2.006 0 0 1-.693-.353l-1.239 1.57c.408.322.868.556 1.372.703l.56-1.92zm-.693-.353a2.068 2.068 0 0 1-.517-.62l-1.74.985c.265.47.603.877 1.018 1.205l1.24-1.57zm-.5-.59c-.105-.2-.175-.467-.175-.833h-2c0 .626.121 1.222.401 1.759l1.773-.926zm-.175-.833v-.001-.001-.001-.001-.001-.001-.001-.001-.001-.001-.001-.001-.001-.001-.001-.001-.001-.001-.001-.001-.001-.001-.001-.001-.001-.001-.001-.001-.001-.001-.001-.001-.001-.001-.001-.001-.001-.001-.001-.001-.001-.001-.001-.001-.001-.001-.001-.001-.001-.001-.001-.001-.001-.001-.001-.001-.001-.001-.001-.001-.001-.001-.001-.001-.001-.001-.001-.001-.001-.001-.001-.001-.001-.001-.001-.001-.001-.001-.001-.001-.001-.001-.001-.001-.001-.001-.001-.001-.001-.001-.001-.001-.001-.001-.001-.001-.001-.001-.001-.001-.001-.001-.001-.001-.001-.001-.001-.001-.001-.001-.001-.001-.001-.001-.001-.001-.001-.001-.001-.001-.001-.001-.001-.001-.001-.001-.001-.001-.001-.001-.001-.001-.001-.001-.001-.001-.001-.001-.001-.001-.001-.001-.001-.001-.001-.001-.001-.001-.001-.001-.001-.001-.001-.001-.001-.001-.001-.001-.001-.001-.001-.001-.001-.001-.001-.001-.001-.001-.001-.001-.001-.001-.001-.001-.001-.001-.001-.001-.001-.001-.001-.001-.001-.001-.001-.001-.001-.001-.001-.001-.001-.001h-2V20.505h2zm0-.192c0 .02-.003.038-.006.05l-1.94-.484a1.79 1.79 0 0 0-.054.434h2zm.02-.095c.06-.631.162-1.403.304-2.32l-1.976-.306c-.146.94-.253 1.751-.32 2.432l1.991.194zm.304-2.32c.144-.926.296-1.893.455-2.9l-1.975-.314c-.16 1.01-.312 1.978-.456 2.908l1.976.306zm.455-2.9c.159-.998.333-1.996.523-2.994l-1.965-.374a100.605 100.605 0 0 0-.533 3.054l1.975.314zM66.43 12c.192-1.027.361-1.96.506-2.797l-1.97-.342c-.144.827-.31 1.75-.502 2.77l1.966.37zm.503-2.78c.16-.829.294-1.512.405-2.05l-1.959-.404c-.113.55-.25 1.243-.41 2.077l1.964.378zm.406-2.056c.114-.57.181-.886.206-.985l-1.94-.486c-.04.157-.117.529-.227 1.079l1.961.392zm-.67-.233c.34-.032.743-.072 1.209-.12l-.206-1.99c-.462.048-.86.088-1.192.12l.19 1.99zm1.209-.12c.457-.048.881-.087 1.273-.118l-.16-1.994c-.409.033-.849.074-1.32.122l.207 1.99zm1.29-.12l1.466-.144-.199-1.99-1.46.144.192 1.99zm.39-1.35a525.975 525.975 0 0 0-1.107 5.267l1.96.4c.319-1.564.686-3.313 1.102-5.246l-1.956-.42zm-1.105 5.257l-.432 2.016 1.956.42.432-2.017-1.956-.418zm-.437 2.039a51.283 51.283 0 0 1-.376 1.812l1.95.446a53.21 53.21 0 0 0 .391-1.884l-1.965-.374zm-.382 1.839c-.11.553-.212 1.031-.306 1.435l1.95.45c.098-.428.204-.926.317-1.493l-1.96-.392zm-.312 1.464a21.05 21.05 0 0 1-.205.938l1.94.485c.07-.278.145-.623.226-1.03l-1.96-.393zm-.218.996c-.047.25-.11.574-.19.972l1.961.392c.08-.402.146-.734.195-.996l-1.966-.368zm-.196 1.004c-.07.427-.11.835-.11 1.22h2c0-.255.026-.55.083-.892l-1.973-.328zm-.11 1.22c0 .429.11.86.384 1.236L68.8 19.22a.062.062 0 0 1 .006.009c.001.002.001.003 0 0a.264.264 0 0 1-.006-.069h-2zm.412 1.273a1.59 1.59 0 0 0 1.26.615v-2a.42.42 0 0 1 .302.135l-1.562 1.25zm1.26.615a1.84 1.84 0 0 0 1.436-.666L68.38 19.09c-.002.003 0 0 .008-.006a.182.182 0 0 1 .074-.034l.01-.002v2zm1.46-.694c.248-.317.44-.675.583-1.064l-1.877-.692c-.08.22-.176.389-.28.52l1.573 1.236zm.566-1.022c.157-.373.27-.755.33-1.144l-1.975-.312a2.926 2.926 0 0 1-.198.68l1.843.776zm.323-1.104c.063-.312.114-.534.153-.677l-1.93-.526c-.057.209-.118.483-.184.81l1.961.393zm.167-.737c.097-.467.201-.981.313-1.543l-1.96-.392c-.112.558-.216 1.068-.311 1.53l1.958.405zm.309-1.522c.13-.588.253-1.192.367-1.812l-1.967-.362c-.11.596-.227 1.177-.352 1.74l1.952.434zm.363-1.792c.13-.634.252-1.275.366-1.925l-1.97-.344c-.11.63-.229 1.253-.355 1.867l1.96.402zm.361-1.9c.13-.646.25-1.275.363-1.888l-1.967-.362c-.11.603-.23 1.222-.357 1.857l1.961.392zm.362-1.88c.273-1.415.538-2.878.796-4.39l-1.972-.335a198.627 198.627 0 0 1-.788 4.346l1.964.38zm-.124-3.56l3.647-.24-.13-1.995-3.649.24.132 1.996zM75.838 5.6l-.982-.189v.004h-.001v.005h-.001v.005h-.001v.005h-.001v.005h-.001v.006h-.001v.005h-.001v.005l-.001.001v.004l-.001.001v.004h-.001v.005l-.001.002v.004h-.001v.004l-.001.002v.004l-.001.001v.004l-.001.001v.004l-.001.002v.004h-.001v.004l-.001.002v.004l-.001.001v.004l-.001.001v.004l-.001.001v.005l-.001.001v.003l-.001.002v.004h-.001v.005l-.001.001v.005l-.001.001v.003l-.001.002v.004l-.001.001v.004l-.001.001v.003l-.001.002v.004l-.001.002v.003l-.001.002v.003l-.001.002v.001a.252.252 0 0 0 0 .003l-.001.001v.004l-.001.001v.004l-.001.002v.004l-.001.001v.004l-.001.002v.002l-.001.002v.003l-.001.002v.005l-.001.001v.004l-.001.002v.003l-.001.001v.004l-.001.002v.003l-.001.001v.005l-.001.001v.003l-.001.002v.003l-.001.001v.005l-.001.002v.003l-.001.001v.004l-.001.001v.005l-.001.001v.004l-.001.001v.004l-.001.001v.003l-.001.002v.005l-.001.002v.003l-.001.002v.003l-.001.002v.003l-.001.002v.003l-.001.002v.004l-.001.001v.004l-.001.002v.003l-.001.002v.003l-.001.002v.004l-.001.001v.004l-.001.002v.002l-.001.002v.003l-.001.002v.004l-.001.002v.003l-.001.002a.755.755 0 0 0-.001.006v.002l-.001.001v.004l-.001.002v.004l-.001.002V5.8l-.001.002v.002l-.001.001v.004l-.001.002v.004l-.001.002v.002a.88.88 0 0 0-.001.004v.002l-.001.002v.004l-.001.002v.002l-.001.002v.004l-.001.002v.002l-.001.002v.004l-.001.002v.002l-.001.002v.005l-.001.002v.002l-.001.002v.004l-.001.002v.002l-.001.002v.005l-.001.002v.002l-.001.002v.004l-.001.002v.002l-.001.003v.002l-.001.002v.004l-.001.002v.003l-.001.002v.004l-.001.002v.003l-.001.002v.002l-.001.002v.005l-.001.002v.002l-.001.002v.003l-.001.002v.004l-.001.003v.002l-.001.002v.003l-.001.002v.002l-.001.002v.005l-.001.002v.003l-.001.002v.002l-.001.003v.002l-.001.002v.005l-.001.002v.003l-.001.002v.002l-.001.003v.002l-.001.003v.002l-.001.002v.005l-.001.003v.002l-.001.002v.003l-.001.002v.003l-.001.002 1.964.378V6.41v-.002l.001-.002v-.003l.001-.002v-.003l.001-.002v-.002l.001-.003V6.39v-.003l.001-.002v-.002l.001-.003v-.002l.001-.003v-.002l.001-.002v-.003l.001-.002v-.002-.003l.001-.002v-.002l.001-.003v-.002l.001-.002v-.003l.001-.002v-.002-.002l.001-.003v-.002l.001-.002V6.33l.001-.002v-.002l.001-.002V6.32 6.32l.001-.002v-.002l.001-.003V6.31l.001-.002v-.002-.002l.001-.003V6.3l.001-.002v-.002l.001-.002V6.29v-.002l.001-.002v-.002l.001-.002v-.003-.002l.001-.002v-.002l.001-.002v-.002-.002l.001-.003v-.002l.001-.002v-.002l.001-.002v-.002-.002l.001-.002v-.002l.001-.002v-.003-.002l.001-.002v-.002l.001-.002v-.002-.002l.001-.002v-.002l.001-.002v-.002-.002l.001-.002v-.002-.002l.001-.002V6.21l.001-.002v-.002-.002l.001-.002V6.2l.001-.002v-.002-.002l.001-.002V6.19v-.002l.001-.002v-.002l.001-.002v-.002-.002l.001-.002v-.002-.001l.001-.002V6.17v-.002l.001-.002v-.002l.001-.002V6.16v-.002l.001-.002v-.001-.002l.001-.002v-.002-.002l.001-.002v-.001l.001-.002V6.14v-.002l.001-.002v-.002-.001l.001-.002v-.002-.002l.001-.002v-.001-.002l.001-.002v-.002-.002l.001-.001v-.002-.002l.001-.002v-.001-.002l.001-.002v-.001V6.1l.001-.002a.591.591 0 0 0 0-.003l.001-.002v-.002-.001l.001-.002v-.002-.002l.001-.001v-.002-.002l.001-.001v-.002-.002l.001-.001v-.002-.001l.001-.002v-.002-.001-.002l.001-.002v-.001-.002l.001-.001v-.002-.002l.001-.001V6.05 6.05l.001-.002v-.002-.001-.002l.001-.001V6.04 6.04l.001-.002v-.001-.002-.001l.001-.002V6.03v-.002l.001-.001v-.002-.001l.001-.002v-.001-.002-.001l.001-.002v-.001-.002l.001-.001V6.01 6.01v-.002l.001-.001v-.001-.002-.001L76.78 6V6v-.002l.001-.001v-.001-.002-.001l.001-.002V5.99v-.001-.002l.001-.001v-.001-.002-.001l.001-.002v-.002-.002h.001v-.002-.002l.001-.002v-.001-.002l.001-.001v-.001-.002-.002l.001-.001v-.002-.001-.001l.001-.002V5.95 5.95l.001-.001v-.002-.002l.001-.001v-.002-.002l.001-.001v-.001-.002-.002l.001-.001v-.001-.001-.002h.001v-.002-.001-.001-.001l.001-.001V5.92v-.002h.001v-.002-.001-.001-.001l.001-.001v-.001-.002-.002h.001v-.002-.002-.001l.001-.001v-.001V5.9v-.001-.001l.001-.001v-.001-.001-.001-.001l.001-.001V5.89 5.89v-.001-.001l.001-.001v-.001-.001-.002l.001-.002v-.002-.001-.001l.001-.001v-.001-.001-.001l.001-.002v-.002-.001-.001l.001-.001v-.002-.001-.001l.001-.001v-.002-.001-.001-.001h.001v-.002-.001-.002h.001V5.85v-.001-.001-.001-.001h.001v-.001-.001-.002-.001l.001-.001v-.001-.001-.001-.002h.001v-.001-.001-.001-.001l.001-.001v-.002-.001-.001-.001h.001v-.001-.001-.001-.001-.001h.001v-.001-.001-.001-.001-.001h.001v-.001-.001-.001-.001-.001-.001h.001v-.001-.001-.001-.001l.001-.001v-.001-.001V5.8 5.8v-.001h.001v-.001-.001-.001-.001-.001h.001v-.001-.001-.001-.001-.001L75.84 5.6zm-1.102.435c-.08.419-.185.973-.313 1.662l1.966.366c.128-.687.231-1.237.31-1.65l-1.963-.378zm-.313 1.662c-.129.69-.273 1.475-.433 2.356l1.968.358c.16-.88.303-1.662.43-2.348l-1.965-.366zm-.436 2.373a78.56 78.56 0 0 1-.498 2.726l1.961.392c.195-.97.365-1.902.51-2.795l-1.973-.323zm-.497 2.723c-.192.943-.384 1.878-.575 2.804l1.958.406c.192-.93.385-1.867.577-2.812l-1.96-.398zm-.578 2.818a73.753 73.753 0 0 1-.52 2.486l1.948.446c.18-.78.358-1.632.536-2.553l-1.964-.38zM83.878 18.8l.899.437-.9-.437zm-1.105 1.536l.695.72.006-.007.007-.006-.707-.707zm-1.632 1.2l.484.875.008-.004-.492-.871zm-1.944.864l.317.949.013-.005-.33-.944zm-2.088.528l.158.988.009-.002.008-.001-.175-.985zm-3.695.024l-.965-.265-.287 1.048 1.067.2.184-.983zm1.823-8.448l-.986-.16-.001.004.987.156zm1.32-8.592l-.207-.978-.682.144-.1.691.99.143zm2.593-.456l.14.99.01-.001.008-.002-.159-.987zm4.055-.072l-.209.978.21-.978zm1.225.528l-.572.82.572-.82zm.911 1.008l-.866.5.007.012.008.012.852-.524zm.073 3.288l-.93-.367-.006.013-.004.012.94.342zm-.769 1.44l-.803-.595-.007.01-.007.01.817.575zm-1.055 1.128l.605.796.01-.007.01-.008-.626-.781zm-1.225.696l-.358-.933-2.033.781 1.917 1.032.474-.88zm.648.48l-.68.733.68-.733zm.624.744l-.832.555.008.01.007.012.818-.577zm.457.984l-.96.28.005.018.006.018.949-.316zm-5.304-1.2l-.243-.97-.636.159-.108.647.987.164zm-.193 1.032l-.978-.206-.004.02-.004.022.986.164zm-.143.84l-.985-.174.985.174zm-.168.864l-.979-.206-.004.02-.004.022.986.164zm-.168 1.032l-.988-.158-.206 1.29 1.298-.137-.104-.995zm1.032-.168l-.205-.979.205.979zm1.103-.36l.414.91.017-.007.017-.009-.447-.894zm.888-.672l.75.662.01-.011.009-.01-.769-.641zm.12-1.752l-.8.6.016.02.016.02.769-.64zm-.575-.48l-.497.868.013.008.013.006.47-.882zm-.745-.264l-.228.973.027.007.028.005.174-.985zm-.072-5.88v-1h-.834l-.15.821.984.179zm-.12.624l-.98-.196-.006.032-.005.032.992.132zm-.12.768l.983.184.002-.01-.985-.174zm-.168.768l-.97-.243-.007.03-.005.029.983.184zm-.12.672l-.986-.164-.234 1.402 1.4-.254-.18-.984zm1.056-.264l.304.953-.303-.953zm.936-.36l.426.905.011-.005.01-.006-.447-.894zm.672-.456l-.672-.74-.018.016-.017.017.707.707zm.049-1.104l-.744.669.018.02.018.018.707-.707zm-.576-.384l-.394.92.01.004.012.004.372-.928zm-.72-.192l-.197.98.036.008.037.004.123-.992zm2.528 8.232c0 .513-.106.97-.308 1.387l1.799.874a5.118 5.118 0 0 0 .508-2.261h-2zm-.308 1.387a4.67 4.67 0 0 1-.912 1.266l1.415 1.414a6.663 6.663 0 0 0 1.296-1.806l-1.799-.874zm-.9 1.254c-.396.383-.87.733-1.428 1.048l.983 1.742a8.975 8.975 0 0 0 1.835-1.352l-1.39-1.438zm-1.42 1.044c-.556.307-1.153.572-1.79.795l.659 1.888a13.572 13.572 0 0 0 2.098-.933l-.967-1.75zm-1.777.79c-.624.209-1.273.373-1.947.492l.35 1.97c.767-.137 1.51-.325 2.23-.564l-.633-1.898zm-1.929.49c-.656.104-1.283.155-1.882.155v2c.712 0 1.445-.06 2.197-.18l-.315-1.976zm-1.882.155a7.992 7.992 0 0 1-1.472-.127l-.369 1.966c.58.109 1.195.161 1.84.161v-2zm-.692 1.12a78.978 78.978 0 0 0 1.847-8.556l-1.975-.312a76.978 76.978 0 0 1-1.8 8.34l1.928.529zm1.847-8.551c.465-2.854.905-5.724 1.322-8.61l-1.98-.286a481.29 481.29 0 0 1-1.316 8.574l1.974.322zm.54-7.775c.808-.17 1.65-.319 2.526-.444l-.283-1.98c-.916.131-1.802.287-2.657.468l.413 1.956zm2.543-.447c.84-.135 1.716-.203 2.625-.203v-2c-1.01 0-1.99.076-2.942.229l.317 1.974zm2.625-.203c.32 0 .674.038 1.063.122l.419-1.956a7.077 7.077 0 0 0-1.482-.166v2zm1.063.122c.321.069.606.192.862.37l1.143-1.64a4.35 4.35 0 0 0-1.586-.686l-.419 1.956zm.862.37c.24.167.445.39.617.688l1.733-1A4.081 4.081 0 0 0 85 5.091l-1.143 1.642zm.632.712c.133.217.236.549.236 1.06h2c0-.769-.154-1.493-.533-2.108L84.49 7.444zm.236 1.06c0 .492-.084.934-.243 1.337l1.86.734a5.606 5.606 0 0 0 .382-2.071h-2zm-.252 1.362c-.16.442-.372.836-.632 1.187l1.607 1.19c.38-.513.68-1.079.904-1.693l-1.88-.684zm-.646 1.207a4.453 4.453 0 0 1-.863.922l1.25 1.562c.475-.381.892-.827 1.248-1.334l-1.635-1.15zm-.844.907a3.99 3.99 0 0 1-.977.559l.718 1.866a5.984 5.984 0 0 0 1.47-.833l-1.21-1.592zm-1.093 2.372c.115.062.263.167.442.333l1.361-1.466a4.201 4.201 0 0 0-.854-.627l-.949 1.76zm.442.333c.16.148.318.334.472.566l1.665-1.11a5.151 5.151 0 0 0-.776-.922l-1.361 1.466zm.487.588a2.3 2.3 0 0 1 .314.687l1.92-.56a4.286 4.286 0 0 0-.6-1.28l-1.633 1.153zm.325.723c.088.265.14.588.14.98h2c0-.568-.075-1.11-.243-1.612l-1.897.632zm-5.342-1.68c-.062.373-.124.703-.184.99l1.957.412c.068-.32.134-.679.2-1.074l-1.973-.328zm-.192 1.032c-.047.285-.095.561-.142.83l1.97.348.145-.85-1.973-.328zm-.142.83c-.046.26-.1.537-.162.832l1.957.412c.066-.313.124-.612.174-.896l-1.97-.348zm-.17.874c-.048.29-.105.637-.169 1.038l1.975.316.167-1.026-1.973-.328zm.923 2.19c.345-.036.723-.098 1.132-.183l-.409-1.958c-.36.075-.67.125-.932.152l.21 1.99zm1.132-.183a6.247 6.247 0 0 0 1.313-.429l-.827-1.82a4.24 4.24 0 0 1-.895.291l.409 1.958zm1.347-.445a3.891 3.891 0 0 0 1.19-.904l-1.5-1.324a1.897 1.897 0 0 1-.585.44l.895 1.788zm1.209-.926c.4-.48.591-1.055.591-1.672h-2a.564.564 0 0 1-.128.392l1.537 1.28zm.591-1.672c0-.484-.14-.962-.471-1.36l-1.537 1.28v0a.264.264 0 0 1 .008.08h2zm-.44-1.32a2.71 2.71 0 0 0-.905-.762l-.941 1.764a.72.72 0 0 1 .246.198l1.6-1.2zm-.88-.748a3.286 3.286 0 0 0-1.066-.38l-.347 1.969c.166.03.304.08.421.147l.993-1.736zm-1.01-.37a4.354 4.354 0 0 0-.998-.122v2c.152 0 .33.02.54.07l.458-1.947zm-.998-.122h-.002-.001-.001-.001-.001-.003-.001-.001-.001-.003-.001-.001-.001-.003-.001-.001-.001-.003-.001-.001-.001-.002-.001-.001-.001-.002-.001-.001-.003-.001-.001-.003-.001-.001-.002-.001-.001-.002-.001-.001-.002-.001-.001-.002-.001-.001-.002-.001-.001-.002-.001-.002-.001-.001-.002-.001-.002-.001-.001-.002-.001-.002-.001-.002-.001-.002-.001-.002-.001-.002-.001-.002-.001-.002-.001-.002-.001-.002-.002-.001-.002-.001-.001-.001-.002-.001-.002-.002-.001-.002-.002-.001-.001-.001-.002-.002-.002-.001-.001-.001-.002-.002-.002-.002-.001-.001-.001-.001-.001-.001-.001-.001-.001-.001-.001-.001-.001-.001-.001-.001-.001-.001-.001H79h-.002-.002-.002-.002-.001-.001-.001-.002-.002-.001-.001-.001-.002-.002-.001-.002-.002-.001-.002-.001-.002-.002-.001-.002-.001-.002-.001-.001v2H79.174v-2zm-.216 0c-.153 0-.294.025-.41.054l.485 1.94-.011.002a.441.441 0 0 1-.064.004v-2zm-.071-4.963c-.031.169-.07.37-.117.607l1.961.392c.049-.244.09-.458.123-.641l-1.967-.358zm-.128.67c-.03.225-.067.467-.113.727l1.97.348c.05-.284.092-.554.126-.81l-1.983-.264zm-.111.717c-.045.236-.096.472-.156.71l1.94.485c.07-.275.13-.55.181-.827l-1.965-.368zm-.168.768c-.05.26-.09.491-.124.692l1.973.328c.03-.183.07-.4.116-.652l-1.965-.368zm1.041 1.84a9.48 9.48 0 0 0 1.18-.295l-.606-1.906c-.312.1-.623.177-.931.233l.357 1.968zm1.18-.295c.385-.123.74-.258 1.06-.408l-.852-1.81c-.225.106-.495.21-.814.312l.607 1.906zm1.08-.419a3.56 3.56 0 0 0 .933-.643l-1.415-1.414c-.059.06-.183.154-.412.269l.895 1.788zm.898-.61c.331-.3.591-.73.591-1.268h-2a.39.39 0 0 1 .04-.171c.022-.043.039-.055.024-.04l1.345 1.479zm.591-1.268c0-.454-.144-.918-.508-1.283l-1.415 1.414a.299.299 0 0 1-.067-.104c-.012-.034-.01-.047-.01-.027h2zm-.472-1.245a2.512 2.512 0 0 0-.948-.643l-.743 1.856c.126.05.181.1.204.125l1.487-1.338zm-.926-.634a3.654 3.654 0 0 0-.99-.265l-.248 1.984c.169.021.318.062.45.12l.788-1.84zm-.917-.254a4.328 4.328 0 0 0-.844-.091v2c.11 0 .26.014.451.053l.393-1.962zm-.844-.091h-.24v2h.24v-2z" fill="#224259"/>
</svg>
